#N canvas 399 43 813 670 10;
#X obj 36 299 cnv 15 100 60 empty empty empty 20 12 0 14 -195568 -66577
0;
#N canvas 7 194 450 300 gemwin 0;
#X obj 132 136 gemwin;
#X obj 67 89 outlet;
#X obj 67 10 inlet;
#X obj 67 41 route create;
#X msg 67 70 set destroy;
#X msg 142 68 set create;
#X msg 198 112 destroy;
#X msg 132 112 create \, 1;
#X msg 292 68 border \$1;
#X obj 291 50 tgl 15 1 empty empty empty 0 -6 0 10 -262144 -1 -1 0
1;
#X msg 304 100 offset 1600 0;
#X msg 306 161 dimen 1024 768;
#X msg 200 40 fullscreen 2;
#X connect 2 0 3 0;
#X connect 3 0 4 0;
#X connect 3 0 7 0;
#X connect 3 1 5 0;
#X connect 3 1 6 0;
#X connect 4 0 1 0;
#X connect 5 0 1 0;
#X connect 6 0 0 0;
#X connect 7 0 0 0;
#X connect 8 0 0 0;
#X connect 9 0 8 0;
#X connect 10 0 0 0;
#X connect 11 0 0 0;
#X connect 12 0 0 0;
#X restore 41 338 pd gemwin;
#X msg 41 319 destroy;
#X text 37 298 Create window:;
#X msg 40 209 draw line;
#X msg 40 232 draw fill;
#X msg 40 186 draw point;
#X obj 194 288 gemhead;
#X msg 249 261 -4 3.93701 0;
#X msg 332 359 4 3.93701 0;
#X msg 205 149 -4 -4 0;
#X msg 454 361 3.93701 -4 0;
#N canvas 352 306 450 300 XY 0;
#X floatatom 236 49 5 0 0 0 - - -;
#X floatatom 149 45 5 0 0 0 - - -;
#X msg 181 221 -4 -4 0;
#X obj 146 125 list append;
#X obj 186 79 bng 15 250 50 0 empty empty empty 17 7 0 10 -262144 -1
-1;
#X obj 68 240 outlet;
#X msg 179 179 set \$1 \$2 0;
#X obj 58 46 inlet;
#X obj 312 47 inlet;
#X connect 0 0 3 1;
#X connect 0 0 4 0;
#X connect 1 0 3 0;
#X connect 3 0 6 0;
#X connect 4 0 1 0;
#X connect 6 0 2 0;
#X connect 6 0 5 0;
#X connect 7 0 1 0;
#X connect 8 0 0 0;
#X restore 223 111 pd XY;
#X floatatom 255 73 5 0 0 0 - Xrigthbot -;
#X floatatom 203 74 5 0 0 0 - Yrightbot -;
#N canvas 643 431 450 300 XY 0;
#X floatatom 210 47 5 0 0 0 - - -;
#X floatatom 120 52 5 0 0 0 - - -;
#X msg 181 221 4 3.93701 0;
#X obj 126 123 list append;
#X obj 157 80 bng 15 250 50 0 empty empty empty 17 7 0 10 -262144 -1
-1;
#X obj 68 240 outlet;
#X msg 179 179 set \$1 \$2 0;
#X obj 58 46 inlet;
#X obj 312 47 inlet;
#X connect 0 0 4 0;
#X connect 0 0 3 1;
#X connect 1 0 3 0;
#X connect 3 0 6 0;
#X connect 4 0 1 0;
#X connect 6 0 2 0;
#X connect 6 0 5 0;
#X connect 7 0 1 0;
#X connect 8 0 0 0;
#X restore 349 317 pd XY;
#X floatatom 381 279 5 0 0 0 - Xlefttop -;
#X floatatom 329 280 5 0 0 0 - Ylefttop -;
#N canvas 750 467 450 300 XY 0;
#X floatatom 223 51 5 0 0 0 - - -;
#X floatatom 147 56 5 0 0 0 - - -;
#X msg 181 221 -4 3.93701 0;
#X obj 168 116 list append;
#X obj 199 85 bng 15 250 50 0 empty empty empty 17 7 0 10 -262144 -1
-1;
#X obj 68 240 outlet;
#X msg 179 179 set \$1 \$2 0;
#X obj 58 46 inlet;
#X obj 312 47 inlet;
#X connect 0 0 4 0;
#X connect 0 0 3 1;
#X connect 1 0 3 0;
#X connect 3 0 6 0;
#X connect 4 0 1 0;
#X connect 6 0 2 0;
#X connect 6 0 5 0;
#X connect 7 0 1 0;
#X connect 8 0 0 0;
#X restore 256 220 pd XY;
#X floatatom 288 182 5 0 0 0 - Xrighttop -;
#X floatatom 236 183 5 0 0 0 - Yrighttop -;
#N canvas 839 48 399 300 XY 0;
#X msg 181 221 3.93701 -4 0;
#X obj 109 109 list append;
#X obj 68 240 outlet;
#X obj 58 46 inlet;
#X obj 312 47 inlet;
#X msg 179 179 set \$1 \$2 0;
#X floatatom 183 64 5 0 0 0 - - -;
#X floatatom 109 63 5 0 0 0 - - -;
#X obj 56 103 bng 15 250 50 0 empty empty empty 17 7 0 10 -262144 -1
-1;
#X connect 1 0 5 0;
#X connect 3 0 7 0;
#X connect 4 0 6 0;
#X connect 5 0 0 0;
#X connect 5 0 2 0;
#X connect 6 0 1 1;
#X connect 6 0 8 0;
#X connect 7 0 1 0;
#X connect 8 0 7 0;
#X restore 468 337 pd XY;
#X floatatom 458 281 5 0 0 0 - Yleftbot -;
#X floatatom 519 274 5 0 0 0 - Xleftbot -;
#X obj 550 -188 vsl 15 128 -4 4 0 0 Xleftbot empty empty 0 -9 0 10
-262144 -1 -1 0 1;
#X obj 376 -186 vsl 15 128 -4 4 0 0 Xdirbot empty empty 0 -9 0 10 -262144
-1 -1 0 1;
#X obj 210 -181 vsl 15 128 -4 4 0 0 Xesqtop empty empty 0 -9 0 10 -262144
-1 -1 12700 1;
#X obj 38 -185 vsl 15 128 -4 4 0 0 Xdirtop empty empty 0 -9 0 10 -262144
-1 -1 12700 1;
#X obj 394 -70 hsl 128 15 -4 4 0 0 Ydirbot empty empty -2 -8 0 10 -262144
-1 -1 10500 1;
#X obj 228 -64 hsl 128 15 -4 4 0 0 Yesqtop empty empty -2 -8 0 10 -262144
-1 -1 1300 1;
#X obj 568 -72 hsl 128 15 -4 4 0 0 Yesqbot empty empty -2 -8 0 10 -262144
-1 -1 12600 1;
#X obj 56 -69 hsl 128 15 -4 4 0 0 Ydirtop empty empty -2 -8 0 10 -262144
-1 -1 4200 1;
#X text 63 -175 PONTO 1;
#X text 236 -176 PONTO 2;
#X msg 40 161 width \$1;
#X floatatom 39 138 5 0 0 0 - - -;
#X text 399 -176 PONTO 3;
#X text 571 -177 PONTO 4;
#N canvas 622 203 450 300 linhas_horizontais 0;
#X obj 22 34 gemhead;
#X obj 26 187 rectangle;
#X msg 100 189 draw line;
#X obj 22 9 tgl 15 0 empty empty empty 17 7 0 10 -262144 -1 -1 0 1
;
#X connect 0 0 1 0;
#X connect 2 0 1 0;
#X connect 3 0 0 0;
#X restore 425 82 pd linhas_horizontais;
#X obj 195 418 translateXYZ;
#X floatatom 273 395 5 0 0 0 - - -;
#X floatatom 272 371 5 0 0 0 - - -;
#X obj 667 101 block~ 4096;
#X obj 600 155 osc~ 1;
#X obj 600 174 +~ 1;
#X obj 654 136 noise~;
#X floatatom 671 184 5 0 0 0 - - -;
#X obj 702 136 tgl 15 0 empty empty empty 0 -6 0 8 -24198 -1 -1 0 1
;
#X obj 654 159 *~ 0;
#X obj 671 203 phasor~ 700;
#X floatatom 600 137 5 0 0 0 - - -;
#X msg 677 281 quality 0;
#X msg 666 226 dimen 512 4;
#X obj 592 282 pix_texture;
#X obj 592 248 pix_sig2pix~ 64 64;
#X obj 195 391 repeat 50;
#X obj 600 194 *~ 0.8;
#X obj 194 444 polygon 4;
#X obj 194 269 tgl 15 0 empty empty empty 17 7 0 10 -262144 -1 -1 0
1;
#X obj 729 -169 dsp;
#X floatatom 730 -144 5 0 0 0 - - -;
#N canvas 399 329 789 345 controles 0;
#X obj 366 117 hsl 128 15 -50 50 0 0 empty \$0-Xesq Xesq -2 -8 0 10
-262144 -1 -1 0 1;
#X obj 64 49 hsl 128 15 -50 50 0 0 empty \$0-Xdir Xdir -2 -8 0 10 -262144
-1 -1 0 1;
#X obj 397 -143 vsl 15 128 -50 50 0 0 empty Ybot Ybot 0 -9 0 10 -262144
-1 -1 0 1;
#X obj 601 -139 vsl 15 128 -50 50 0 0 empty \$0-Ytop Ytop 0 -9 0 10
-262144 -1 -1 0 1;
#X obj 630 -104 +;
#X obj 683 -103 bng 15 250 50 0 empty empty empty 17 7 0 10 -262144
-1 -1;
#X floatatom 631 -66 5 0 0 0 - - Xlefttop;
#X obj 314 -93 +;
#X obj 367 -92 bng 15 250 50 0 empty empty empty 17 7 0 10 -262144
-1 -1;
#X floatatom 315 -55 5 0 0 0 - - #0-Xleftbot;
#X obj 704 -64 +;
#X obj 757 -63 bng 15 250 50 0 empty empty empty 17 7 0 10 -262144
-1 -1;
#X floatatom 705 -26 5 0 0 0 - - Xrighttop;
#X obj 291 32 +;
#X obj 344 33 bng 15 250 50 0 empty empty empty 17 7 0 10 -262144 -1
-1;
#X floatatom 292 70 5 0 0 0 - - Xrigthbot;
#X obj 63 134 +;
#X obj 116 135 bng 15 250 50 0 empty empty empty 17 7 0 10 -262144
-1 -1;
#X floatatom 64 172 5 0 0 0 - - Yleftbot;
#X obj 627 115 +;
#X obj 680 116 bng 15 250 50 0 empty empty empty 17 7 0 10 -262144
-1 -1;
#X floatatom 628 153 5 0 0 0 - - Yrightbot;
#X obj 142 128 +;
#X obj 195 129 bng 15 250 50 0 empty empty empty 17 7 0 10 -262144
-1 -1;
#X floatatom 143 166 5 0 0 0 - - Ylefttop;
#X obj 518 115 +;
#X obj 571 116 bng 15 250 50 0 empty empty empty 17 7 0 10 -262144
-1 -1;
#X floatatom 519 153 5 0 0 0 - - Yrighttop;
#X obj 60 99 r Yesqbot;
#X obj 141 99 r Yesqtop;
#X obj 282 -17 r Xdirbot;
#X obj 278 -128 r Xesqbot;
#X obj 550 46 r Ydirtop;
#X obj 641 47 r Ydirbot;
#X obj 630 -139 r Xesqtop;
#X obj 700 -115 r Xdirtop;
#X connect 0 0 26 0;
#X connect 0 0 25 1;
#X connect 0 0 20 0;
#X connect 0 0 19 1;
#X connect 1 0 17 0;
#X connect 1 0 23 0;
#X connect 1 0 22 1;
#X connect 1 0 16 1;
#X connect 2 0 8 0;
#X connect 2 0 7 1;
#X connect 2 0 14 0;
#X connect 2 0 13 1;
#X connect 3 0 10 1;
#X connect 3 0 4 1;
#X connect 3 0 5 0;
#X connect 3 0 11 0;
#X connect 4 0 6 0;
#X connect 5 0 4 0;
#X connect 7 0 9 0;
#X connect 8 0 7 0;
#X connect 10 0 12 0;
#X connect 11 0 10 0;
#X connect 13 0 15 0;
#X connect 14 0 13 0;
#X connect 16 0 18 0;
#X connect 17 0 16 0;
#X connect 19 0 21 0;
#X connect 20 0 19 0;
#X connect 22 0 24 0;
#X connect 23 0 22 0;
#X connect 25 0 27 0;
#X connect 26 0 25 0;
#X connect 28 0 16 0;
#X connect 29 0 22 0;
#X connect 30 0 13 0;
#X connect 31 0 7 0;
#X connect 32 0 25 0;
#X connect 33 0 19 0;
#X connect 34 0 4 0;
#X connect 35 0 10 0;
#X restore 37 267 pd controles;
#N canvas 2 71 450 300 loadbang 0;
#X obj 182 108 loadbang;
#X msg 182 125 4;
#X msg 182 142 -4;
#X obj 158 176 outlet;
#X obj 210 176 outlet;
#X connect 0 0 1 0;
#X connect 1 0 2 0;
#X connect 1 0 3 0;
#X connect 2 0 4 0;
#X restore 55 -139 pd loadbang;
#N canvas 1 48 450 300 loadbang 0;
#X obj 182 108 loadbang;
#X msg 182 125 4;
#X msg 182 142 -4;
#X obj 158 176 outlet;
#X obj 210 176 outlet;
#X connect 0 0 1 0;
#X connect 1 0 2 0;
#X connect 1 0 3 0;
#X connect 2 0 4 0;
#X restore 231 -130 pd loadbang;
#N canvas 1 48 450 300 loadbang 0;
#X obj 182 108 loadbang;
#X msg 182 125 4;
#X msg 182 142 -4;
#X obj 158 176 outlet;
#X obj 210 176 outlet;
#X connect 0 0 1 0;
#X connect 1 0 2 0;
#X connect 1 0 3 0;
#X connect 2 0 4 0;
#X restore 420 -139 pd loadbang;
#N canvas 1 48 450 300 loadbang 0;
#X obj 182 108 loadbang;
#X msg 182 125 4;
#X msg 182 142 -4;
#X obj 158 176 outlet;
#X obj 210 176 outlet;
#X obj 194 74 bng 15 250 50 0 empty empty empty 17 7 0 10 -262144 -1
-1;
#X connect 0 0 1 0;
#X connect 1 0 2 0;
#X connect 1 0 3 0;
#X connect 2 0 4 0;
#X connect 5 0 0 0;
#X restore 586 -142 pd loadbang;
#X connect 1 0 2 0;
#X connect 2 0 1 0;
#X connect 4 0 57 0;
#X connect 5 0 57 0;
#X connect 6 0 57 0;
#X connect 7 0 54 0;
#X connect 7 0 55 0;
#X connect 8 0 57 4;
#X connect 9 0 57 3;
#X connect 10 0 57 1;
#X connect 11 0 57 2;
#X connect 12 0 10 0;
#X connect 13 0 12 1;
#X connect 13 0 10 0;
#X connect 14 0 12 0;
#X connect 14 0 10 0;
#X connect 15 0 9 0;
#X connect 16 0 15 1;
#X connect 16 0 9 0;
#X connect 17 0 15 0;
#X connect 17 0 9 0;
#X connect 18 0 8 0;
#X connect 19 0 18 1;
#X connect 19 0 8 0;
#X connect 20 0 18 0;
#X connect 20 0 8 0;
#X connect 21 0 11 0;
#X connect 22 0 21 0;
#X connect 22 0 11 0;
#X connect 23 0 21 1;
#X connect 23 0 11 0;
#X connect 34 0 57 0;
#X connect 35 0 34 0;
#X connect 39 0 57 0;
#X connect 40 0 39 2;
#X connect 41 0 39 1;
#X connect 43 0 44 0;
#X connect 44 0 56 0;
#X connect 45 0 48 0;
#X connect 46 0 49 0;
#X connect 47 0 48 1;
#X connect 48 0 54 1;
#X connect 49 0 54 2;
#X connect 49 0 54 3;
#X connect 50 0 43 0;
#X connect 51 0 53 0;
#X connect 52 0 54 0;
#X connect 54 0 53 0;
#X connect 55 0 39 0;
#X connect 56 0 54 0;
#X connect 58 0 7 0;
#X connect 59 0 60 0;
#X connect 62 0 27 0;
#X connect 62 1 31 0;
#X connect 63 0 26 0;
#X connect 63 0 29 0;
#X connect 64 0 25 0;
#X connect 64 1 28 0;
#X connect 65 0 30 0;
#X connect 65 1 24 0;
