#N canvas 247 95 1088 725 10;
#X obj 89 245 bng 15 250 50 0 empty empty empty 17 7 0 10 -262144 -1
-1;
#X obj 89 181 tgl 30 0 empty empty empty 17 7 0 10 -262144 -1 -1 1
1;
#X obj 89 219 metro 50;
#X msg 145 219 info;
#X obj 187 291 leapmotion;
#N canvas 323 22 793 547 flags 0;
#X obj 109 135 tgl 15 0 empty to_general general 17 7 0 10 -262144
-1 -1 0 1;
#X obj 109 177 tgl 15 0 empty to_palm_position palm_position 17 7 0
10 -262144 -1 -1 0 1;
#X obj 110 312 tgl 15 0 empty to_fingers_position position 17 7 0 10
-262144 -1 -1 0 1;
#X obj 219 164 tgl 15 0 empty to_tools_position position 17 7 0 10
-262144 -1 -1 0 1;
#X obj 110 344 tgl 15 0 empty to_fingers_size size 17 7 0 10 -262144
-1 -1 0 1;
#X obj 219 196 tgl 15 0 empty to_tools_size size 17 7 0 10 -262144
-1 -1 0 1;
#X obj 219 180 tgl 15 0 empty to_tools_velocity velocity 17 7 0 10
-262144 -1 -1 0 1;
#X obj 110 328 tgl 15 0 empty to_fingers_velocity velocity 17 7 0 10
-262144 -1 -1 0 1;
#X obj 109 162 tgl 15 0 empty to_direction direction 17 7 0 10 -262144
-1 -1 0 1;
#X obj 109 220 tgl 15 0 empty to_sphere_radius sphere_radius 17 7 0
10 -262144 -1 -1 0 1;
#X obj 109 235 tgl 15 0 empty to_sphere_center sphere_center 17 7 0
10 -262144 -1 -1 0 1;
#X obj 109 250 tgl 15 0 empty to_finger_count finger_count 17 7 0 10
-262144 -1 -1 0 1;
#X obj 109 265 tgl 15 0 empty to_tool_count tool_count 17 7 0 10 -262144
-1 -1 0 1;
#X obj 109 191 tgl 15 0 empty to_palm_velocity palm_velocity 17 7 0
10 -262144 -1 -1 0 1;
#X obj 109 206 tgl 15 0 empty to_palm_normal palm_normal 17 7 0 10
-262144 -1 -1 0 1;
#X obj -49 463 outlet;
#X msg -49 133 general \$1;
#X msg -50 177 hands_direction \$1;
#X msg -48 236 hands_sphere_radius \$1;
#X msg -48 251 hands_sphere_center \$1;
#X msg -48 266 hands_finger_count \$1;
#X msg -48 280 hands_tool_count \$1;
#X msg -50 192 hands_palm_position \$1;
#X msg -49 206 hands_palm_velocity \$1;
#X msg -48 220 hands_palm_normal \$1;
#X msg -49 359 fingers_size \$1;
#X obj 359 427 list prepend gestures;
#X obj 359 450 list trim;
#X msg 356 210 tools_size \$1;
#X msg -49 327 fingers_position \$1;
#X msg -49 345 fingers_velocity \$1;
#X msg 356 179 tools_position \$1;
#X msg 356 194 tools_velocity \$1;
#X msg 359 312 TYPE_CIRCLE \$1;
#X msg 359 343 TYPE_KEY_TAP \$1;
#X msg 359 358 TYPE_SCREEN_TAP \$1;
#X msg 359 328 TYPE_SWIPE \$1;
#X obj 220 296 tgl 15 0 empty to_gestures_circle circle 17 7 0 10 -262144
-1 -1 0 1;
#X obj 220 326 tgl 15 0 empty to_gestures_key_tap key_tap 17 7 0 10
-262144 -1 -1 0 1;
#X obj 220 341 tgl 15 0 empty to_gestures_screen_tap screen_tap 17
7 0 10 -262144 -1 -1 0 1;
#X obj 220 311 tgl 15 0 empty to_gestures_swipe swipe 17 7 0 10 -262144
-1 -1 0 1;
#X obj 110 299 tgl 15 0 empty to_fingers_direction direction 17 7 0
10 -262144 -1 -1 0 1;
#X msg -49 310 fingers_direction \$1;
#X text 108 147 hands;
#X text 108 279 fingers;
#X text 218 277 gestures;
#X text 218 131 tools;
#X obj 219 148 tgl 15 0 empty to_tools_direction direction 17 7 0 10
-262144 -1 -1 0 1;
#X msg 356 163 tools_direction \$1;
#X obj 218 110 tgl 15 0 empty empty all_on/off 17 7 0 10 -258113 -1
-1 0 1;
#X msg 544 128 \; to_general \$1 \; to_direction \$1 \; to_palm_position
\$1 \; to_palm_velocity \$1 \; to_palm_normal \$1 \; to_sphere_radius
\$1 \; to_sphere_center \$1 \; to_finger_count \$1 \; to_tool_count
\$1 \; to_fingers_direction \$1 \; to_fingers_position \$1 \; to_fingers_velocity
\$1 \; to_fingers_size \$1 \; to_tools_direction \$1 \; to_tools_position
\$1 \; to_tools_velocity \$1 \; to_tools_size \$1 \; to_gestures_circle
\$1 \; to_gestures_swipe \$1 \; to_gestures_key_tap \$1 \; to_gestures_screen_tap
\$1 \;;
#X connect 0 0 16 0;
#X connect 1 0 22 0;
#X connect 2 0 29 0;
#X connect 3 0 31 0;
#X connect 4 0 25 0;
#X connect 5 0 28 0;
#X connect 6 0 32 0;
#X connect 7 0 30 0;
#X connect 8 0 17 0;
#X connect 9 0 18 0;
#X connect 10 0 19 0;
#X connect 11 0 20 0;
#X connect 12 0 21 0;
#X connect 13 0 23 0;
#X connect 14 0 24 0;
#X connect 16 0 15 0;
#X connect 17 0 15 0;
#X connect 18 0 15 0;
#X connect 19 0 15 0;
#X connect 20 0 15 0;
#X connect 21 0 15 0;
#X connect 22 0 15 0;
#X connect 23 0 15 0;
#X connect 24 0 15 0;
#X connect 25 0 15 0;
#X connect 26 0 27 0;
#X connect 27 0 15 0;
#X connect 28 0 15 0;
#X connect 29 0 15 0;
#X connect 30 0 15 0;
#X connect 31 0 15 0;
#X connect 32 0 15 0;
#X connect 33 0 26 0;
#X connect 34 0 26 0;
#X connect 35 0 26 0;
#X connect 36 0 26 0;
#X connect 37 0 33 0;
#X connect 38 0 34 0;
#X connect 39 0 35 0;
#X connect 40 0 36 0;
#X connect 41 0 42 0;
#X connect 42 0 15 0;
#X connect 47 0 48 0;
#X connect 48 0 15 0;
#X connect 49 0 50 0;
#X coords 0 -1 1 1 250 270 1 100 100;
#X restore 187 -6 pd flags;
#X obj 653 254 gesture 0;
#X obj 297 308 s gesture;
#X obj 773 254 gesture 1;
#X obj 893 254 gesture 2;
#N canvas 131 22 450 300 general 0;
#X obj 169 75 unpack 0 0 0 0 0 0;
#X floatatom 169 122 10 0 0 0 frameID - -;
#X floatatom 169 142 10 0 0 0 timestamp - -;
#X floatatom 169 162 5 0 0 0 hands - -;
#X floatatom 169 182 5 0 0 0 fingers - -;
#X floatatom 169 202 5 0 0 0 tools - -;
#X floatatom 169 222 5 0 0 0 gestures - -;
#X obj 169 49 r general;
#X obj 285 184 s fingeramount;
#X obj 285 164 s handamount;
#X connect 0 0 1 0;
#X connect 0 1 2 0;
#X connect 0 2 3 0;
#X connect 0 3 4 0;
#X connect 0 4 5 0;
#X connect 0 5 6 0;
#X connect 3 0 9 0;
#X connect 4 0 8 0;
#X connect 7 0 0 0;
#X coords 0 -1 1 1 150 140 1 100 100;
#X restore 35 -6 pd general;
#X obj 113 308 s general;
#N canvas 698 164 615 451 tool 0;
#X obj 299 63 r tool;
#X text 104 133 direction;
#X text 104 187 position;
#X text 104 241 velocity;
#X text 104 295 size;
#X obj 167 120 point 0;
#X obj 229 120 point 1;
#X obj 291 120 point 2;
#X obj 353 120 point 3;
#X obj 415 120 point 4;
#X connect 0 0 5 0;
#X connect 0 0 6 0;
#X connect 0 0 7 0;
#X connect 0 0 8 0;
#X connect 0 0 9 0;
#X coords 0 -1 1 1 380 250 1 100 100;
#X restore 653 -2 pd tool;
#X obj 27 381 hand 0;
#X obj 145 76;
#X obj 543 150 dsp;
#X floatatom 544 192 5 0 0 0 - - -;
#X obj 267 358 s hand2;
#X floatatom 122 362 5 0 0 0 - - -;
#X obj 215 356 s hand;
#X obj 215 331 route hand tool;
#X text 322 342 DONT FORGET TO RENAME HAND2'S SPIOGOTS!!!!;
#X obj 538 381 hand2;
#N canvas 287 22 1011 829 routehands 0;
#X obj 60 69 r hand;
#X obj 60 100 route 0 1;
#X obj 12 170 route palm_position;
#X obj 283 180 route palm_position;
#X obj 7 215 unpack f f f;
#X obj 290 228 unpack f f f;
#X floatatom 5 259 5 0 0 0 - - -;
#X floatatom 49 259 5 0 0 0 - - -;
#X floatatom 90 260 5 0 0 0 - - -;
#X floatatom 293 263 5 0 0 0 - - -;
#X floatatom 364 259 5 0 0 0 - - -;
#X floatatom 414 269 5 0 0 0 - - -;
#X obj 13 550 pack f f f f;
#X msg 6 423 3;
#X obj 370 557 pack f f f f;
#X msg 355 509 4;
#X obj 13 306 moses 0;
#X floatatom 11 347 5 0 0 0 - - -;
#X floatatom 339 400 5 0 0 0 - - -;
#X obj 344 316 moses 0;
#X floatatom 345 351 5 0 0 0 - - -;
#X floatatom 438 356 5 0 0 0 - - -;
#X obj 117 638 s palm3X;
#X obj 173 638 s palm3Y;
#X obj 230 638 s palm3Z;
#X floatatom 171 618 5 0 0 0 - - -;
#X obj 117 576 unpack f f f f;
#X floatatom 198 598 5 0 0 0 - - -;
#X floatatom 423 625 5 0 0 0 - - -;
#X obj 369 585 unpack f f f f;
#X floatatom 450 608 5 0 0 0 - - -;
#X floatatom 144 598 5 0 0 0 - - -;
#X floatatom 396 606 5 0 0 0 - - -;
#X obj 367 648 s palm4X;
#X obj 423 648 s palm4Y;
#X obj 480 648 s palm4Z;
#X obj 181 291 spigot;
#X obj 225 294 tgl 15 0 empty empty empty 17 7 0 10 -262144 -1 -1 0
1;
#X obj 144 292 > 0;
#X obj 180 262 pack f f;
#X obj 181 322 unpack f f;
#X floatatom 180 350 5 0 0 0 - - -;
#X floatatom 220 350 5 0 0 0 - - -;
#X obj 510 323 spigot;
#X obj 554 326 tgl 15 0 empty empty empty 17 7 0 10 -262144 -1 -1 1
1;
#X obj 509 294 pack f f;
#X obj 473 324 < 0;
#X obj 492 364 unpack f f;
#X floatatom 491 392 5 0 0 0 - - -;
#X floatatom 531 392 5 0 0 0 - - -;
#X obj 600 118 r handamount;
#X floatatom 649 257 5 0 0 0 - - -;
#X floatatom 703 262 5 0 0 0 - - -;
#X obj 712 312 s mao2-only;
#X floatatom 781 257 5 0 0 0 - - -;
#X obj 792 312 s mao1-only;
#X floatatom 601 244 5 0 0 0 - - -;
#X floatatom 864 233 5 0 0 0 - - -;
#X obj 792 352 s both-hands;
#X obj 600 155 expr $f1 \; $f2 \; if ($f1 == 1 && $f2 >= 0.1 \, 1 \,
0) \; if ($f1 == 1 && $f2 <= 0.1 \, 1 \, 0) \; if ($f1 == 2 && $f2
>= -250 \, 1 \, 0) \;;
#X obj 710 288 spigot;
#X obj 751 271 tgl 15 0 empty empty empty 17 7 0 10 -262144 -1 -1 -1
-1;
#X obj 793 285 spigot;
#X obj 834 268 tgl 15 0 empty empty empty 17 7 0 10 -262144 -1 -1 -1
-1;
#X obj 873 259 - 1;
#X connect 0 0 1 0;
#X connect 1 0 2 0;
#X connect 1 1 3 0;
#X connect 2 0 4 0;
#X connect 3 0 5 0;
#X connect 4 0 6 0;
#X connect 4 1 7 0;
#X connect 4 2 8 0;
#X connect 5 0 9 0;
#X connect 5 1 10 0;
#X connect 5 2 11 0;
#X connect 6 0 16 0;
#X connect 6 0 38 0;
#X connect 6 0 46 0;
#X connect 6 0 59 1;
#X connect 7 0 12 2;
#X connect 7 0 39 0;
#X connect 8 0 12 3;
#X connect 8 0 39 1;
#X connect 9 0 19 0;
#X connect 10 0 45 0;
#X connect 11 0 45 1;
#X connect 12 0 26 0;
#X connect 13 0 12 0;
#X connect 14 0 29 0;
#X connect 15 0 14 0;
#X connect 16 0 17 0;
#X connect 16 1 18 0;
#X connect 17 0 12 1;
#X connect 17 0 13 0;
#X connect 18 0 15 0;
#X connect 18 0 14 1;
#X connect 19 0 20 0;
#X connect 19 1 21 0;
#X connect 20 0 12 1;
#X connect 20 0 13 0;
#X connect 21 0 14 1;
#X connect 21 0 15 0;
#X connect 25 0 23 0;
#X connect 26 1 31 0;
#X connect 26 2 25 0;
#X connect 26 3 27 0;
#X connect 27 0 24 0;
#X connect 28 0 34 0;
#X connect 29 1 32 0;
#X connect 29 2 28 0;
#X connect 29 3 30 0;
#X connect 30 0 35 0;
#X connect 31 0 22 0;
#X connect 32 0 33 0;
#X connect 36 0 40 0;
#X connect 37 0 36 1;
#X connect 38 0 37 0;
#X connect 39 0 36 0;
#X connect 40 0 41 0;
#X connect 40 1 42 0;
#X connect 41 0 14 2;
#X connect 42 0 14 3;
#X connect 43 0 47 0;
#X connect 44 0 43 1;
#X connect 45 0 43 0;
#X connect 46 0 44 0;
#X connect 47 0 48 0;
#X connect 47 1 49 0;
#X connect 48 0 14 2;
#X connect 49 0 14 3;
#X connect 50 0 59 0;
#X connect 52 0 60 0;
#X connect 54 0 62 0;
#X connect 57 0 64 0;
#X connect 59 0 56 0;
#X connect 59 1 51 0;
#X connect 59 2 52 0;
#X connect 59 3 54 0;
#X connect 59 4 57 0;
#X connect 60 0 53 0;
#X connect 61 0 60 1;
#X connect 62 0 55 0;
#X connect 63 0 62 1;
#X connect 64 0 63 0;
#X connect 64 0 61 0;
#X restore 477 261 pd routehands;
#X connect 0 0 4 0;
#X connect 1 0 2 0;
#X connect 2 0 0 0;
#X connect 3 0 4 0;
#X connect 4 0 11 0;
#X connect 4 1 20 0;
#X connect 4 2 7 0;
#X connect 5 0 4 0;
#X connect 15 0 16 0;
#X connect 20 0 18 0;
#X connect 20 0 19 0;
