#N canvas 47 84 1017 647 12;
#X declare -lib Gem;
#X obj 32 75 t b b;
#X obj 32 27 tgl 15 0 empty empty empty 0 -6 0 8 -262144 -1 -1 1 1
;
#X obj 298 29 bng 15 250 50 0 empty empty empty 0 -6 0 8 -262144 -1
-1;
#X msg 65 236 0 \, destroy;
#N canvas 415 22 806 691 structure 0;
#N canvas 0 22 452 302 link 0;
#X obj 177 35 inlet;
#X obj 171 96 outlet;
#X obj 12 32 inlet;
#X obj 6 93 outlet;
#X msg 56 156 \$1 \$2 0;
#X obj 24 186 gemhead;
#X obj 26 210 curve 2;
#X msg 134 155 \$1 \$2 0;
#X obj 45 61 link2D \$0-link 0 10 2.5 0.1;
#X obj 139 229 r off;
#X connect 0 0 7 0;
#X connect 0 0 8 1;
#X connect 2 0 4 0;
#X connect 2 0 8 0;
#X connect 4 0 6 1;
#X connect 5 0 6 0;
#X connect 7 0 6 2;
#X connect 8 0 3 0;
#X connect 8 1 1 0;
#X connect 9 0 5 0;
#X restore 354 608 pd link;
#N canvas 300 284 841 593 mass 0;
#X obj 26 38 inlet;
#X obj 11 137 outlet;
#X obj 25 104 unpack s f f;
#X obj 462 318 part_color;
#X obj 267 318 translateXYZ;
#X floatatom 392 302 5 0 0 0 - - -;
#X obj 267 375 accumrotate;
#X obj 410 339 tgl 15 0 empty empty empty 17 7 0 10 -262144 -1 -1 0
1;
#X msg 357 380 6;
#X obj 391 358 metro 100;
#X text 330 181 particle acceleration;
#X obj 268 73 gemhead;
#X obj 268 53 tgl 15 0 empty empty empty 0 -6 0 8 -262144 -1 -1 1 1
;
#X obj 268 94 part_head;
#X obj 268 436 part_draw;
#X floatatom 335 10 5 0 0 0 - - -;
#X floatatom 342 71 5 0 0 0 - - -;
#X obj 266 276 part_orbitpoint;
#X floatatom 397 235 5 0 0 0 - - -;
#X msg 342 419 draw line;
#X msg 342 459 draw \$1;
#X floatatom 395 476 5 0 0 0 - - -;
#X floatatom 393 277 5 0 0 0 - - -;
#X msg 396 83 \$1;
#X floatatom 421 195 5 0 0 0 - - -;
#X obj 268 146 part_killold 1;
#X obj 268 230 part_follow 0.002;
#X obj 268 118 part_source 50;
#X obj 222 18 r rain-off;
#X msg 334 34 speed \$1;
#X msg 482 256 0.7 0.6 0.2;
#X msg 542 286 0.1 0.3 0.8;
#X obj 24 65 mass2D \$0-mass 50 0 0;
#X connect 0 0 32 0;
#X connect 2 1 22 0;
#X connect 2 2 5 0;
#X connect 3 0 4 0;
#X connect 4 0 6 0;
#X connect 5 0 4 2;
#X connect 6 0 14 0;
#X connect 7 0 9 0;
#X connect 8 0 6 1;
#X connect 9 0 8 0;
#X connect 11 0 13 0;
#X connect 12 0 11 0;
#X connect 13 0 27 0;
#X connect 15 0 29 0;
#X connect 16 0 23 0;
#X connect 17 0 3 0;
#X connect 18 0 17 2;
#X connect 19 0 14 0;
#X connect 20 0 14 0;
#X connect 21 0 20 0;
#X connect 22 0 4 1;
#X connect 23 0 27 1;
#X connect 24 0 26 1;
#X connect 25 0 26 0;
#X connect 26 0 17 0;
#X connect 27 0 25 0;
#X connect 28 0 12 0;
#X connect 29 0 13 0;
#X connect 30 0 3 1;
#X connect 31 0 3 2;
#X connect 32 0 2 0;
#X connect 32 0 1 0;
#X restore 655 614 pd mass;
#N canvas 0 22 452 302 link 0;
#X obj 177 35 inlet;
#X obj 171 96 outlet;
#X obj 12 32 inlet;
#X obj 6 93 outlet;
#X msg 56 156 \$1 \$2 0;
#X obj 24 186 gemhead;
#X obj 26 210 curve 2;
#X msg 134 155 \$1 \$2 0;
#X obj 45 61 link2D \$0-link 0 10 2.5 0.1;
#X obj 163 252 r off;
#X connect 0 0 7 0;
#X connect 0 0 8 1;
#X connect 2 0 4 0;
#X connect 2 0 8 0;
#X connect 4 0 6 1;
#X connect 5 0 6 0;
#X connect 7 0 6 2;
#X connect 8 0 3 0;
#X connect 8 1 1 0;
#X connect 9 0 5 0;
#X restore 81 574 pd link;
#N canvas 0 22 452 302 link 0;
#X obj 177 35 inlet;
#X obj 171 96 outlet;
#X obj 12 32 inlet;
#X obj 6 93 outlet;
#X msg 56 156 \$1 \$2 0;
#X obj 24 186 gemhead;
#X obj 26 210 curve 2;
#X msg 134 155 \$1 \$2 0;
#X obj 45 61 link2D \$0-link 0 10 2.5 0.1;
#X obj 143 232 r off;
#X connect 0 0 7 0;
#X connect 0 0 8 1;
#X connect 2 0 4 0;
#X connect 2 0 8 0;
#X connect 4 0 6 1;
#X connect 5 0 6 0;
#X connect 7 0 6 2;
#X connect 8 0 3 0;
#X connect 8 1 1 0;
#X connect 9 0 5 0;
#X restore 651 490 pd link;
#N canvas 474 51 955 559 mass 0;
#X obj 26 38 inlet;
#X obj 11 137 outlet;
#X obj 25 104 unpack s f f;
#X obj 493 316 part_color;
#X obj 298 316 translateXYZ;
#X floatatom 423 300 5 0 0 0 - - -;
#X obj 298 373 accumrotate;
#X obj 441 337 tgl 15 0 empty empty empty 17 7 0 10 -262144 -1 -1 0
1;
#X msg 388 378 6;
#X obj 422 356 metro 100;
#X text 361 179 particle acceleration;
#X obj 299 71 gemhead;
#X obj 299 51 tgl 15 0 empty empty empty 0 -6 0 8 -262144 -1 -1 1 1
;
#X floatatom 413 207 5 0 0 0 - - -;
#X obj 299 144 part_killold 5;
#X obj 299 228 part_follow 0.001;
#X obj 299 116 part_source 5;
#X obj 299 92 part_head;
#X obj 299 434 part_draw;
#X msg 365 32 speed \$1;
#X floatatom 366 8 5 0 0 0 - - -;
#X floatatom 373 69 5 0 0 0 - - -;
#X obj 297 274 part_orbitpoint;
#X floatatom 428 233 5 0 0 0 - - -;
#X msg 373 417 draw line;
#X msg 373 457 draw \$1;
#X floatatom 426 474 5 0 0 0 - - -;
#X floatatom 424 275 5 0 0 0 - - -;
#X obj 24 66 mass2D \$0-mass 50 -0.7 0.5;
#X msg 571 300 0.9 0.1 0.1;
#X msg 565 253 0 0.1 0.8;
#X connect 0 0 28 0;
#X connect 2 1 27 0;
#X connect 2 2 5 0;
#X connect 3 0 4 0;
#X connect 4 0 6 0;
#X connect 5 0 4 2;
#X connect 6 0 18 0;
#X connect 7 0 9 0;
#X connect 8 0 6 1;
#X connect 9 0 8 0;
#X connect 11 0 17 0;
#X connect 12 0 11 0;
#X connect 13 0 15 1;
#X connect 14 0 15 0;
#X connect 15 0 22 0;
#X connect 16 0 14 0;
#X connect 17 0 16 0;
#X connect 19 0 17 0;
#X connect 20 0 19 0;
#X connect 21 0 16 1;
#X connect 22 0 3 0;
#X connect 23 0 22 2;
#X connect 24 0 18 0;
#X connect 25 0 18 0;
#X connect 26 0 25 0;
#X connect 27 0 4 1;
#X connect 28 0 2 0;
#X connect 28 0 1 0;
#X connect 29 0 3 1;
#X connect 30 0 3 2;
#X restore 40 615 pd mass;
#N canvas 577 47 986 641 mass 0;
#X obj 26 38 inlet;
#X obj 11 137 outlet;
#X obj 25 104 unpack s f f;
#X obj 25 65 mass2D \$0-mass 50 0.3 1;
#X obj 449 318 part_color;
#X obj 254 318 translateXYZ;
#X floatatom 379 302 5 0 0 0 - - -;
#X obj 254 375 accumrotate;
#X obj 397 339 tgl 15 0 empty empty empty 17 7 0 10 -262144 -1 -1 0
1;
#X msg 344 380 6;
#X obj 378 358 metro 100;
#X text 317 181 particle acceleration;
#X obj 255 73 gemhead;
#X obj 255 53 tgl 15 0 empty empty empty 0 -6 0 8 -262144 -1 -1 1 1
;
#X floatatom 369 209 5 0 0 0 - - -;
#X obj 255 146 part_killold 5;
#X obj 255 230 part_follow 0.001;
#X obj 255 118 part_source 5;
#X obj 255 94 part_head;
#X obj 255 436 part_draw;
#X msg 321 34 speed \$1;
#X floatatom 322 10 5 0 0 0 - - -;
#X floatatom 329 71 5 0 0 0 - - -;
#X obj 253 276 part_orbitpoint;
#X floatatom 384 235 5 0 0 0 - - -;
#X msg 329 419 draw line;
#X msg 329 459 draw \$1;
#X floatatom 382 476 5 0 0 0 - - -;
#X floatatom 380 277 5 0 0 0 - - -;
#X msg 527 303 0.1 0.9 0.1;
#X msg 529 273 0.9 0.9 0.1;
#X connect 0 0 3 0;
#X connect 2 1 28 0;
#X connect 2 2 6 0;
#X connect 3 0 2 0;
#X connect 3 0 1 0;
#X connect 4 0 5 0;
#X connect 5 0 7 0;
#X connect 6 0 5 2;
#X connect 7 0 19 0;
#X connect 8 0 10 0;
#X connect 9 0 7 1;
#X connect 10 0 9 0;
#X connect 12 0 18 0;
#X connect 13 0 12 0;
#X connect 14 0 16 1;
#X connect 15 0 16 0;
#X connect 16 0 23 0;
#X connect 17 0 15 0;
#X connect 18 0 17 0;
#X connect 20 0 18 0;
#X connect 21 0 20 0;
#X connect 22 0 17 1;
#X connect 23 0 4 0;
#X connect 24 0 23 2;
#X connect 25 0 19 0;
#X connect 26 0 19 0;
#X connect 27 0 26 0;
#X connect 28 0 5 1;
#X connect 29 0 4 1;
#X connect 30 0 4 2;
#X restore 647 393 pd mass;
#X connect 0 0 4 0;
#X connect 0 1 1 0;
#X connect 1 0 0 1;
#X connect 1 0 3 1;
#X connect 2 0 4 0;
#X connect 2 1 5 0;
#X connect 3 0 5 0;
#X connect 3 1 1 0;
#X connect 4 0 2 0;
#X connect 4 0 0 0;
#X connect 5 0 3 0;
#X connect 5 0 2 1;
#X restore 407 307 pd structure;
#N canvas 0 25 1649 917 init 0;
#X msg 245 351 setK \$1;
#X msg 427 318 setD \$1;
#X floatatom 245 276 5 -10 200 0 - - -;
#X floatatom 427 267 5 0 0 0 - - -;
#X obj 245 325 / 10;
#X obj 245 299 + 1;
#X obj 427 291 / 10;
#X obj 49 50 loadbang;
#X floatatom 611 259 5 0 0 0 - - -;
#X obj 611 283 / 10;
#X msg 611 310 setD2 \$1;
#X obj 47 201 s \$0-mass;
#X obj 245 383 s \$0-link;
#X obj 217 28 loadbang;
#X obj 269 110 sel 0 1 2 3;
#X obj 268 71 r preset;
#X obj 406 25 loadbang;
#X obj 458 107 sel 0 1 2 3;
#X obj 457 68 r preset;
#X obj 593 22 loadbang;
#X obj 645 104 sel 0 1 2 3;
#X obj 644 65 r preset;
#X msg 224 144 25;
#X msg 414 141 7;
#X msg 601 138 1;
#X msg 275 143 1;
#X msg 651 137 0.1;
#X msg 463 140 0.2;
#X msg 326 142 30;
#X msg 514 139 13;
#X msg 701 136 0.1;
#X msg 371 142 10;
#X msg 560 139 0.2;
#X msg 747 136 0.2;
#X msg 44 84 setXmin -3.8;
#X msg 58 110 setXmax 3.8;
#X msg 75 135 setYmin -3.8;
#X msg 89 161 setYmax 3.8;
#X connect 0 0 12 0;
#X connect 1 0 12 0;
#X connect 2 0 5 0;
#X connect 3 0 6 0;
#X connect 4 0 0 0;
#X connect 5 0 4 0;
#X connect 6 0 1 0;
#X connect 7 0 34 0;
#X connect 7 0 35 0;
#X connect 7 0 36 0;
#X connect 7 0 37 0;
#X connect 8 0 9 0;
#X connect 9 0 10 0;
#X connect 10 0 12 0;
#X connect 13 0 22 0;
#X connect 14 0 22 0;
#X connect 14 1 25 0;
#X connect 14 2 28 0;
#X connect 14 3 31 0;
#X connect 15 0 14 0;
#X connect 16 0 23 0;
#X connect 17 0 23 0;
#X connect 17 1 27 0;
#X connect 17 2 29 0;
#X connect 17 3 32 0;
#X connect 18 0 17 0;
#X connect 19 0 24 0;
#X connect 20 0 24 0;
#X connect 20 1 26 0;
#X connect 20 2 30 0;
#X connect 20 3 33 0;
#X connect 21 0 20 0;
#X connect 22 0 2 0;
#X connect 23 0 3 0;
#X connect 24 0 8 0;
#X connect 25 0 2 0;
#X connect 26 0 8 0;
#X connect 27 0 3 0;
#X connect 28 0 2 0;
#X connect 29 0 3 0;
#X connect 30 0 8 0;
#X connect 31 0 2 0;
#X connect 32 0 3 0;
#X connect 33 0 8 0;
#X connect 34 0 11 0;
#X connect 35 0 11 0;
#X connect 36 0 11 0;
#X connect 37 0 11 0;
#X restore 407 280 pd init;
#X obj 319 28 loadbang;
#X msg 268 233 force2D 0 -2;
#X obj 32 48 metro 5;
#X obj 67 100 s \$0-link;
#X obj 32 161 s \$0-mass;
#X obj 319 57 t b b b;
#X msg 370 82 reset;
#X msg 345 107 resetL;
#X msg 319 135 resetF;
#X obj 266 265 s \$0-mass;
#N canvas 128 22 454 304 gravite 0;
#X obj 80 154 inlet;
#X obj 80 241 outlet;
#X obj 80 184 f;
#X obj 185 29 loadbang;
#X obj 269 110 sel 0 1 2 3;
#X obj 268 71 r preset;
#X msg 224 144 -0.01;
#X msg 325 142 -0.003;
#X msg 386 142 -0.03;
#X msg 275 143 -0.0001;
#X msg 80 213 force2D -0.0001 \$1;
#X connect 0 0 2 0;
#X connect 2 0 10 0;
#X connect 3 0 6 0;
#X connect 4 0 6 0;
#X connect 4 1 9 0;
#X connect 4 2 7 0;
#X connect 4 3 8 0;
#X connect 5 0 4 0;
#X connect 6 0 2 1;
#X connect 7 0 2 1;
#X connect 8 0 2 1;
#X connect 9 0 2 1;
#X connect 10 0 1 0;
#X restore 80 129 pd gravite;
#X text 55 25 <- 1;
#X text 174 213 <- 2;
#X obj 31 264 gemwin;
#X obj 106 10 declare -lib Gem;
#X msg 114 272 fullscreen 2;
#X msg 31 211 create \, 1;
#X msg 211 206 force2D -2 0;
#X obj 627 282 readsf~ 2;
#X obj 627 341 dac~;
#X obj 627 311 *~ 0.5;
#X msg 625 180 open splash.wav;
#X msg 632 229 start;
#X obj 727 257 bng 15 250 50 0 empty empty empty 17 7 0 10 -262144
-1 -1;
#X obj 728 280 del 10;
#X obj 567 311 env~;
#X floatatom 567 336 5 0 0 0 - - -;
#X obj 569 424 tgl 15 0 empty empty empty 17 7 0 10 -262144 -1 -1 0
1;
#X obj 591 425 s rain-off;
#X obj 568 380 > 50;
#X obj 787 282 readsf~ 2;
#X obj 787 311 *~ 0.5;
#X msg 792 229 start;
#X obj 887 257 bng 15 250 50 0 empty empty empty 17 7 0 10 -262144
-1 -1;
#X obj 888 280 del 10;
#X msg 785 180 open rainforest.wav;
#X obj 604 54 s off;
#X obj 604 34 tgl 15 0 empty empty empty 17 7 0 10 -262144 -1 -1 0
1;
#X text 646 53 liga e desliga a estrutura física;
#X obj 217 360 tgl 15 0 empty empty empty 17 7 0 10 -262144 -1 -1 0
1;
#X obj 264 404 f;
#X obj 304 404 + 1;
#X floatatom 264 463 5 0 0 0 - - -;
#X text 46 512;
#X obj 265 493 sel 1;
#X obj 315 493 sel 2;
#X obj 217 493 sel 0;
#X obj 218 521 bng 15 250 50 0 empty empty empty 17 7 0 10 -262144
-1 -1;
#X obj 264 522 bng 15 250 50 0 empty empty empty 17 7 0 10 -262144
-1 -1;
#X obj 316 524 bng 15 250 50 0 empty empty empty 17 7 0 10 -262144
-1 -1;
#X msg 505 490 force2D 0.5 0.5;
#X msg 364 493 force2D -0.8 -0.6;
#X obj 264 437 mod 1;
#X obj 264 375 metro 500;
#X msg 96 493 force2D 0.5 0.5;
#X msg 322 205 force2D 2 0;
#N canvas 126 22 326 552 hand3 0;
#X floatatom 18 64 5 0 0 0 - - -;
#X floatatom 23 249 5 0 0 0 - - -;
#X obj 23 279 clip 0 500;
#X obj 23 219 r palm3Y;
#X obj 18 37 r palm3X;
#X floatatom 188 177 5 0 0 0 - - -;
#X obj 189 210 s eixo-x;
#X floatatom 188 114 5 0 0 0 - - -;
#X obj 18 93 autoscale -1 1;
#X floatatom 192 391 5 0 0 0 - - -;
#X floatatom 192 328 5 0 0 0 - - -;
#X obj 22 307 autoscale -1 1;
#X obj 193 424 s eixo-y;
#X obj 189 142 / 80;
#X obj 193 356 / 80;
#X connect 0 0 8 0;
#X connect 1 0 2 0;
#X connect 2 0 11 0;
#X connect 3 0 1 0;
#X connect 4 0 0 0;
#X connect 5 0 6 0;
#X connect 7 0 13 0;
#X connect 8 0 7 0;
#X connect 9 0 12 0;
#X connect 10 0 14 0;
#X connect 11 0 10 0;
#X connect 13 0 5 0;
#X connect 14 0 9 0;
#X restore 757 491 pd hand3;
#X msg 382 245 force2D \$1 0;
#X obj 510 238 r eixo-x;
#X obj 510 268 line;
#X floatatom 555 274 5 0 0 0 - - -;
#X msg 266 180 force2D 0 \$1;
#X obj 431 182 line;
#X floatatom 476 188 5 0 0 0 - - -;
#X obj 431 152 r eixo-y;
#X connect 0 0 10 0;
#X connect 0 1 9 0;
#X connect 0 1 16 0;
#X connect 1 0 8 0;
#X connect 2 0 11 0;
#X connect 3 0 19 0;
#X connect 6 0 11 0;
#X connect 7 0 15 0;
#X connect 8 0 0 0;
#X connect 11 0 14 0;
#X connect 11 1 13 0;
#X connect 11 2 12 0;
#X connect 12 0 10 0;
#X connect 13 0 9 0;
#X connect 14 0 9 0;
#X connect 16 0 10 0;
#X connect 21 0 19 0;
#X connect 22 0 19 0;
#X connect 23 0 15 0;
#X connect 24 0 26 0;
#X connect 24 1 26 0;
#X connect 26 0 31 0;
#X connect 26 0 25 0;
#X connect 26 0 25 1;
#X connect 27 0 24 0;
#X connect 28 0 24 0;
#X connect 29 0 27 0;
#X connect 29 0 30 0;
#X connect 30 0 28 0;
#X connect 31 0 32 0;
#X connect 32 0 35 0;
#X connect 33 0 34 0;
#X connect 36 0 37 0;
#X connect 36 1 37 0;
#X connect 36 2 39 0;
#X connect 38 0 36 0;
#X connect 39 0 41 0;
#X connect 39 0 40 0;
#X connect 40 0 38 0;
#X connect 41 0 36 0;
#X connect 43 0 42 0;
#X connect 45 0 59 0;
#X connect 46 0 47 0;
#X connect 46 0 58 0;
#X connect 47 0 46 1;
#X connect 48 0 52 0;
#X connect 48 0 50 0;
#X connect 48 0 51 0;
#X connect 50 0 54 0;
#X connect 51 0 55 0;
#X connect 52 0 53 0;
#X connect 53 0 60 0;
#X connect 54 0 57 0;
#X connect 55 0 56 0;
#X connect 56 0 15 0;
#X connect 57 0 15 0;
#X connect 58 0 48 0;
#X connect 59 0 46 0;
#X connect 60 0 15 0;
#X connect 61 0 15 0;
#X connect 63 0 15 0;
#X connect 64 0 65 0;
#X connect 65 0 63 0;
#X connect 65 0 66 0;
#X connect 67 0 15 0;
#X connect 68 0 69 0;
#X connect 69 0 67 0;
#X connect 70 0 68 0;
