#N canvas 357 94 799 562 12;
#X declare -lib Gem;
#X obj 32 75 t b b;
#X obj 32 27 tgl 15 0 empty empty empty 0 -6 0 8 -262144 -1 -1 1 1
;
#X obj 298 29 bng 15 250 50 0 empty empty empty 0 -6 0 8 -262144 -1
-1;
#X msg 65 236 0 \, destroy;
#N canvas 456 124 806 691 structure 1;
#N canvas 0 22 452 302 link 0;
#X obj 177 35 inlet;
#X obj 171 96 outlet;
#X obj 12 32 inlet;
#X obj 6 93 outlet;
#X msg 56 156 \$1 \$2 0;
#X obj 24 186 gemhead;
#X obj 26 210 curve 2;
#X msg 134 155 \$1 \$2 0;
#X obj 45 61 link2D \$0-link 0 10 2.5 0.1;
#X obj 187 233 r off;
#X connect 0 0 7 0;
#X connect 0 0 8 1;
#X connect 2 0 4 0;
#X connect 2 0 8 0;
#X connect 4 0 6 1;
#X connect 5 0 6 0;
#X connect 7 0 6 2;
#X connect 8 0 3 0;
#X connect 8 1 1 0;
#X connect 9 0 5 0;
#X restore 29 94 pd link;
#N canvas 0 22 452 302 link 0;
#X obj 177 35 inlet;
#X obj 171 96 outlet;
#X obj 12 32 inlet;
#X obj 6 93 outlet;
#X msg 56 156 \$1 \$2 0;
#X obj 24 186 gemhead;
#X obj 26 210 curve 2;
#X msg 134 155 \$1 \$2 0;
#X obj 45 61 link2D \$0-link 0 10 2.5 0.1;
#X obj 207 253 r off;
#X connect 0 0 7 0;
#X connect 0 0 8 1;
#X connect 2 0 4 0;
#X connect 2 0 8 0;
#X connect 4 0 6 1;
#X connect 5 0 6 0;
#X connect 7 0 6 2;
#X connect 8 0 3 0;
#X connect 8 1 1 0;
#X connect 9 0 5 0;
#X restore 80 187 pd link;
#N canvas 0 22 452 302 link 0;
#X obj 177 35 inlet;
#X obj 171 96 outlet;
#X obj 12 32 inlet;
#X obj 6 93 outlet;
#X msg 56 156 \$1 \$2 0;
#X obj 24 186 gemhead;
#X obj 26 210 curve 2;
#X msg 134 155 \$1 \$2 0;
#X obj 45 61 link2D \$0-link 0 10 2.5 0.1;
#X obj 166 229 r off;
#X connect 0 0 7 0;
#X connect 0 0 8 1;
#X connect 2 0 4 0;
#X connect 2 0 8 0;
#X connect 4 0 6 1;
#X connect 5 0 6 0;
#X connect 7 0 6 2;
#X connect 8 0 3 0;
#X connect 8 1 1 0;
#X connect 9 0 5 0;
#X restore 36 296 pd link;
#N canvas 0 22 452 302 link 0;
#X obj 177 35 inlet;
#X obj 171 96 outlet;
#X obj 12 32 inlet;
#X obj 6 93 outlet;
#X msg 56 156 \$1 \$2 0;
#X obj 24 186 gemhead;
#X obj 26 210 curve 2;
#X msg 134 155 \$1 \$2 0;
#X obj 45 61 link2D \$0-link 0 10 2.5 0.1;
#X obj 133 222 r off;
#X connect 0 0 7 0;
#X connect 0 0 8 1;
#X connect 2 0 4 0;
#X connect 2 0 8 0;
#X connect 4 0 6 1;
#X connect 5 0 6 0;
#X connect 7 0 6 2;
#X connect 8 0 3 0;
#X connect 8 1 1 0;
#X connect 9 0 5 0;
#X restore 33 499 pd link;
#N canvas 0 22 452 302 link 0;
#X obj 177 35 inlet;
#X obj 171 96 outlet;
#X obj 12 32 inlet;
#X obj 6 93 outlet;
#X msg 56 156 \$1 \$2 0;
#X obj 24 186 gemhead;
#X obj 26 210 curve 2;
#X msg 134 155 \$1 \$2 0;
#X obj 45 61 link2D \$0-link 0 10 2.5 0.1;
#X obj 163 252 r off;
#X connect 0 0 7 0;
#X connect 0 0 8 1;
#X connect 2 0 4 0;
#X connect 2 0 8 0;
#X connect 4 0 6 1;
#X connect 5 0 6 0;
#X connect 7 0 6 2;
#X connect 8 0 3 0;
#X connect 8 1 1 0;
#X connect 9 0 5 0;
#X restore 81 574 pd link;
#N canvas 0 22 452 302 link 0;
#X obj 177 35 inlet;
#X obj 171 96 outlet;
#X obj 12 32 inlet;
#X obj 6 93 outlet;
#X msg 56 156 \$1 \$2 0;
#X obj 24 186 gemhead;
#X obj 26 210 curve 2;
#X msg 134 155 \$1 \$2 0;
#X obj 45 61 link2D \$0-link 0 10 2.5 0.1;
#X obj 153 242 r off;
#X connect 0 0 7 0;
#X connect 0 0 8 1;
#X connect 2 0 4 0;
#X connect 2 0 8 0;
#X connect 4 0 6 1;
#X connect 5 0 6 0;
#X connect 7 0 6 2;
#X connect 8 0 3 0;
#X connect 8 1 1 0;
#X connect 9 0 5 0;
#X restore 82 548 pd link;
#N canvas 0 22 452 302 link 0;
#X obj 177 35 inlet;
#X obj 171 96 outlet;
#X obj 12 32 inlet;
#X obj 6 93 outlet;
#X msg 56 156 \$1 \$2 0;
#X obj 24 186 gemhead;
#X obj 26 210 curve 2;
#X msg 134 155 \$1 \$2 0;
#X obj 45 61 link2D \$0-link 0 10 2.5 0.1;
#X obj 196 259 r off;
#X connect 0 0 7 0;
#X connect 0 0 8 1;
#X connect 2 0 4 0;
#X connect 2 0 8 0;
#X connect 4 0 6 1;
#X connect 5 0 6 0;
#X connect 7 0 6 2;
#X connect 8 0 3 0;
#X connect 8 1 1 0;
#X connect 9 0 5 0;
#X restore 71 370 pd link;
#N canvas 0 22 452 302 link 0;
#X obj 177 35 inlet;
#X obj 171 96 outlet;
#X obj 12 32 inlet;
#X obj 6 93 outlet;
#X msg 56 156 \$1 \$2 0;
#X obj 24 186 gemhead;
#X obj 26 210 curve 2;
#X msg 134 155 \$1 \$2 0;
#X obj 45 61 link2D \$0-link 0 10 2.5 0.1;
#X obj 186 249 r off;
#X connect 0 0 7 0;
#X connect 0 0 8 1;
#X connect 2 0 4 0;
#X connect 2 0 8 0;
#X connect 4 0 6 1;
#X connect 5 0 6 0;
#X connect 7 0 6 2;
#X connect 8 0 3 0;
#X connect 8 1 1 0;
#X connect 9 0 5 0;
#X restore 72 345 pd link;
#N canvas 0 22 452 302 link 0;
#X obj 177 35 inlet;
#X obj 171 96 outlet;
#X obj 12 32 inlet;
#X obj 6 93 outlet;
#X msg 56 156 \$1 \$2 0;
#X obj 24 186 gemhead;
#X obj 26 210 curve 2;
#X msg 134 155 \$1 \$2 0;
#X obj 45 61 link2D \$0-link 0 10 2.5 0.1;
#X obj 177 223 r off;
#X connect 0 0 7 0;
#X connect 0 0 8 1;
#X connect 2 0 4 0;
#X connect 2 0 8 0;
#X connect 4 0 6 1;
#X connect 5 0 6 0;
#X connect 7 0 6 2;
#X connect 8 0 3 0;
#X connect 8 1 1 0;
#X connect 9 0 5 0;
#X restore 359 17 pd link;
#N canvas 0 22 452 302 link 0;
#X obj 177 35 inlet;
#X obj 171 96 outlet;
#X obj 12 32 inlet;
#X obj 6 93 outlet;
#X msg 56 156 \$1 \$2 0;
#X obj 24 186 gemhead;
#X obj 26 210 curve 2;
#X msg 134 155 \$1 \$2 0;
#X obj 45 61 link2D \$0-link 0 10 2.5 0.1;
#X obj 217 263 r off;
#X connect 0 0 7 0;
#X connect 0 0 8 1;
#X connect 2 0 4 0;
#X connect 2 0 8 0;
#X connect 4 0 6 1;
#X connect 5 0 6 0;
#X connect 7 0 6 2;
#X connect 8 0 3 0;
#X connect 8 1 1 0;
#X connect 9 0 5 0;
#X restore 354 206 pd link;
#N canvas 0 22 452 302 link 0;
#X obj 177 35 inlet;
#X obj 171 96 outlet;
#X obj 12 32 inlet;
#X obj 6 93 outlet;
#X msg 56 156 \$1 \$2 0;
#X obj 24 186 gemhead;
#X obj 26 210 curve 2;
#X msg 134 155 \$1 \$2 0;
#X obj 45 61 link2D \$0-link 0 10 2.5 0.1;
#X obj 127 222 r off;
#X connect 0 0 7 0;
#X connect 0 0 8 1;
#X connect 2 0 4 0;
#X connect 2 0 8 0;
#X connect 4 0 6 1;
#X connect 5 0 6 0;
#X connect 7 0 6 2;
#X connect 8 0 3 0;
#X connect 8 1 1 0;
#X connect 9 0 5 0;
#X restore 342 400 pd link;
#N canvas 0 22 452 302 link 0;
#X obj 177 35 inlet;
#X obj 171 96 outlet;
#X obj 12 32 inlet;
#X obj 6 93 outlet;
#X msg 56 156 \$1 \$2 0;
#X obj 24 186 gemhead;
#X obj 26 210 curve 2;
#X msg 134 155 \$1 \$2 0;
#X obj 45 61 link2D \$0-link 0 10 2.5 0.1;
#X obj 139 229 r off;
#X connect 0 0 7 0;
#X connect 0 0 8 1;
#X connect 2 0 4 0;
#X connect 2 0 8 0;
#X connect 4 0 6 1;
#X connect 5 0 6 0;
#X connect 7 0 6 2;
#X connect 8 0 3 0;
#X connect 8 1 1 0;
#X connect 9 0 5 0;
#X restore 354 608 pd link;
#N canvas 0 22 452 302 link 0;
#X obj 177 35 inlet;
#X obj 171 96 outlet;
#X obj 12 32 inlet;
#X obj 6 93 outlet;
#X msg 56 156 \$1 \$2 0;
#X obj 24 186 gemhead;
#X obj 26 210 curve 2;
#X msg 134 155 \$1 \$2 0;
#X obj 45 61 link2D \$0-link 0 10 2.5 0.1;
#X obj 183 272 r off;
#X connect 0 0 7 0;
#X connect 0 0 8 1;
#X connect 2 0 4 0;
#X connect 2 0 8 0;
#X connect 4 0 6 1;
#X connect 5 0 6 0;
#X connect 7 0 6 2;
#X connect 8 0 3 0;
#X connect 8 1 1 0;
#X connect 9 0 5 0;
#X restore 604 579 pd link;
#N canvas 0 22 452 302 link 0;
#X obj 177 35 inlet;
#X obj 171 96 outlet;
#X obj 12 32 inlet;
#X obj 6 93 outlet;
#X msg 56 156 \$1 \$2 0;
#X obj 24 186 gemhead;
#X obj 26 210 curve 2;
#X msg 134 155 \$1 \$2 0;
#X obj 45 61 link2D \$0-link 0 10 2.5 0.1;
#X obj 124 215 r off;
#X connect 0 0 7 0;
#X connect 0 0 8 1;
#X connect 2 0 4 0;
#X connect 2 0 8 0;
#X connect 4 0 6 1;
#X connect 5 0 6 0;
#X connect 7 0 6 2;
#X connect 8 0 3 0;
#X connect 8 1 1 0;
#X connect 9 0 5 0;
#X restore 604 555 pd link;
#N canvas 0 22 452 302 link 0;
#X obj 177 35 inlet;
#X obj 171 96 outlet;
#X obj 12 32 inlet;
#X obj 6 93 outlet;
#X msg 56 156 \$1 \$2 0;
#X obj 24 186 gemhead;
#X obj 26 210 curve 2;
#X msg 134 155 \$1 \$2 0;
#X obj 45 61 link2D \$0-link 0 10 2.5 0.1;
#X obj 143 232 r off;
#X connect 0 0 7 0;
#X connect 0 0 8 1;
#X connect 2 0 4 0;
#X connect 2 0 8 0;
#X connect 4 0 6 1;
#X connect 5 0 6 0;
#X connect 7 0 6 2;
#X connect 8 0 3 0;
#X connect 8 1 1 0;
#X connect 9 0 5 0;
#X restore 651 490 pd link;
#N canvas 0 22 452 302 link 0;
#X obj 177 35 inlet;
#X obj 171 96 outlet;
#X obj 12 32 inlet;
#X obj 6 93 outlet;
#X msg 56 156 \$1 \$2 0;
#X obj 24 186 gemhead;
#X obj 26 210 curve 2;
#X msg 134 155 \$1 \$2 0;
#X obj 45 61 link2D \$0-link 0 10 2.5 0.1;
#X obj 156 222 r off;
#X connect 0 0 7 0;
#X connect 0 0 8 1;
#X connect 2 0 4 0;
#X connect 2 0 8 0;
#X connect 4 0 6 1;
#X connect 5 0 6 0;
#X connect 7 0 6 2;
#X connect 8 0 3 0;
#X connect 8 1 1 0;
#X connect 9 0 5 0;
#X restore 578 365 pd link;
#N canvas 0 22 452 302 link 0;
#X obj 177 35 inlet;
#X obj 171 96 outlet;
#X obj 12 32 inlet;
#X obj 6 93 outlet;
#X msg 56 156 \$1 \$2 0;
#X obj 24 186 gemhead;
#X obj 26 210 curve 2;
#X msg 134 155 \$1 \$2 0;
#X obj 45 61 link2D \$0-link 0 10 2.5 0.1;
#X obj 144 230 r off;
#X connect 0 0 7 0;
#X connect 0 0 8 1;
#X connect 2 0 4 0;
#X connect 2 0 8 0;
#X connect 4 0 6 1;
#X connect 5 0 6 0;
#X connect 7 0 6 2;
#X connect 8 0 3 0;
#X connect 8 1 1 0;
#X connect 9 0 5 0;
#X restore 576 342 pd link;
#N canvas 0 22 452 302 link 0;
#X obj 177 35 inlet;
#X obj 171 96 outlet;
#X obj 12 32 inlet;
#X obj 6 93 outlet;
#X msg 56 156 \$1 \$2 0;
#X obj 24 186 gemhead;
#X obj 26 210 curve 2;
#X msg 134 155 \$1 \$2 0;
#X obj 45 61 link2D \$0-link 0 10 2.5 0.1;
#X obj 176 239 r off;
#X connect 0 0 7 0;
#X connect 0 0 8 1;
#X connect 2 0 4 0;
#X connect 2 0 8 0;
#X connect 4 0 6 1;
#X connect 5 0 6 0;
#X connect 7 0 6 2;
#X connect 8 0 3 0;
#X connect 8 1 1 0;
#X connect 9 0 5 0;
#X restore 642 293 pd link;
#N canvas 0 22 452 302 link 0;
#X obj 177 35 inlet;
#X obj 171 96 outlet;
#X obj 12 32 inlet;
#X obj 6 93 outlet;
#X msg 56 156 \$1 \$2 0;
#X obj 24 186 gemhead;
#X obj 26 210 curve 2;
#X msg 134 155 \$1 \$2 0;
#X obj 45 61 link2D \$0-link 0 10 2.5 0.1;
#X obj 227 273 r off;
#X connect 0 0 7 0;
#X connect 0 0 8 1;
#X connect 2 0 4 0;
#X connect 2 0 8 0;
#X connect 4 0 6 1;
#X connect 5 0 6 0;
#X connect 7 0 6 2;
#X connect 8 0 3 0;
#X connect 8 1 1 0;
#X connect 9 0 5 0;
#X restore 575 180 pd link;
#N canvas 0 22 452 302 link 0;
#X obj 177 35 inlet;
#X obj 171 96 outlet;
#X obj 12 32 inlet;
#X obj 6 93 outlet;
#X msg 56 156 \$1 \$2 0;
#X obj 24 186 gemhead;
#X obj 26 210 curve 2;
#X msg 134 155 \$1 \$2 0;
#X obj 45 61 link2D \$0-link 0 10 2.5 0.1;
#X obj 197 243 r off;
#X connect 0 0 7 0;
#X connect 0 0 8 1;
#X connect 2 0 4 0;
#X connect 2 0 8 0;
#X connect 4 0 6 1;
#X connect 5 0 6 0;
#X connect 7 0 6 2;
#X connect 8 0 3 0;
#X connect 8 1 1 0;
#X connect 9 0 5 0;
#X restore 643 101 pd link;
#N canvas 601 64 901 689 mass 0;
#X obj 26 38 inlet;
#X obj 11 137 outlet;
#X obj 25 104 unpack s f f;
#X obj 24 65 mass2D \$0-mass 50 -0.7 2;
#X obj 560 -57 part_color;
#X obj 365 -57 translateXYZ;
#X floatatom 577 -94 5 0 0 0 - - -;
#X obj 365 0 accumrotate;
#X obj 508 -36 tgl 15 0 empty empty empty 17 7 0 10 -262144 -1 -1 0
1;
#X msg 455 5 6;
#X obj 489 -17 metro 100;
#X text 428 -194 particle acceleration;
#X obj 366 -302 gemhead;
#X obj 366 -322 tgl 15 0 empty empty empty 0 -6 0 8 -262144 -1 -1 0
1;
#X floatatom 480 -166 5 0 0 0 - - -;
#X obj 366 -229 part_killold 5;
#X obj 366 -145 part_follow 0.001;
#X obj 366 -257 part_source 5;
#X obj 366 -281 part_head;
#X obj 366 61 part_draw;
#X msg 432 -341 speed \$1;
#X floatatom 433 -365 5 0 0 0 - - -;
#X floatatom 440 -304 5 0 0 0 - - -;
#X obj 364 -99 part_orbitpoint;
#X floatatom 495 -140 5 0 0 0 - - -;
#X msg 440 44 draw line;
#X msg 638 -73 0.1 0.3 0.8;
#X msg 440 84 draw \$1;
#X floatatom 493 101 5 0 0 0 - - -;
#X floatatom 491 -98 5 0 0 0 - - -;
#X connect 0 0 3 0;
#X connect 2 1 29 0;
#X connect 2 2 6 0;
#X connect 3 0 2 0;
#X connect 3 0 1 0;
#X connect 4 0 5 0;
#X connect 5 0 7 0;
#X connect 6 0 5 2;
#X connect 7 0 19 0;
#X connect 8 0 10 0;
#X connect 9 0 7 1;
#X connect 10 0 9 0;
#X connect 12 0 18 0;
#X connect 13 0 12 0;
#X connect 14 0 16 1;
#X connect 15 0 16 0;
#X connect 16 0 23 0;
#X connect 17 0 15 0;
#X connect 18 0 17 0;
#X connect 20 0 18 0;
#X connect 21 0 20 0;
#X connect 22 0 17 1;
#X connect 23 0 4 0;
#X connect 24 0 23 2;
#X connect 25 0 19 0;
#X connect 26 0 4 1;
#X connect 27 0 19 0;
#X connect 28 0 27 0;
#X connect 29 0 5 1;
#X restore 30 7 pd mass;
#N canvas 588 77 951 674 mass 0;
#X obj 26 38 inlet;
#X obj 11 137 outlet;
#X obj 25 104 unpack s f f;
#X obj 24 65 mass2D \$0-mass 50 -0.7 1.5;
#X obj 438 312 part_color;
#X obj 243 312 translateXYZ;
#X floatatom 368 296 5 0 0 0 - - -;
#X obj 243 369 accumrotate;
#X obj 386 333 tgl 15 0 empty empty empty 17 7 0 10 -262144 -1 -1 0
1;
#X msg 333 374 6;
#X obj 367 352 metro 100;
#X text 306 175 particle acceleration;
#X obj 244 67 gemhead;
#X obj 244 47 tgl 15 0 empty empty empty 0 -6 0 8 -262144 -1 -1 0 1
;
#X floatatom 358 203 5 0 0 0 - - -;
#X obj 244 140 part_killold 5;
#X obj 244 224 part_follow 0.001;
#X obj 244 112 part_source 5;
#X obj 244 88 part_head;
#X obj 244 430 part_draw;
#X msg 310 28 speed \$1;
#X floatatom 311 4 5 0 0 0 - - -;
#X floatatom 318 65 5 0 0 0 - - -;
#X obj 242 270 part_orbitpoint;
#X floatatom 373 229 5 0 0 0 - - -;
#X msg 318 413 draw line;
#X msg 516 296 0.1 0.3 0.8;
#X msg 318 453 draw \$1;
#X floatatom 371 470 5 0 0 0 - - -;
#X floatatom 369 271 5 0 0 0 - - -;
#X connect 0 0 3 0;
#X connect 2 1 29 0;
#X connect 2 2 6 0;
#X connect 3 0 2 0;
#X connect 3 0 1 0;
#X connect 4 0 5 0;
#X connect 5 0 7 0;
#X connect 6 0 5 2;
#X connect 7 0 19 0;
#X connect 8 0 10 0;
#X connect 9 0 7 1;
#X connect 10 0 9 0;
#X connect 12 0 18 0;
#X connect 13 0 12 0;
#X connect 14 0 16 1;
#X connect 15 0 16 0;
#X connect 16 0 23 0;
#X connect 17 0 15 0;
#X connect 18 0 17 0;
#X connect 20 0 18 0;
#X connect 21 0 20 0;
#X connect 22 0 17 1;
#X connect 23 0 4 0;
#X connect 24 0 23 2;
#X connect 25 0 19 0;
#X connect 26 0 4 1;
#X connect 27 0 19 0;
#X connect 28 0 27 0;
#X connect 29 0 5 1;
#X restore 32 214 pd mass;
#N canvas 474 51 955 559 mass 0;
#X obj 26 38 inlet;
#X obj 11 137 outlet;
#X obj 25 104 unpack s f f;
#X obj 24 66 mass2D \$0-mass 50 -0.7 0.5;
#X obj 493 316 part_color;
#X obj 298 316 translateXYZ;
#X floatatom 423 300 5 0 0 0 - - -;
#X obj 298 373 accumrotate;
#X obj 441 337 tgl 15 0 empty empty empty 17 7 0 10 -262144 -1 -1 0
1;
#X msg 388 378 6;
#X obj 422 356 metro 100;
#X text 361 179 particle acceleration;
#X obj 299 71 gemhead;
#X obj 299 51 tgl 15 0 empty empty empty 0 -6 0 8 -262144 -1 -1 0 1
;
#X floatatom 413 207 5 0 0 0 - - -;
#X obj 299 144 part_killold 5;
#X obj 299 228 part_follow 0.001;
#X obj 299 116 part_source 5;
#X obj 299 92 part_head;
#X obj 299 434 part_draw;
#X msg 365 32 speed \$1;
#X floatatom 366 8 5 0 0 0 - - -;
#X floatatom 373 69 5 0 0 0 - - -;
#X obj 297 274 part_orbitpoint;
#X floatatom 428 233 5 0 0 0 - - -;
#X msg 373 417 draw line;
#X msg 571 300 0.1 0.3 0.8;
#X msg 373 457 draw \$1;
#X floatatom 426 474 5 0 0 0 - - -;
#X floatatom 424 275 5 0 0 0 - - -;
#X connect 0 0 3 0;
#X connect 2 1 29 0;
#X connect 2 2 6 0;
#X connect 3 0 2 0;
#X connect 3 0 1 0;
#X connect 4 0 5 0;
#X connect 5 0 7 0;
#X connect 6 0 5 2;
#X connect 7 0 19 0;
#X connect 8 0 10 0;
#X connect 9 0 7 1;
#X connect 10 0 9 0;
#X connect 12 0 18 0;
#X connect 13 0 12 0;
#X connect 14 0 16 1;
#X connect 15 0 16 0;
#X connect 16 0 23 0;
#X connect 17 0 15 0;
#X connect 18 0 17 0;
#X connect 20 0 18 0;
#X connect 21 0 20 0;
#X connect 22 0 17 1;
#X connect 23 0 4 0;
#X connect 24 0 23 2;
#X connect 25 0 19 0;
#X connect 26 0 4 1;
#X connect 27 0 19 0;
#X connect 28 0 27 0;
#X connect 29 0 5 1;
#X restore 40 615 pd mass;
#N canvas 564 200 872 660 mass 0;
#X obj 26 38 inlet;
#X obj 11 137 outlet;
#X obj 25 104 unpack s f f;
#X obj 23 66 mass2D \$0-mass 50 0.3 2;
#X obj 669 347 part_color;
#X obj 474 347 translateXYZ;
#X floatatom 682 297 5 0 0 0 - - -;
#X obj 474 404 accumrotate;
#X obj 617 368 tgl 15 0 empty empty empty 17 7 0 10 -262144 -1 -1 0
1;
#X msg 564 409 6;
#X obj 598 387 metro 100;
#X text 537 210 particle acceleration;
#X obj 475 102 gemhead;
#X obj 475 82 tgl 15 0 empty empty empty 0 -6 0 8 -262144 -1 -1 0 1
;
#X floatatom 589 238 5 0 0 0 - - -;
#X obj 475 175 part_killold 5;
#X obj 475 259 part_follow 0.001;
#X obj 475 147 part_source 5;
#X obj 475 123 part_head;
#X obj 475 465 part_draw;
#X msg 541 63 speed \$1;
#X floatatom 542 39 5 0 0 0 - - -;
#X floatatom 549 100 5 0 0 0 - - -;
#X obj 473 305 part_orbitpoint;
#X floatatom 604 264 5 0 0 0 - - -;
#X msg 549 448 draw line;
#X msg 747 331 0.1 0.3 0.8;
#X msg 549 488 draw \$1;
#X floatatom 602 505 5 0 0 0 - - -;
#X floatatom 600 306 5 0 0 0 - - -;
#X connect 0 0 3 0;
#X connect 2 1 29 0;
#X connect 2 2 6 0;
#X connect 3 0 2 0;
#X connect 3 0 1 0;
#X connect 4 0 5 0;
#X connect 5 0 7 0;
#X connect 6 0 5 2;
#X connect 7 0 19 0;
#X connect 8 0 10 0;
#X connect 9 0 7 1;
#X connect 10 0 9 0;
#X connect 12 0 18 0;
#X connect 13 0 12 0;
#X connect 14 0 16 1;
#X connect 15 0 16 0;
#X connect 16 0 23 0;
#X connect 17 0 15 0;
#X connect 18 0 17 0;
#X connect 20 0 18 0;
#X connect 21 0 20 0;
#X connect 22 0 17 1;
#X connect 23 0 4 0;
#X connect 24 0 23 2;
#X connect 25 0 19 0;
#X connect 26 0 4 1;
#X connect 27 0 19 0;
#X connect 28 0 27 0;
#X connect 29 0 5 1;
#X restore 642 14 pd mass;
#N canvas 740 64 874 587 mass 0;
#X obj 26 38 inlet;
#X obj 11 137 outlet;
#X obj 25 104 unpack s f f;
#X obj 24 65 mass2D \$0-mass 50 0.3 1.5;
#X obj 415 310 part_color;
#X obj 220 310 translateXYZ;
#X floatatom 345 294 5 0 0 0 - - -;
#X obj 220 367 accumrotate;
#X obj 363 331 tgl 15 0 empty empty empty 17 7 0 10 -262144 -1 -1 0
1;
#X msg 310 372 6;
#X obj 344 350 metro 100;
#X text 283 173 particle acceleration;
#X obj 221 65 gemhead;
#X obj 221 45 tgl 15 0 empty empty empty 0 -6 0 8 -262144 -1 -1 0 1
;
#X floatatom 335 201 5 0 0 0 - - -;
#X obj 221 138 part_killold 5;
#X obj 221 222 part_follow 0.001;
#X obj 221 110 part_source 5;
#X obj 221 86 part_head;
#X obj 221 428 part_draw;
#X msg 287 26 speed \$1;
#X floatatom 288 2 5 0 0 0 - - -;
#X floatatom 295 63 5 0 0 0 - - -;
#X obj 219 268 part_orbitpoint;
#X floatatom 350 227 5 0 0 0 - - -;
#X msg 295 411 draw line;
#X msg 493 294 0.1 0.3 0.8;
#X msg 295 451 draw \$1;
#X floatatom 348 468 5 0 0 0 - - -;
#X floatatom 346 269 5 0 0 0 - - -;
#X connect 0 0 3 0;
#X connect 2 1 29 0;
#X connect 2 2 6 0;
#X connect 3 0 2 0;
#X connect 3 0 1 0;
#X connect 4 0 5 0;
#X connect 5 0 7 0;
#X connect 6 0 5 2;
#X connect 7 0 19 0;
#X connect 8 0 10 0;
#X connect 9 0 7 1;
#X connect 10 0 9 0;
#X connect 12 0 18 0;
#X connect 13 0 12 0;
#X connect 14 0 16 1;
#X connect 15 0 16 0;
#X connect 16 0 23 0;
#X connect 17 0 15 0;
#X connect 18 0 17 0;
#X connect 20 0 18 0;
#X connect 21 0 20 0;
#X connect 22 0 17 1;
#X connect 23 0 4 0;
#X connect 24 0 23 2;
#X connect 25 0 19 0;
#X connect 26 0 4 1;
#X connect 27 0 19 0;
#X connect 28 0 27 0;
#X connect 29 0 5 1;
#X restore 640 202 pd mass;
#N canvas 577 47 986 641 mass 0;
#X obj 26 38 inlet;
#X obj 11 137 outlet;
#X obj 25 104 unpack s f f;
#X obj 25 65 mass2D \$0-mass 50 0.3 1;
#X obj 449 318 part_color;
#X obj 254 318 translateXYZ;
#X floatatom 379 302 5 0 0 0 - - -;
#X obj 254 375 accumrotate;
#X obj 397 339 tgl 15 0 empty empty empty 17 7 0 10 -262144 -1 -1 0
1;
#X msg 344 380 6;
#X obj 378 358 metro 100;
#X text 317 181 particle acceleration;
#X obj 255 73 gemhead;
#X obj 255 53 tgl 15 0 empty empty empty 0 -6 0 8 -262144 -1 -1 0 1
;
#X floatatom 369 209 5 0 0 0 - - -;
#X obj 255 146 part_killold 5;
#X obj 255 230 part_follow 0.001;
#X obj 255 118 part_source 5;
#X obj 255 94 part_head;
#X obj 255 436 part_draw;
#X msg 321 34 speed \$1;
#X floatatom 322 10 5 0 0 0 - - -;
#X floatatom 329 71 5 0 0 0 - - -;
#X obj 253 276 part_orbitpoint;
#X floatatom 384 235 5 0 0 0 - - -;
#X msg 329 419 draw line;
#X msg 527 302 0.1 0.3 0.8;
#X msg 329 459 draw \$1;
#X floatatom 382 476 5 0 0 0 - - -;
#X floatatom 380 277 5 0 0 0 - - -;
#X connect 0 0 3 0;
#X connect 2 1 29 0;
#X connect 2 2 6 0;
#X connect 3 0 2 0;
#X connect 3 0 1 0;
#X connect 4 0 5 0;
#X connect 5 0 7 0;
#X connect 6 0 5 2;
#X connect 7 0 19 0;
#X connect 8 0 10 0;
#X connect 9 0 7 1;
#X connect 10 0 9 0;
#X connect 12 0 18 0;
#X connect 13 0 12 0;
#X connect 14 0 16 1;
#X connect 15 0 16 0;
#X connect 16 0 23 0;
#X connect 17 0 15 0;
#X connect 18 0 17 0;
#X connect 20 0 18 0;
#X connect 21 0 20 0;
#X connect 22 0 17 1;
#X connect 23 0 4 0;
#X connect 24 0 23 2;
#X connect 25 0 19 0;
#X connect 26 0 4 1;
#X connect 27 0 19 0;
#X connect 28 0 27 0;
#X connect 29 0 5 1;
#X restore 647 393 pd mass;
#N canvas 28 133 841 593 mass 1;
#X obj 26 38 inlet;
#X obj 11 137 outlet;
#X obj 25 104 unpack s f f;
#X obj 24 65 mass2D \$0-mass 50 0.3 0.5;
#X obj 462 318 part_color;
#X obj 267 318 translateXYZ;
#X floatatom 392 302 5 0 0 0 - - -;
#X obj 267 375 accumrotate;
#X obj 410 339 tgl 15 0 empty empty empty 17 7 0 10 -262144 -1 -1 0
1;
#X msg 357 380 6;
#X obj 391 358 metro 100;
#X text 330 181 particle acceleration;
#X obj 268 73 gemhead;
#X obj 268 53 tgl 15 0 empty empty empty 0 -6 0 8 -262144 -1 -1 1 1
;
#X obj 268 94 part_head;
#X obj 268 436 part_draw;
#X floatatom 335 10 5 0 0 0 - - -;
#X floatatom 342 71 5 0 0 0 - - -;
#X obj 266 276 part_orbitpoint;
#X floatatom 397 235 5 0 0 0 - - -;
#X msg 342 419 draw line;
#X msg 540 302 0.1 0.3 0.8;
#X msg 342 459 draw \$1;
#X floatatom 395 476 5 0 0 0 - - -;
#X floatatom 393 277 5 0 0 0 - - -;
#X msg 396 83 \$1;
#X floatatom 421 195 5 0 0 0 - - -;
#X obj 268 146 part_killold 1;
#X obj 268 230 part_follow 0.002;
#X msg 334 34 speed 0.001;
#X obj 268 118 part_source 50;
#X obj 222 18 r rain-off;
#X connect 0 0 3 0;
#X connect 2 1 24 0;
#X connect 2 2 6 0;
#X connect 3 0 2 0;
#X connect 3 0 1 0;
#X connect 4 0 5 0;
#X connect 5 0 7 0;
#X connect 6 0 5 2;
#X connect 7 0 15 0;
#X connect 8 0 10 0;
#X connect 9 0 7 1;
#X connect 10 0 9 0;
#X connect 12 0 14 0;
#X connect 13 0 12 0;
#X connect 14 0 30 0;
#X connect 16 0 29 0;
#X connect 17 0 25 0;
#X connect 18 0 4 0;
#X connect 19 0 18 2;
#X connect 20 0 15 0;
#X connect 21 0 4 1;
#X connect 22 0 15 0;
#X connect 23 0 22 0;
#X connect 24 0 5 1;
#X connect 25 0 30 1;
#X connect 26 0 28 1;
#X connect 27 0 28 0;
#X connect 28 0 18 0;
#X connect 29 0 14 0;
#X connect 30 0 27 0;
#X connect 31 0 13 0;
#X restore 655 614 pd mass;
#N canvas 753 81 1003 649 mass 0;
#X obj 26 38 inlet;
#X obj 11 137 outlet;
#X obj 25 104 unpack s f f;
#X obj 24 65 mass2D \$0-mass 50 -0.7 1;
#X obj 449 383 part_color;
#X obj 254 383 translateXYZ;
#X floatatom 379 367 5 0 0 0 - - -;
#X obj 254 440 accumrotate;
#X obj 397 404 tgl 15 0 empty empty empty 17 7 0 10 -262144 -1 -1 0
1;
#X msg 344 445 6;
#X obj 378 423 metro 100;
#X text 317 246 particle acceleration;
#X obj 255 138 gemhead;
#X obj 255 118 tgl 15 0 empty empty empty 0 -6 0 8 -262144 -1 -1 0
1;
#X floatatom 369 274 5 0 0 0 - - -;
#X obj 255 211 part_killold 5;
#X obj 255 295 part_follow 0.001;
#X obj 255 183 part_source 5;
#X obj 255 159 part_head;
#X obj 255 501 part_draw;
#X msg 321 99 speed \$1;
#X floatatom 322 75 5 0 0 0 - - -;
#X floatatom 329 136 5 0 0 0 - - -;
#X obj 253 341 part_orbitpoint;
#X floatatom 384 300 5 0 0 0 - - -;
#X msg 329 484 draw line;
#X msg 527 367 0.1 0.3 0.8;
#X msg 329 524 draw \$1;
#X floatatom 382 541 5 0 0 0 - - -;
#X floatatom 380 342 5 0 0 0 - - -;
#X connect 0 0 3 0;
#X connect 2 1 29 0;
#X connect 2 2 6 0;
#X connect 3 0 2 0;
#X connect 3 0 1 0;
#X connect 4 0 5 0;
#X connect 5 0 7 0;
#X connect 6 0 5 2;
#X connect 7 0 19 0;
#X connect 8 0 10 0;
#X connect 9 0 7 1;
#X connect 10 0 9 0;
#X connect 12 0 18 0;
#X connect 13 0 12 0;
#X connect 14 0 16 1;
#X connect 15 0 16 0;
#X connect 16 0 23 0;
#X connect 17 0 15 0;
#X connect 18 0 17 0;
#X connect 20 0 18 0;
#X connect 21 0 20 0;
#X connect 22 0 17 1;
#X connect 23 0 4 0;
#X connect 24 0 23 2;
#X connect 25 0 19 0;
#X connect 26 0 4 1;
#X connect 27 0 19 0;
#X connect 28 0 27 0;
#X connect 29 0 5 1;
#X restore 35 398 pd mass;
#X connect 0 0 20 0;
#X connect 0 1 21 0;
#X connect 1 0 21 0;
#X connect 1 1 23 0;
#X connect 2 0 21 0;
#X connect 2 1 27 0;
#X connect 3 0 27 0;
#X connect 3 1 22 0;
#X connect 4 0 22 0;
#X connect 4 1 25 0;
#X connect 5 0 22 0;
#X connect 5 1 24 0;
#X connect 6 0 27 0;
#X connect 6 1 24 0;
#X connect 7 0 27 0;
#X connect 7 1 23 0;
#X connect 8 0 20 0;
#X connect 8 1 23 0;
#X connect 9 0 21 0;
#X connect 9 1 24 0;
#X connect 10 0 27 0;
#X connect 10 1 25 0;
#X connect 11 0 22 0;
#X connect 11 1 26 0;
#X connect 12 0 27 0;
#X connect 12 1 26 0;
#X connect 13 0 21 0;
#X connect 13 1 26 0;
#X connect 14 0 25 0;
#X connect 14 1 26 0;
#X connect 15 0 21 0;
#X connect 15 1 25 0;
#X connect 16 0 20 0;
#X connect 16 1 25 0;
#X connect 17 0 24 0;
#X connect 17 1 25 0;
#X connect 18 0 20 0;
#X connect 18 1 24 0;
#X connect 19 0 23 0;
#X connect 19 1 24 0;
#X connect 20 0 0 0;
#X connect 20 0 8 0;
#X connect 20 0 18 0;
#X connect 20 0 16 0;
#X connect 21 0 0 1;
#X connect 21 0 2 0;
#X connect 21 0 9 0;
#X connect 21 0 1 0;
#X connect 21 0 15 0;
#X connect 21 0 13 0;
#X connect 22 0 3 1;
#X connect 22 0 11 0;
#X connect 22 0 4 0;
#X connect 22 0 5 0;
#X connect 23 0 19 0;
#X connect 23 0 8 1;
#X connect 23 0 1 1;
#X connect 23 0 7 1;
#X connect 24 0 19 1;
#X connect 24 0 17 0;
#X connect 24 0 9 1;
#X connect 24 0 18 1;
#X connect 24 0 6 1;
#X connect 24 0 5 1;
#X connect 25 0 17 1;
#X connect 25 0 14 0;
#X connect 25 0 10 1;
#X connect 25 0 15 1;
#X connect 25 0 16 1;
#X connect 25 0 4 1;
#X connect 26 0 14 1;
#X connect 26 0 11 1;
#X connect 26 0 12 1;
#X connect 26 0 13 1;
#X connect 27 0 2 1;
#X connect 27 0 3 0;
#X connect 27 0 10 0;
#X connect 27 0 6 0;
#X connect 27 0 7 0;
#X connect 27 0 12 0;
#X restore 407 307 pd structure;
#N canvas 0 25 1649 917 init 0;
#X msg 245 351 setK \$1;
#X msg 427 318 setD \$1;
#X floatatom 245 276 5 -10 200 0 - - -;
#X floatatom 427 267 5 0 0 0 - - -;
#X obj 245 325 / 10;
#X obj 245 299 + 1;
#X obj 427 291 / 10;
#X obj 49 50 loadbang;
#X floatatom 611 259 5 0 0 0 - - -;
#X obj 611 283 / 10;
#X msg 611 310 setD2 \$1;
#X obj 47 201 s \$0-mass;
#X obj 245 383 s \$0-link;
#X obj 217 28 loadbang;
#X obj 269 110 sel 0 1 2 3;
#X obj 268 71 r preset;
#X obj 406 25 loadbang;
#X obj 458 107 sel 0 1 2 3;
#X obj 457 68 r preset;
#X obj 593 22 loadbang;
#X obj 645 104 sel 0 1 2 3;
#X obj 644 65 r preset;
#X msg 224 144 25;
#X msg 414 141 7;
#X msg 601 138 1;
#X msg 275 143 1;
#X msg 651 137 0.1;
#X msg 463 140 0.2;
#X msg 326 142 30;
#X msg 514 139 13;
#X msg 701 136 0.1;
#X msg 371 142 10;
#X msg 560 139 0.2;
#X msg 747 136 0.2;
#X msg 44 84 setXmin -3.8;
#X msg 58 110 setXmax 3.8;
#X msg 75 135 setYmin -3.8;
#X msg 89 161 setYmax 3.8;
#X connect 0 0 12 0;
#X connect 1 0 12 0;
#X connect 2 0 5 0;
#X connect 3 0 6 0;
#X connect 4 0 0 0;
#X connect 5 0 4 0;
#X connect 6 0 1 0;
#X connect 7 0 34 0;
#X connect 7 0 35 0;
#X connect 7 0 36 0;
#X connect 7 0 37 0;
#X connect 8 0 9 0;
#X connect 9 0 10 0;
#X connect 10 0 12 0;
#X connect 13 0 22 0;
#X connect 14 0 22 0;
#X connect 14 1 25 0;
#X connect 14 2 28 0;
#X connect 14 3 31 0;
#X connect 15 0 14 0;
#X connect 16 0 23 0;
#X connect 17 0 23 0;
#X connect 17 1 27 0;
#X connect 17 2 29 0;
#X connect 17 3 32 0;
#X connect 18 0 17 0;
#X connect 19 0 24 0;
#X connect 20 0 24 0;
#X connect 20 1 26 0;
#X connect 20 2 30 0;
#X connect 20 3 33 0;
#X connect 21 0 20 0;
#X connect 22 0 2 0;
#X connect 23 0 3 0;
#X connect 24 0 8 0;
#X connect 25 0 2 0;
#X connect 26 0 8 0;
#X connect 27 0 3 0;
#X connect 28 0 2 0;
#X connect 29 0 3 0;
#X connect 30 0 8 0;
#X connect 31 0 2 0;
#X connect 32 0 3 0;
#X connect 33 0 8 0;
#X connect 34 0 11 0;
#X connect 35 0 11 0;
#X connect 36 0 11 0;
#X connect 37 0 11 0;
#X restore 407 280 pd init;
#X obj 319 28 loadbang;
#X msg 268 233 force2D 0 -2;
#X msg 322 205 force2D 2 0;
#X obj 32 48 metro 5;
#X obj 67 100 s \$0-link;
#X obj 32 161 s \$0-mass;
#X obj 319 57 t b b b;
#X msg 370 82 reset;
#X msg 345 107 resetL;
#X msg 319 135 resetF;
#X obj 266 265 s \$0-mass;
#N canvas 894 558 454 304 gravite 0;
#X obj 80 154 inlet;
#X obj 79 241 outlet;
#X obj 80 184 f;
#X msg 81 213 force2D 0 \$1;
#X obj 185 29 loadbang;
#X obj 269 110 sel 0 1 2 3;
#X obj 268 71 r preset;
#X msg 224 144 -0.01;
#X msg 275 143 -0.003;
#X msg 325 142 -0.003;
#X msg 386 142 -0.03;
#X connect 0 0 2 0;
#X connect 2 0 3 0;
#X connect 3 0 1 0;
#X connect 4 0 7 0;
#X connect 5 0 7 0;
#X connect 5 1 8 0;
#X connect 5 2 9 0;
#X connect 5 3 10 0;
#X connect 6 0 5 0;
#X connect 7 0 2 1;
#X connect 8 0 2 1;
#X connect 9 0 2 1;
#X connect 10 0 2 1;
#X restore 80 129 pd gravite;
#X obj 451 118 vradio 15 1 0 4 empty empty empty 0 -6 0 8 -262144 -1
-1 3;
#X obj 451 184 s preset;
#X text 45 463 the diferent preset show diferents kind of comportement
for the structure.;
#X text 55 25 <- 1;
#X text 174 213 <- 2;
#X obj 31 264 gemwin;
#X obj 106 10 declare -lib Gem;
#X msg 114 272 fullscreen 2;
#X msg 31 211 create \, 1;
#X msg 211 206 force2D -2 0;
#X obj 627 282 readsf~ 2;
#X obj 627 341 dac~;
#X obj 627 311 *~ 0.5;
#X msg 625 180 open splash.wav;
#X msg 632 229 start;
#X obj 727 257 bng 15 250 50 0 empty empty empty 17 7 0 10 -262144
-1 -1;
#X obj 728 280 del 10;
#X obj 567 311 env~;
#X floatatom 567 336 5 0 0 0 - - -;
#X obj 569 424 tgl 15 0 empty empty empty 17 7 0 10 -262144 -1 -1 1
1;
#X obj 591 425 s rain-off;
#X obj 568 380 > 50;
#X obj 787 282 readsf~ 2;
#X obj 787 311 *~ 0.5;
#X msg 792 229 start;
#X obj 887 257 bng 15 250 50 0 empty empty empty 17 7 0 10 -262144
-1 -1;
#X obj 888 280 del 10;
#X msg 785 180 open rainforest.wav;
#X floatatom 229 162 5 0 0 0 - - -;
#X msg 266 180 force2D 0 2;
#X obj 604 54 s off;
#X obj 606 29 tgl 15 0 empty empty empty 17 7 0 10 -262144 -1 -1 1
1;
#X text 646 53 liga e desliga a estrutura física;
#X connect 0 0 11 0;
#X connect 0 1 10 0;
#X connect 0 1 17 0;
#X connect 1 0 9 0;
#X connect 2 0 12 0;
#X connect 3 0 23 0;
#X connect 6 0 12 0;
#X connect 7 0 16 0;
#X connect 8 0 16 0;
#X connect 9 0 0 0;
#X connect 12 0 15 0;
#X connect 12 1 14 0;
#X connect 12 2 13 0;
#X connect 13 0 11 0;
#X connect 14 0 10 0;
#X connect 15 0 10 0;
#X connect 17 0 11 0;
#X connect 18 0 19 0;
#X connect 25 0 23 0;
#X connect 26 0 23 0;
#X connect 27 0 16 0;
#X connect 28 0 30 0;
#X connect 28 1 30 0;
#X connect 28 2 33 0;
#X connect 30 0 35 0;
#X connect 31 0 28 0;
#X connect 32 0 28 0;
#X connect 33 0 31 0;
#X connect 33 0 34 0;
#X connect 34 0 32 0;
#X connect 35 0 36 0;
#X connect 36 0 39 0;
#X connect 37 0 38 0;
#X connect 40 0 41 0;
#X connect 40 1 41 0;
#X connect 40 2 43 0;
#X connect 42 0 40 0;
#X connect 43 0 45 0;
#X connect 43 0 44 0;
#X connect 44 0 42 0;
#X connect 45 0 40 0;
#X connect 46 0 47 0;
#X connect 47 0 16 0;
#X connect 49 0 48 0;
