#N canvas 260 264 450 300 10;
#X obj 155 17 inlet~ L;
#X obj 223 17 inlet~ R;
#X obj 155 95 outlet~ L;
#X obj 223 95 outlet~ R;
#X obj 223 43 *~ 0.3;
#X obj 155 43 *~ 0.3;
#X obj 339 44 r vol-on/off;
#X connect 0 0 5 0;
#X connect 1 0 4 0;
#X connect 4 0 3 0;
#X connect 5 0 2 0;
#X connect 6 0 4 1;
#X connect 6 0 5 1;
