#N canvas 263 22 830 752 10;
#X obj 48 34 gemwin;
#X msg 105 35 create \, 1;
#X obj 298 129 colorRGB;
#X obj 298 247 square 2;
#X floatatom 363 127 5 0 0 0 - - -;
#X floatatom 363 147 5 0 0 0 - - -;
#X obj 298 173 translateXYZ;
#X floatatom 395 208 5 0 0 0 - - -;
#X obj 298 214 alpha;
#X floatatom 349 218 5 0 0 0 - - -;
#X obj 649 327 part_color;
#X obj 65 229 dsp;
#X floatatom 96 231 5 0 0 0 - - -;
#X obj 454 327 translateXYZ;
#X floatatom 579 311 5 0 0 0 - - -;
#X obj 454 384 accumrotate;
#X obj 597 348 tgl 15 0 empty empty empty 17 7 0 10 -262144 -1 -1 1
1;
#X obj 303 52 tgl 15 0 empty empty empty 17 7 0 10 -262144 -1 -1 0
1;
#X obj 298 76 gemhead 101;
#X msg 544 389 6;
#X obj 578 367 metro 100;
#X text 517 190 particle acceleration;
#X obj 455 82 gemhead;
#X obj 455 62 tgl 15 0 empty empty empty 0 -6 0 8 -262144 -1 -1 0 1
;
#X floatatom 569 218 5 0 0 0 - - -;
#X obj 455 155 part_killold 5;
#X obj 455 239 part_follow 0.001;
#X obj 455 127 part_source 5;
#X obj 455 103 part_head;
#X obj 455 445 part_draw;
#X msg 521 43 speed \$1;
#X floatatom 522 19 5 0 0 0 - - -;
#X floatatom 529 80 5 0 0 0 - - -;
#X obj 453 285 part_orbitpoint;
#X floatatom 584 244 5 0 0 0 - - -;
#X msg 529 428 draw line;
#X msg 727 311 0.1 0.3 0.8;
#X msg 190 46 fullscreen 2;
#X msg 529 468 draw \$1;
#X floatatom 582 485 5 0 0 0 - - -;
#X floatatom 580 286 5 0 0 0 - - -;
#X connect 1 0 0 0;
#X connect 2 0 6 0;
#X connect 4 0 2 1;
#X connect 5 0 2 4;
#X connect 6 0 8 0;
#X connect 7 0 6 3;
#X connect 8 0 3 0;
#X connect 9 0 8 1;
#X connect 10 0 13 0;
#X connect 11 0 12 0;
#X connect 13 0 15 0;
#X connect 14 0 13 2;
#X connect 15 0 29 0;
#X connect 16 0 20 0;
#X connect 17 0 18 0;
#X connect 18 0 2 0;
#X connect 19 0 15 1;
#X connect 20 0 19 0;
#X connect 22 0 28 0;
#X connect 23 0 22 0;
#X connect 24 0 26 1;
#X connect 25 0 26 0;
#X connect 26 0 33 0;
#X connect 27 0 25 0;
#X connect 28 0 27 0;
#X connect 30 0 28 0;
#X connect 31 0 30 0;
#X connect 32 0 27 1;
#X connect 33 0 10 0;
#X connect 34 0 33 2;
#X connect 35 0 29 0;
#X connect 36 0 10 1;
#X connect 37 0 0 0;
#X connect 38 0 29 0;
#X connect 39 0 38 0;
#X connect 40 0 13 1;
