#N canvas 594 90 553 402 10;
#X declare -lib mrpeach;
#X obj 55 68 dumpOSC 9997;
#X obj 20 140 print;
#X floatatom 106 192 5 0 0 0 - - -;
#X floatatom 69 191 5 0 0 0 - - -;
#X floatatom 357 191 5 0 0 0 - - -;
#X floatatom 320 190 5 0 0 0 - - -;
#X obj 306 67 dumpOSC 9998;
#X obj 263 108 print;
#X obj 35 317 import mrpeach;
#X obj 55 109 routeOSC /test/hand3x;
#X obj 95 139 routeOSC /test/hand3y;
#X obj 306 108 routeOSC /hand1x;
#X obj 346 138 routeOSC /hand1y;
#X connect 0 0 1 0;
#X connect 0 0 9 0;
#X connect 0 0 10 0;
#X connect 6 0 7 0;
#X connect 6 0 11 0;
#X connect 6 0 12 0;
#X connect 9 0 3 0;
#X connect 10 0 2 0;
#X connect 11 0 5 0;
#X connect 12 0 4 0;
