#N canvas 134 115 908 611 10;
#X obj -195 -84 cnv 15 900 600 empty empty POWER_THE_PLANT_AUDIOVISUAL_ORCHESTRA
20 12 1 20 -262130 -66577 0;
#N canvas 171 22 1076 700 graphics 0;
#X obj 161 189 gemhead;
#X obj 160 316 pix_texture;
#X obj 161 166 tgl 15 0 empty empty empty 17 7 0 10 -262144 -1 -1 0
1;
#X msg 244 318 quality 0;
#X obj 11 219 inlet~;
#X obj 11 195 inlet~;
#X obj 12 171 inlet~;
#X obj 13 148 inlet~;
#X obj 160 282 pix_sig2pix~ 32 10;
#X obj 161 424 translateXYZ;
#X floatatom 251 425 5 0 0 0 - - -;
#X obj 364 431 translateXYZ;
#X floatatom 446 432 5 0 0 0 - - -;
#X obj 161 348 translateXYZ;
#X obj 364 383 rotateXYZ;
#X floatatom 424 379 5 0 0 0 - - -;
#X obj 161 375 rotateXYZ;
#X obj 364 456 rectangle 0.02 8;
#X obj 364 408 repeat 35;
#X obj 161 401 repeat 35;
#X text 255 160 GRID;
#X obj 543 10 cnv 15 500 600 empty empty TEST_AREA 20 12 1 14 -4032
-66577 0;
#X floatatom 545 369 5 0 0 0 - - -;
#X floatatom 605 368 5 0 0 0 - - -;
#X floatatom 675 363 5 0 0 0 - - -;
#X obj 545 394 autoscale -3 3;
#X obj 546 444 gemhead;
#X obj 454 50 tgl 25 0 empty empty empty 17 7 0 10 -258113 -1 -1 0
1;
#X obj 546 468 translateXYZ;
#X obj 545 338 r palm3X;
#X obj 605 339 r palm3Y;
#X obj 675 339 r palm3Z;
#X obj 591 424 autoscale -4 4;
#X obj 675 451 autoscale -4 4;
#X floatatom 544 129 5 0 0 0 - - -;
#X floatatom 604 128 5 0 0 0 - - -;
#X floatatom 674 123 5 0 0 0 - - -;
#X obj 546 191 gemhead;
#X obj 546 226 translateXYZ;
#X floatatom 781 369 5 0 0 0 - - -;
#X floatatom 841 368 5 0 0 0 - - -;
#X floatatom 911 363 5 0 0 0 - - -;
#X obj 782 444 gemhead;
#X obj 782 468 translateXYZ;
#X obj 827 424 autoscale -4 4;
#X obj 911 451 autoscale -4 4;
#X floatatom 780 129 5 0 0 0 - - -;
#X floatatom 840 128 5 0 0 0 - - -;
#X floatatom 910 123 5 0 0 0 - - -;
#X obj 781 204 gemhead;
#X obj 781 228 translateXYZ;
#X obj 604 99 r palm1Y;
#X obj 674 99 r palm1Z;
#X obj 590 184 autoscale -3 3;
#X obj 674 211 autoscale -3 3;
#X obj 910 211 autoscale -3 3;
#X obj 826 184 autoscale -3 3;
#X obj 780 98 r palm2X;
#X obj 840 99 r palm2Y;
#X obj 910 99 r palm2Z;
#X obj 781 338 r palm4X;
#X obj 841 339 r palm4Y;
#X obj 911 339 r palm4Z;
#X obj 781 394 autoscale -4 4;
#X obj 782 496 square;
#X obj 546 496 square;
#X text 608 66 HAND 1;
#X text 834 67 HAND 2;
#X text 612 310 HAND 3;
#X text 851 311 HAND 4;
#X obj 544 154 autoscale -5 5;
#X obj 780 154 autoscale -5 5;
#X obj 545 256 circle;
#X obj 781 256 circle;
#X obj 364 353 translateXYZ;
#X floatatom 387 324 5 0 0 0 - - -;
#X obj 363 189 gemhead;
#X obj 363 270 pix_sig2pix~ 32 10;
#X obj 363 167 tgl 15 0 empty empty empty 17 7 0 10 -262144 -1 -1 0
1;
#X obj 364 296 pix_texture;
#X msg 448 298 quality 0;
#X floatatom 229 372 5 0 0 0 - - -;
#X floatatom 243 347 5 0 0 0 - - -;
#X obj 161 452 rectangle 8 0.02;
#N canvas 153 165 1089 664 polygon-theremin 0;
#X msg 23 335 draw line;
#X msg 21 310 draw fill;
#X obj 90 -4 gemhead;
#X msg 222 416 0 \$1 0;
#X floatatom 222 399 5 0 0 0 - - -;
#X msg 212 458 width \$1;
#X floatatom 228 438 5 0 10 0 - - -;
#X floatatom 276 258 5 0 0 0 - - -;
#X obj 276 277 autoscale 5 -5;
#X obj 277 372 sin;
#X msg 196 315 1 \$1 0;
#X msg 198 292 \$1 2 1;
#X floatatom 277 401 5 0 0 0 - - -;
#X floatatom 317 401 5 0 0 0 - - -;
#X obj 317 372 cos;
#X msg 220 374 -2 1 \$1;
#X floatatom 277 458 5 0 0 0 - - -;
#X obj 277 433 tan;
#X floatatom 317 458 5 0 0 0 - - -;
#X obj 317 433 atan;
#X obj 90 76 translateXYZ;
#X floatatom 208 42 5 0 0 0 - - -;
#X obj 208 20 r palm1Y;
#X floatatom 688 -66 5 0 0 0 - - -;
#X obj 688 -94 r theremin-amp;
#X obj 90 159 translateXYZ;
#X floatatom 37 143 5 0 0 0 - - -;
#X obj 362 8 r palm1Z;
#X floatatom 322 9 5 0 0 0 - - -;
#X obj 353 371 atan2;
#X floatatom 113 53 5 0 0 0 - - -;
#X floatatom 159 56 5 0 0 0 - - -;
#X obj 255 101 tgl 15 0 empty empty empty 17 7 0 10 -262144 -1 -1 0
1;
#X obj -19 35 r pitch;
#X obj -19 61 autoscale 5 -5;
#X obj 91 314 colorRGB 1 1 1;
#X obj 276 231 r pitch;
#X obj 90 118 repeat 1;
#X obj 364 55 tgl 15 0 empty empty empty 17 7 0 10 -262144 -1 -1 1
1;
#X obj 209 76 autoscale 0 2;
#X msg 194 342 1 -1 \$1;
#X msg 480 355 draw line;
#X msg 478 330 draw fill;
#X obj 547 16 gemhead;
#X msg 679 436 0 \$1 0;
#X msg 669 478 width \$1;
#X floatatom 668 458 5 0 10 0 - - -;
#X msg 653 335 1 \$1 0;
#X msg 655 312 \$1 2 1;
#X msg 677 394 -2 1 \$1;
#X obj 547 96 translateXYZ;
#X obj 547 179 translateXYZ;
#X floatatom 494 163 5 0 0 0 - - -;
#X floatatom 570 73 5 0 0 0 - - -;
#X floatatom 616 77 5 0 0 0 - - -;
#X obj 700 221 r pitch;
#X obj 700 242 autoscale 5 -5;
#X obj 547 138 repeat 1;
#X msg 651 362 1 -1 \$1;
#X obj 548 334 colorRGB 0 0 0;
#X obj 91 384 polygon 5;
#X obj 548 404 polygon 5;
#X obj 90 19 accumrotate 0 0 0;
#X msg 37 6 1;
#X obj 363 78 metro 50;
#X obj 547 39 accumrotate;
#X msg 496 18 1;
#X msg 662 76 -1.02;
#X msg 663 102 0.468;
#X obj 720 90 loadbang;
#X obj 688 -42 == 0;
#X floatatom 688 -20 5 0 0 0 - - -;
#X obj 736 -41 sel 1;
#X obj 736 -21 sel 0;
#X msg 776 -41 0;
#X msg 776 -21 1;
#X obj 91 -24 tgl 15 0 empty empty empty 17 7 0 10 -262144 -1 -1 0
1;
#X obj 547 -7 tgl 15 0 empty empty empty 17 7 0 10 -262144 -1 -1 0
1;
#X obj 809 52 gemhead;
#X msg 1000 280 mode \$1;
#X obj 999 259 tgl 15 0 empty empty empty 17 7 0 10 -262144 -1 -1 0
1;
#X obj 1066 256 loadbang;
#X floatatom 1036 175 5 0 0 0 - - -;
#X floatatom 1145 176 5 0 0 0 - - -;
#X obj 808 343 pix_texture;
#X obj 809 212 a_shad vertexNoise;
#X floatatom 829 114 5 0 0 0 - - -;
#X floatatom 870 114 5 0 0 0 - - -;
#X floatatom 902 113 5 0 0 0 - - -;
#X floatatom 1082 109 5 0 0 0 - - -;
#X floatatom 1116 109 5 0 0 0 - - -;
#X floatatom 1150 110 5 0 0 0 - - -;
#X floatatom 941 118 5 0 0 0 - - -;
#X floatatom 975 118 5 0 0 0 - - -;
#X floatatom 1008 118 5 0 0 0 - - -;
#N canvas 0 22 450 300 a_var2 0;
#X obj 50 1 inlet;
#X obj 100 1 inlet;
#X obj 150 1 inlet;
#X obj 50 50 * 0.1;
#X obj 100 50 * 0.1;
#X obj 150 50 * 0.1;
#X obj 50 100 t b a;
#X obj 100 100 t b a;
#X obj 150 100 t b a;
#X obj 100 150 symbol LightPosition;
#X obj 100 200 pack s 0 0 0 0 0 0 0;
#X obj 100 250 a_modVar;
#X obj 100 300 outlet;
#X connect 0 0 3 0;
#X connect 1 0 4 0;
#X connect 2 0 5 0;
#X connect 3 0 6 0;
#X connect 4 0 7 0;
#X connect 5 0 8 0;
#X connect 6 0 9 0;
#X connect 6 1 10 1;
#X connect 7 0 9 0;
#X connect 7 1 10 2;
#X connect 8 0 9 0;
#X connect 8 1 10 3;
#X connect 9 0 10 0;
#X connect 10 0 11 0;
#X connect 11 0 12 0;
#X restore 934 140 pd a_var2 LightPosition;
#N canvas 0 22 450 300 a_var3 0;
#X obj 50 1 inlet;
#X obj 100 1 inlet;
#X obj 150 1 inlet;
#X obj 50 50 * 0.1;
#X obj 100 50 * 0.1;
#X obj 150 50 * 0.1;
#X obj 50 100 t b a;
#X obj 100 100 t b a;
#X obj 150 100 t b a;
#X obj 100 150 symbol SurfaceColor;
#X obj 100 200 pack s 0 0 0 0 0 0 0;
#X obj 100 250 a_modVar;
#X obj 100 300 outlet;
#X connect 0 0 3 0;
#X connect 1 0 4 0;
#X connect 2 0 5 0;
#X connect 3 0 6 0;
#X connect 4 0 7 0;
#X connect 5 0 8 0;
#X connect 6 0 9 0;
#X connect 6 1 10 1;
#X connect 7 0 9 0;
#X connect 7 1 10 2;
#X connect 8 0 9 0;
#X connect 8 1 10 3;
#X connect 9 0 10 0;
#X connect 10 0 11 0;
#X connect 11 0 12 0;
#X restore 1082 141 pd a_var3 SurfaceColor;
#N canvas 0 22 450 300 a_var4 0;
#X obj 50 1 inlet;
#X obj 100 1 inlet;
#X obj 150 1 inlet;
#X obj 50 100 t b a;
#X obj 100 100 t b a;
#X obj 150 100 t b a;
#X obj 100 150 symbol Offset;
#X obj 100 200 pack s 0 0 0 0 0 0 0;
#X obj 100 250 a_modVar;
#X obj 100 300 outlet;
#X obj 50 48 * 0.01;
#X obj 100 50 * 0.01;
#X obj 150 50 * 0.01;
#X connect 0 0 10 0;
#X connect 1 0 11 0;
#X connect 2 0 12 0;
#X connect 3 0 6 0;
#X connect 3 1 7 1;
#X connect 4 0 6 0;
#X connect 4 1 7 2;
#X connect 5 0 6 0;
#X connect 5 1 7 3;
#X connect 6 0 7 0;
#X connect 7 0 8 0;
#X connect 8 0 9 0;
#X connect 10 0 3 0;
#X connect 11 0 4 0;
#X connect 12 0 5 0;
#X restore 829 142 pd a_var4 Offset;
#N canvas 0 22 450 300 a_var6 0;
#X obj 50 1 inlet;
#X obj 50 100 t b a;
#X obj 100 150 symbol ScaleIn;
#X obj 100 200 pack s 0 0 0 0 0 0 0;
#X obj 100 250 a_modVar;
#X obj 100 300 outlet;
#X obj 50 50 * 0.01;
#X connect 0 0 6 0;
#X connect 1 0 2 0;
#X connect 1 1 3 1;
#X connect 2 0 3 0;
#X connect 3 0 4 0;
#X connect 4 0 5 0;
#X connect 6 0 1 0;
#X restore 1036 195 pd a_var6 ScaleIn;
#N canvas 0 22 450 300 a_var7 0;
#X obj 50 1 inlet;
#X obj 50 100 t b a;
#X obj 100 150 symbol ScaleOut;
#X obj 100 200 pack s 0 0 0 0 0 0 0;
#X obj 100 250 a_modVar;
#X obj 100 300 outlet;
#X obj 50 50 * 0.01;
#X connect 0 0 6 0;
#X connect 1 0 2 0;
#X connect 1 1 3 1;
#X connect 2 0 3 0;
#X connect 3 0 4 0;
#X connect 4 0 5 0;
#X connect 6 0 1 0;
#X restore 1146 195 pd a_var7 ScaleOut;
#X msg 1065 280 quality 1;
#X obj 809 30 tgl 15 0 empty empty empty 17 7 0 10 -262144 -1 -1 1
1;
#X obj 809 244 translateXYZ;
#X obj 1008 -37 r palm1X;
#X obj 850 -67 * 4;
#X obj 738 302 tgl 15 0 empty empty empty 17 7 0 10 -262144 -1 -1 1
1;
#X obj 737 325 metro 50;
#X obj 809 289 accumrotate;
#X msg 758 268 1;
#X obj 808 371 cube 1;
#X obj 588 -65 autoscale -1 2;
#X obj 846 -41 int;
#X obj 879 -41 line;
#X obj 1036 218 int;
#X obj 1100 234 line;
#X obj 925 235 autoscale 0 200;
#X obj 702 272 change;
#X obj 702 295 bng 15 250 50 0 empty empty empty 17 7 0 10 -262144
-1 -1;
#X floatatom 707 184 5 0 0 0 - - -;
#X obj 1147 240 random 700;
#X obj 1135 68 random 70;
#X obj 972 57 line;
#X msg 919 57 \$1 1000;
#X obj 919 35 random 200;
#X obj 1195 68 random 500;
#X obj 1065 68 random 100;
#X connect 0 0 60 0;
#X connect 1 0 60 0;
#X connect 2 0 62 0;
#X connect 3 0 60 4;
#X connect 4 0 3 0;
#X connect 5 0 60 0;
#X connect 6 0 5 0;
#X connect 7 0 8 0;
#X connect 8 0 9 0;
#X connect 8 0 14 0;
#X connect 8 0 17 0;
#X connect 8 0 19 0;
#X connect 8 0 29 0;
#X connect 9 0 12 0;
#X connect 9 0 11 0;
#X connect 9 0 48 0;
#X connect 10 0 60 2;
#X connect 11 0 60 1;
#X connect 13 0 15 0;
#X connect 14 0 13 0;
#X connect 14 0 10 0;
#X connect 14 0 47 0;
#X connect 15 0 60 5;
#X connect 16 0 4 0;
#X connect 16 0 44 0;
#X connect 17 0 16 0;
#X connect 18 0 49 0;
#X connect 19 0 18 0;
#X connect 20 0 37 0;
#X connect 21 0 39 0;
#X connect 22 0 21 0;
#X connect 23 0 70 0;
#X connect 23 0 104 0;
#X connect 23 0 110 0;
#X connect 24 0 23 0;
#X connect 25 0 35 0;
#X connect 26 0 25 1;
#X connect 27 0 28 0;
#X connect 29 0 40 0;
#X connect 29 0 58 0;
#X connect 30 0 20 1;
#X connect 31 0 20 3;
#X connect 33 0 34 0;
#X connect 34 0 30 0;
#X connect 35 0 60 0;
#X connect 36 0 7 0;
#X connect 37 0 25 0;
#X connect 38 0 64 0;
#X connect 39 0 50 2;
#X connect 39 0 20 2;
#X connect 40 0 60 3;
#X connect 41 0 61 0;
#X connect 42 0 61 0;
#X connect 43 0 65 0;
#X connect 44 0 61 4;
#X connect 45 0 61 0;
#X connect 46 0 45 0;
#X connect 47 0 61 2;
#X connect 48 0 61 1;
#X connect 49 0 61 5;
#X connect 50 0 57 0;
#X connect 51 0 59 0;
#X connect 52 0 51 1;
#X connect 53 0 50 1;
#X connect 54 0 50 3;
#X connect 55 0 56 0;
#X connect 55 0 115 0;
#X connect 56 0 102 1;
#X connect 56 0 116 0;
#X connect 57 0 51 0;
#X connect 58 0 61 3;
#X connect 59 0 61 0;
#X connect 62 0 20 0;
#X connect 63 0 62 1;
#X connect 64 0 63 0;
#X connect 64 0 66 0;
#X connect 65 0 50 0;
#X connect 66 0 65 1;
#X connect 67 0 54 0;
#X connect 68 0 31 0;
#X connect 69 0 67 0;
#X connect 69 0 68 0;
#X connect 69 0 38 0;
#X connect 70 0 71 0;
#X connect 71 0 72 0;
#X connect 71 0 73 0;
#X connect 72 0 74 0;
#X connect 73 0 75 0;
#X connect 76 0 2 0;
#X connect 77 0 43 0;
#X connect 78 0 85 0;
#X connect 79 0 84 0;
#X connect 80 0 79 0;
#X connect 81 0 100 0;
#X connect 82 0 98 0;
#X connect 83 0 99 0;
#X connect 84 0 109 0;
#X connect 85 0 102 0;
#X connect 86 0 97 0;
#X connect 87 0 97 1;
#X connect 88 0 97 2;
#X connect 89 0 96 0;
#X connect 90 0 96 1;
#X connect 91 0 96 2;
#X connect 92 0 95 0;
#X connect 93 0 95 1;
#X connect 94 0 95 2;
#X connect 95 0 85 1;
#X connect 96 0 85 1;
#X connect 97 0 85 1;
#X connect 98 0 85 1;
#X connect 99 0 85 1;
#X connect 100 0 84 0;
#X connect 101 0 78 0;
#X connect 102 0 107 0;
#X connect 104 0 111 0;
#X connect 105 0 106 0;
#X connect 106 0 108 0;
#X connect 107 0 84 0;
#X connect 108 0 107 1;
#X connect 111 0 112 0;
#X connect 113 0 114 0;
#X connect 115 0 113 0;
#X connect 116 0 117 0;
#X connect 117 0 119 0;
#X connect 117 0 120 0;
#X connect 117 0 123 0;
#X connect 117 0 124 0;
#X connect 117 0 125 0;
#X connect 118 0 102 3;
#X connect 119 0 83 0;
#X connect 120 0 90 0;
#X connect 121 0 82 0;
#X connect 122 0 121 0;
#X connect 123 0 122 0;
#X connect 124 0 91 0;
#X connect 125 0 89 0;
#X restore 14 505 pd polygon-theremin;
#X msg 77 282 dimen 64 64;
#X obj 16 332 loadbang;
#X msg 16 357 -3.94;
#X msg 16 377 -28;
#X msg 16 398 0.21;
#X msg 16 418 -7.04;
#X msg 16 438 -43;
#X msg 16 459 0.41;
#X obj 157 106 r off-grid;
#N canvas 215 84 1024 527 element 0;
#X obj 51 183 gemhead;
#X obj 48 44 block~ 4096;
#X obj 51 270 pix_texture;
#X obj 51 236 pix_sig2pix~ 64 64;
#X msg 139 270 quality 0;
#X obj 51 345 rotateXYZ;
#X floatatom 116 345 5 0 0 0 - - -;
#X obj 207 181 readsf~ 2;
#X obj 280 123 bng 15 250 50 0 empty play-buzz empty 17 7 0 10 -262144
-1 -1;
#X msg 207 157 start;
#X obj 250 157 del 10;
#X obj 206 212 *~ 0.6;
#X obj 256 212 *~ 0.6;
#X msg 207 122 open 15.wav;
#X obj 51 310 translateXYZ;
#X floatatom 136 311 5 0 0 0 - - -;
#X floatatom 176 312 5 0 0 0 - - -;
#X floatatom 213 312 5 0 0 0 - - -;
#X obj 341 180 gemhead;
#X obj 341 317 pix_texture;
#X obj 341 283 pix_sig2pix~ 64 64;
#X msg 429 317 quality 0;
#X obj 341 392 rotateXYZ;
#X floatatom 406 392 5 0 0 0 - - -;
#X obj 497 178 readsf~ 2;
#X obj 587 120 bng 15 250 50 0 empty play-buzz2 empty 17 7 0 10 -262144
-1 -1;
#X msg 497 154 start;
#X obj 540 154 del 10;
#X obj 496 209 *~ 0.6;
#X obj 546 209 *~ 0.6;
#X obj 341 357 translateXYZ;
#X floatatom 426 358 5 0 0 0 - - -;
#X floatatom 466 359 5 0 0 0 - - -;
#X floatatom 503 359 5 0 0 0 - - -;
#X msg 415 211 dimen 256 8;
#X msg 497 119 open d13.wav;
#X obj 341 159 tgl 15 0 empty empty empty 17 7 0 10 -262144 -1 -1 0
1;
#X obj 51 164 tgl 15 0 empty empty empty 17 7 0 10 -262144 -1 -1 0
1;
#X msg 125 214 dimen 512 12;
#X obj 341 444 square 15;
#X obj 601 180 gemhead;
#X obj 601 267 pix_texture;
#X obj 601 233 pix_sig2pix~ 64 64;
#X msg 689 267 quality 0;
#X obj 601 342 rotateXYZ;
#X floatatom 666 342 5 0 0 0 - - -;
#X obj 757 178 readsf~ 2;
#X obj 847 120 bng 15 250 50 0 empty play-buzz3 empty 17 7 0 10 -262144
-1 -1;
#X msg 757 154 start;
#X obj 800 154 del 10;
#X obj 717 197 *~ 0.6;
#X obj 759 217 *~ 0.6;
#X obj 601 307 translateXYZ;
#X floatatom 686 308 5 0 0 0 - - -;
#X floatatom 726 309 5 0 0 0 - - -;
#X floatatom 763 309 5 0 0 0 - - -;
#X obj 601 159 tgl 15 0 empty empty empty 17 7 0 10 -262144 -1 -1 0
1;
#X obj 601 394 square 15;
#X msg 651 180 dimen 12 400;
#X obj 328 42 loadbang;
#X msg 331 89 -6.11;
#X msg 370 66 -43;
#X msg 757 119 open 21.wav;
#X obj 861 180 gemhead;
#X obj 861 267 pix_texture;
#X obj 861 233 pix_sig2pix~ 64 64;
#X msg 949 267 quality 0;
#X obj 861 342 rotateXYZ;
#X floatatom 926 342 5 0 0 0 - - -;
#X obj 1017 178 readsf~ 2;
#X obj 1107 120 bng 15 250 50 0 empty play-buzz4 empty 17 7 0 10 -262144
-1 -1;
#X msg 1017 154 start;
#X obj 1060 154 del 10;
#X obj 977 197 *~ 0.6;
#X obj 1025 202 *~ 0.6;
#X obj 861 307 translateXYZ;
#X floatatom 946 308 5 0 0 0 - - -;
#X floatatom 986 309 5 0 0 0 - - -;
#X floatatom 1023 309 5 0 0 0 - - -;
#X obj 861 159 tgl 15 0 empty empty empty 17 7 0 10 -262144 -1 -1 0
1;
#X msg 1017 119 open 16.wav;
#X obj 857 80 bng 15 250 50 0 empty play-buzz4 empty 17 7 0 10 -262144
-1 -1;
#X msg 937 78 0;
#X obj 883 77 del 500;
#X obj 602 78 bng 15 250 50 0 empty play-buzz3 empty 17 7 0 10 -262144
-1 -1;
#X msg 682 76 0;
#X obj 405 20 bng 15 250 50 0 empty play-buzz2 empty 17 7 0 10 -262144
-1 -1;
#X msg 508 55 0;
#X obj 68 109 bng 15 250 50 0 empty play-buzz empty 17 7 0 10 -262144
-1 -1;
#X msg 152 105 0;
#X obj 69 79 r play-buzz;
#X obj 454 54 del 600;
#X obj 94 106 del 1200;
#X msg 29 126 1;
#X msg 403 48 1;
#X msg 604 101 1;
#X msg 870 108 1;
#X msg 911 180 dimen 240 12;
#X obj 628 75 del 1000;
#X msg 227 279 -2.91;
#X obj 51 397 square 8;
#X obj 861 394 square 8;
#X connect 0 0 3 0;
#X connect 2 0 14 0;
#X connect 3 0 2 0;
#X connect 4 0 2 0;
#X connect 5 0 100 0;
#X connect 6 0 5 1;
#X connect 7 0 11 0;
#X connect 7 1 12 0;
#X connect 8 0 10 0;
#X connect 8 0 13 0;
#X connect 9 0 7 0;
#X connect 10 0 9 0;
#X connect 11 0 3 0;
#X connect 11 0 3 2;
#X connect 12 0 3 1;
#X connect 13 0 7 0;
#X connect 14 0 5 0;
#X connect 15 0 14 3;
#X connect 16 0 14 2;
#X connect 17 0 14 1;
#X connect 18 0 20 0;
#X connect 19 0 30 0;
#X connect 20 0 19 0;
#X connect 21 0 19 0;
#X connect 22 0 39 0;
#X connect 23 0 22 1;
#X connect 24 0 28 0;
#X connect 24 1 29 0;
#X connect 25 0 27 0;
#X connect 25 0 35 0;
#X connect 26 0 24 0;
#X connect 27 0 26 0;
#X connect 28 0 20 1;
#X connect 28 0 20 2;
#X connect 28 0 20 0;
#X connect 29 0 20 2;
#X connect 29 0 20 0;
#X connect 30 0 22 0;
#X connect 31 0 30 3;
#X connect 32 0 30 2;
#X connect 33 0 30 1;
#X connect 34 0 20 0;
#X connect 35 0 24 0;
#X connect 36 0 18 0;
#X connect 37 0 0 0;
#X connect 38 0 3 0;
#X connect 40 0 42 0;
#X connect 41 0 52 0;
#X connect 42 0 41 0;
#X connect 43 0 41 0;
#X connect 44 0 57 0;
#X connect 45 0 44 1;
#X connect 46 0 50 0;
#X connect 46 1 51 0;
#X connect 47 0 49 0;
#X connect 47 0 62 0;
#X connect 48 0 46 0;
#X connect 49 0 48 0;
#X connect 50 0 42 0;
#X connect 50 0 42 2;
#X connect 51 0 42 1;
#X connect 51 0 42 0;
#X connect 52 0 44 0;
#X connect 53 0 52 3;
#X connect 54 0 52 2;
#X connect 55 0 52 1;
#X connect 56 0 40 0;
#X connect 58 0 42 0;
#X connect 59 0 60 0;
#X connect 59 0 61 0;
#X connect 59 0 38 0;
#X connect 59 0 4 0;
#X connect 59 0 34 0;
#X connect 59 0 21 0;
#X connect 59 0 66 0;
#X connect 59 0 97 0;
#X connect 59 0 58 0;
#X connect 59 0 43 0;
#X connect 59 0 99 0;
#X connect 60 0 31 0;
#X connect 60 0 53 0;
#X connect 61 0 45 0;
#X connect 61 0 23 0;
#X connect 61 0 6 0;
#X connect 61 0 68 0;
#X connect 62 0 46 0;
#X connect 63 0 65 0;
#X connect 64 0 75 0;
#X connect 65 0 64 0;
#X connect 66 0 64 0;
#X connect 67 0 101 0;
#X connect 68 0 67 1;
#X connect 69 0 73 0;
#X connect 69 1 74 0;
#X connect 70 0 72 0;
#X connect 70 0 80 0;
#X connect 71 0 69 0;
#X connect 72 0 71 0;
#X connect 73 0 65 0;
#X connect 73 0 65 2;
#X connect 73 0 65 1;
#X connect 74 0 65 2;
#X connect 74 0 65 1;
#X connect 74 0 65 0;
#X connect 75 0 67 0;
#X connect 76 0 75 3;
#X connect 77 0 75 2;
#X connect 78 0 75 1;
#X connect 79 0 63 0;
#X connect 80 0 69 0;
#X connect 81 0 83 0;
#X connect 81 0 96 0;
#X connect 82 0 79 0;
#X connect 83 0 82 0;
#X connect 84 0 95 0;
#X connect 84 0 98 0;
#X connect 85 0 56 0;
#X connect 86 0 91 0;
#X connect 86 0 94 0;
#X connect 87 0 36 0;
#X connect 88 0 92 0;
#X connect 88 0 93 0;
#X connect 89 0 37 0;
#X connect 91 0 87 0;
#X connect 92 0 89 0;
#X connect 93 0 37 0;
#X connect 94 0 36 0;
#X connect 95 0 56 0;
#X connect 96 0 79 0;
#X connect 97 0 65 0;
#X connect 98 0 85 0;
#X restore 14 526 pd element;
#X obj 544 98 r palm1X;
#X obj 746 58 tgl 15 0 empty empty empty 17 7 0 10 -262144 -1 -1 0
1;
#X floatatom 455 352 5 0 0 0 - - -;
#X floatatom 298 351 5 0 0 0 - - -;
#X obj 283 749 square 1;
#X floatatom 350 743 5 0 0 0 - - -;
#X obj 292 57 block~ 4096;
#X floatatom 305 465 5 0 0 0 - - -;
#X connect 0 0 8 0;
#X connect 1 0 13 0;
#X connect 2 0 0 0;
#X connect 3 0 1 0;
#X connect 4 0 8 0;
#X connect 4 0 77 0;
#X connect 5 0 8 1;
#X connect 6 0 77 1;
#X connect 6 0 8 2;
#X connect 7 0 77 2;
#X connect 7 0 8 3;
#X connect 7 0 77 3;
#X connect 8 0 1 0;
#X connect 9 0 83 0;
#X connect 10 0 9 2;
#X connect 11 0 17 0;
#X connect 12 0 11 1;
#X connect 13 0 16 0;
#X connect 14 0 18 0;
#X connect 15 0 14 1;
#X connect 16 0 19 0;
#X connect 18 0 11 0;
#X connect 19 0 9 0;
#X connect 22 0 25 0;
#X connect 23 0 32 0;
#X connect 24 0 33 0;
#X connect 25 0 28 1;
#X connect 26 0 28 0;
#X connect 27 0 26 0;
#X connect 27 0 42 0;
#X connect 28 0 65 0;
#X connect 29 0 22 0;
#X connect 30 0 23 0;
#X connect 31 0 24 0;
#X connect 32 0 28 2;
#X connect 33 0 28 3;
#X connect 34 0 70 0;
#X connect 35 0 53 0;
#X connect 36 0 54 0;
#X connect 37 0 38 0;
#X connect 38 0 72 0;
#X connect 39 0 63 0;
#X connect 40 0 44 0;
#X connect 41 0 45 0;
#X connect 42 0 43 0;
#X connect 43 0 64 0;
#X connect 44 0 43 2;
#X connect 45 0 43 3;
#X connect 46 0 71 0;
#X connect 47 0 56 0;
#X connect 48 0 55 0;
#X connect 49 0 50 0;
#X connect 50 0 73 0;
#X connect 51 0 35 0;
#X connect 52 0 36 0;
#X connect 53 0 38 2;
#X connect 54 0 38 3;
#X connect 55 0 50 3;
#X connect 56 0 50 2;
#X connect 57 0 46 0;
#X connect 58 0 47 0;
#X connect 59 0 48 0;
#X connect 60 0 39 0;
#X connect 61 0 40 0;
#X connect 62 0 41 0;
#X connect 63 0 43 1;
#X connect 70 0 38 1;
#X connect 71 0 50 1;
#X connect 74 0 14 0;
#X connect 75 0 74 1;
#X connect 76 0 77 0;
#X connect 77 0 79 0;
#X connect 78 0 76 0;
#X connect 79 0 74 0;
#X connect 80 0 79 0;
#X connect 81 0 16 1;
#X connect 82 0 13 2;
#X connect 85 0 8 0;
#X connect 86 0 3 0;
#X connect 86 0 87 0;
#X connect 86 0 88 0;
#X connect 86 0 89 0;
#X connect 86 0 90 0;
#X connect 86 0 91 0;
#X connect 86 0 92 0;
#X connect 87 0 82 0;
#X connect 88 0 81 0;
#X connect 89 0 10 0;
#X connect 90 0 75 0;
#X connect 91 0 15 0;
#X connect 92 0 12 0;
#X connect 93 0 2 0;
#X connect 93 0 78 0;
#X connect 95 0 34 0;
#X connect 96 0 37 0;
#X connect 96 0 49 0;
#X connect 97 0 74 3;
#X connect 98 0 13 3;
#X connect 100 0 99 1;
#X connect 102 0 83 2;
#X restore 472 159 pd graphics;
#N canvas 93 22 1130 752 audio 0;
#N canvas 598 179 530 560 melodico1 0;
#N canvas 224 22 961 700 16counter 0;
#X obj 318 440 + 1;
#X obj 267 436 float;
#X obj 272 622 mod 2;
#X obj 210 672 delay 0;
#X obj 260 651 *;
#X msg 206 296 1;
#X obj 218 321 /;
#X obj 209 273 t f f;
#X obj 228 344 * 15000;
#X obj 339 355 t b f;
#X obj 263 405 metro 125;
#X obj 182 578 *;
#X obj 268 596 t b f f;
#X obj 136 130 hsl 80 8 0 0.4 0 1 empty empty swing -33 4 0 10 -262144
-1 -1 0 1;
#X msg 340 329 -2;
#X obj 251 700 int;
#X obj 172 17 loadbang;
#X floatatom 126 113 5 30 300 0 bpm - -;
#X msg -2 85 set \$1;
#X msg 5 139 91;
#X obj 174 112 bng 15 250 50 0 empty empty empty 6 7 0 10 -261234 -1
-1;
#X obj 253 737 outlet;
#X obj 570 496 outlet;
#X text 618 497 bpm->;
#X obj 200 112 bng 15 50 20 0 empty empty empty 6 7 0 10 -204786 -1
-1;
#X obj 208 225 float;
#X obj 435 539 outlet;
#X text 144 343 1/16 in ms;
#X text 485 540 pos96->;
#X text 178 628 swing;
#X obj 259 373 / 6;
#X text 219 371 1/96;
#X obj 343 481 / 6;
#X obj 343 505 int;
#X obj 342 530 change;
#X text 304 738 pos16swing->;
#X obj 600 64 + 1;
#X obj 602 29 float;
#X obj 600 96 moses 2;
#X obj 600 155 timer;
#X obj 600 123 t b;
#X obj 648 122 t b b;
#X obj 653 243 /;
#X msg 623 221 60000;
#X obj 618 183 t b f;
#X obj 656 268 moses 10;
#X text 500 72 beatcounter;
#X obj 772 358 float;
#X obj 769 401 + 1;
#X obj 688 426 +;
#X obj 729 396 *;
#X obj 705 328 t f b;
#X obj 698 464 /;
#X msg 884 211 0;
#X text 499 302 mean (as seen on idafx blog);
#X obj 906 259 bng 15 250 50 0 empty empty empty 17 7 0 10 -262144
-1 -1;
#X obj 864 324 t f f;
#X obj 921 503 moses 0.1;
#X text 880 303 reset;
#X obj 870 366 /;
#X obj 849 431 < 0.75;
#X obj 903 435 > 1.25;
#X obj 869 391 t f f;
#X obj 877 471 ||;
#X obj 174 54 t b b b;
#X obj 43 -7 inlet;
#X obj 107 -11 inlet;
#X connect 0 0 1 1;
#X connect 0 0 32 0;
#X connect 0 0 26 0;
#X connect 1 0 0 0;
#X connect 2 0 4 0;
#X connect 3 0 15 0;
#X connect 4 0 3 1;
#X connect 5 0 6 0;
#X connect 6 0 8 0;
#X connect 7 0 5 0;
#X connect 7 1 6 1;
#X connect 8 0 11 1;
#X connect 8 0 30 0;
#X connect 9 0 10 0;
#X connect 9 1 1 0;
#X connect 10 0 1 0;
#X connect 11 0 4 1;
#X connect 12 0 3 0;
#X connect 12 1 2 0;
#X connect 12 2 15 1;
#X connect 13 0 11 0;
#X connect 14 0 9 0;
#X connect 15 0 21 0;
#X connect 16 0 64 0;
#X connect 17 0 18 0;
#X connect 17 0 25 1;
#X connect 18 0 19 0;
#X connect 19 0 17 0;
#X connect 20 0 14 0;
#X connect 20 0 25 0;
#X connect 24 0 37 0;
#X connect 25 0 7 0;
#X connect 25 0 22 0;
#X connect 30 0 10 1;
#X connect 32 0 33 0;
#X connect 33 0 34 0;
#X connect 34 0 12 0;
#X connect 36 0 37 1;
#X connect 36 0 38 0;
#X connect 37 0 36 0;
#X connect 38 0 40 0;
#X connect 38 1 41 0;
#X connect 39 0 44 0;
#X connect 39 0 56 0;
#X connect 40 0 39 0;
#X connect 41 0 39 0;
#X connect 41 1 39 1;
#X connect 42 0 45 0;
#X connect 43 0 42 0;
#X connect 44 0 43 0;
#X connect 44 1 42 1;
#X connect 45 1 51 0;
#X connect 47 0 48 0;
#X connect 47 0 50 0;
#X connect 48 0 47 1;
#X connect 48 0 52 1;
#X connect 49 0 52 0;
#X connect 50 0 49 1;
#X connect 51 0 49 0;
#X connect 51 1 47 0;
#X connect 52 0 50 1;
#X connect 52 0 17 0;
#X connect 53 0 47 1;
#X connect 53 0 37 1;
#X connect 53 0 55 0;
#X connect 56 0 59 1;
#X connect 56 1 59 0;
#X connect 57 1 53 0;
#X connect 59 0 62 0;
#X connect 60 0 63 0;
#X connect 61 0 63 1;
#X connect 62 0 60 0;
#X connect 62 1 61 0;
#X connect 63 0 57 0;
#X connect 64 0 20 0;
#X connect 64 1 20 0;
#X connect 64 2 19 0;
#X connect 65 0 20 0;
#X connect 66 0 24 0;
#X coords 0 -1 1 1 120 40 1 100 100;
#X restore -200 -71 pd 16counter;
#X obj -129 -22 t b;
#X obj -69 -24 bng 15 250 50 0 empty empty reset 17 7 0 10 -262144
-1 -1;
#X obj -159 454 dac~;
#N canvas 634 267 527 649 fractalgen1 0;
#X obj 189 287 +;
#X obj 218 313 +;
#X obj 189 350 /;
#X obj 103 130 nbx 3 14 0 128 0 1 empty empty a 0 -8 0 10 -262144 -1
-1 128 256;
#X obj -14 180 inlet;
#X obj 43 183 inlet;
#X obj 167 261 float;
#X obj 142 130 nbx 3 14 0 128 0 1 empty empty b 0 -8 0 10 -262144 -1
-1 128 256;
#X obj 212 260 float;
#X obj 181 130 nbx 3 14 0 128 0 1 empty empty c 0 -8 0 10 -262144 -1
-1 128 256;
#X obj 254 286 float;
#X obj 172 321 abs;
#X obj 190 372 clip 0 1;
#X obj 178 224 t b f;
#X obj 229 224 t b f;
#X obj 104 183 nbx 3 14 0 128 0 1 empty empty st 0 -8 0 10 -262144
-1 -1 12 256;
#X obj 144 183 nbx 3 14 0 128 0 1 empty empty rg 0 -8 0 10 -262144
-1 -1 65 256;
#X obj 11 274 abs;
#X obj 27 348 mod;
#X obj 37 373 +;
#X obj 190 399 moses;
#X obj 106 160 hsl 100 8 0 1 0 1 empty empty thr -2 -8 0 10 -262144
-1 -1 1400 1;
#X obj 33 433 int;
#X obj 229 432 pipe 1;
#X obj 229 455 t b f;
#X obj 271 497 outlet;
#X obj 37 476 outlet;
#N canvas 677 181 1022 653 fractalformula 0;
#X obj 215 -76 inlet;
#X obj 587 20 inlet;
#X text 219 -100 bang;
#X obj 675 41 inlet;
#X obj 734 66 inlet;
#X text 600 1 a;
#X text 687 23 b;
#X text 752 49 c;
#X obj 295 184 outlet;
#X text 596 157 xn+1=yn-sgn(xn)*sqrt(abs(b*xn-c);
#X obj 395 296 outlet;
#X text 394 247 yn+1=a-xn;
#X msg 50 3 0;
#X obj 297 160 expr $f1-($f2*sqrt(abs(($f3*$f4)-$f5)));
#X obj 290 248 expr $f1-$f2;
#X text 317 79 yn;
#X text 410 42 xn;
#X obj 397 62 float;
#X obj 305 98 float;
#X obj 286 220 float;
#X obj 282 13 t b b b;
#N canvas 612 239 450 300 sign 0;
#X obj 160 44 inlet;
#X obj 169 193 outlet;
#X obj 165 108 moses 0;
#X msg 165 139 -1;
#X msg 217 141 1;
#X connect 0 0 2 0;
#X connect 2 0 3 0;
#X connect 2 1 4 0;
#X connect 3 0 1 0;
#X connect 4 0 1 0;
#X restore 370 124 pd sign;
#X obj 59 37 t b f;
#X obj 35 -54 inlet;
#X text 34 -73 reset;
#X connect 0 0 20 0;
#X connect 1 0 19 1;
#X connect 3 0 13 2;
#X connect 4 0 13 4;
#X connect 12 0 22 0;
#X connect 13 0 17 1;
#X connect 13 0 8 0;
#X connect 14 0 18 1;
#X connect 14 0 10 0;
#X connect 17 0 13 3;
#X connect 17 0 14 1;
#X connect 17 0 21 0;
#X connect 18 0 13 0;
#X connect 19 0 14 0;
#X connect 20 0 19 0;
#X connect 20 1 18 0;
#X connect 20 2 17 0;
#X connect 21 0 13 1;
#X connect 22 0 19 0;
#X connect 22 1 14 1;
#X connect 22 1 18 0;
#X connect 23 0 12 0;
#X restore 0 236 pd fractalformula;
#X text 195 18 gingerbread-hopalong-whatever fractal;
#X text 197 37 3/2011 martin brinkmann;
#X connect 0 0 1 0;
#X connect 1 0 2 1;
#X connect 2 0 12 0;
#X connect 3 0 27 2;
#X connect 3 0 6 0;
#X connect 4 0 27 1;
#X connect 5 0 27 0;
#X connect 6 0 0 0;
#X connect 7 0 27 3;
#X connect 7 0 13 0;
#X connect 8 0 0 1;
#X connect 9 0 27 4;
#X connect 9 0 14 0;
#X connect 10 0 1 1;
#X connect 11 0 2 0;
#X connect 12 0 20 0;
#X connect 13 0 6 0;
#X connect 13 1 8 0;
#X connect 14 0 6 0;
#X connect 14 1 10 0;
#X connect 15 0 19 1;
#X connect 16 0 18 1;
#X connect 17 0 18 0;
#X connect 18 0 19 0;
#X connect 19 0 22 1;
#X connect 20 1 23 0;
#X connect 21 0 20 1;
#X connect 22 0 26 0;
#X connect 23 0 24 0;
#X connect 24 0 22 0;
#X connect 24 1 25 0;
#X connect 27 0 17 0;
#X connect 27 1 11 0;
#X coords 0 -1 1 1 120 100 1 100 100;
#X restore -199 7 pd fractalgen1;
#N canvas 634 267 527 649 fractalgen2 0;
#X obj 189 287 +;
#X obj 218 313 +;
#X obj 189 350 /;
#X obj 103 130 nbx 3 14 0 128 0 1 empty empty a 0 -8 0 10 -262144 -1
-1 128 256;
#X obj -14 180 inlet;
#X obj 43 183 inlet;
#X obj 167 261 float;
#X obj 142 130 nbx 3 14 0 128 0 1 empty empty b 0 -8 0 10 -262144 -1
-1 128 256;
#X obj 212 260 float;
#X obj 181 130 nbx 3 14 0 128 0 1 empty empty c 0 -8 0 10 -262144 -1
-1 128 256;
#X obj 254 286 float;
#X obj 172 321 abs;
#X obj 190 372 clip 0 1;
#X obj 178 224 t b f;
#X obj 229 224 t b f;
#X obj 104 183 nbx 3 14 0 128 0 1 empty empty st 0 -8 0 10 -262144
-1 -1 24 256;
#X obj 144 183 nbx 3 14 0 128 0 1 empty empty rg 0 -8 0 10 -262144
-1 -1 62 256;
#X obj 11 274 abs;
#X obj 27 348 mod;
#X obj 37 373 +;
#X obj 190 399 moses;
#X obj 106 160 hsl 100 8 0 1 0 1 empty empty thr -2 -8 0 10 -262144
-1 -1 0 1;
#X obj 33 433 int;
#X obj 229 432 pipe 1;
#X obj 229 455 t b f;
#X obj 271 497 outlet;
#X obj 37 476 outlet;
#N canvas 677 181 1022 653 fractalformula 0;
#X obj 215 -76 inlet;
#X obj 587 20 inlet;
#X text 219 -100 bang;
#X obj 675 41 inlet;
#X obj 734 66 inlet;
#X text 600 1 a;
#X text 687 23 b;
#X text 752 49 c;
#X obj 295 184 outlet;
#X text 596 157 xn+1=yn-sgn(xn)*sqrt(abs(b*xn-c);
#X obj 395 296 outlet;
#X text 394 247 yn+1=a-xn;
#X msg 50 3 0;
#X obj 297 160 expr $f1-($f2*sqrt(abs(($f3*$f4)-$f5)));
#X obj 290 248 expr $f1-$f2;
#X text 317 79 yn;
#X text 410 42 xn;
#X obj 397 62 float;
#X obj 305 98 float;
#X obj 286 220 float;
#X obj 282 13 t b b b;
#N canvas 612 239 450 300 sign 0;
#X obj 160 44 inlet;
#X obj 169 193 outlet;
#X obj 165 108 moses 0;
#X msg 165 139 -1;
#X msg 217 141 1;
#X connect 0 0 2 0;
#X connect 2 0 3 0;
#X connect 2 1 4 0;
#X connect 3 0 1 0;
#X connect 4 0 1 0;
#X restore 370 124 pd sign;
#X obj 59 37 t b f;
#X obj 35 -54 inlet;
#X text 34 -73 reset;
#X connect 0 0 20 0;
#X connect 1 0 19 1;
#X connect 3 0 13 2;
#X connect 4 0 13 4;
#X connect 12 0 22 0;
#X connect 13 0 17 1;
#X connect 13 0 8 0;
#X connect 14 0 18 1;
#X connect 14 0 10 0;
#X connect 17 0 13 3;
#X connect 17 0 14 1;
#X connect 17 0 21 0;
#X connect 18 0 13 0;
#X connect 19 0 14 0;
#X connect 20 0 19 0;
#X connect 20 1 18 0;
#X connect 20 2 17 0;
#X connect 21 0 13 1;
#X connect 22 0 19 0;
#X connect 22 1 14 1;
#X connect 22 1 18 0;
#X connect 23 0 12 0;
#X restore 0 236 pd fractalformula;
#X text 195 18 gingerbread-hopalong-whatever fractal;
#X text 197 37 3/2011 martin brinkmann;
#X connect 0 0 1 0;
#X connect 1 0 2 1;
#X connect 2 0 12 0;
#X connect 3 0 27 2;
#X connect 3 0 6 0;
#X connect 4 0 27 1;
#X connect 5 0 27 0;
#X connect 6 0 0 0;
#X connect 7 0 27 3;
#X connect 7 0 13 0;
#X connect 8 0 0 1;
#X connect 9 0 27 4;
#X connect 9 0 14 0;
#X connect 10 0 1 1;
#X connect 11 0 2 0;
#X connect 12 0 20 0;
#X connect 13 0 6 0;
#X connect 13 1 8 0;
#X connect 14 0 6 0;
#X connect 14 1 10 0;
#X connect 15 0 19 1;
#X connect 16 0 18 1;
#X connect 17 0 18 0;
#X connect 18 0 19 0;
#X connect 19 0 22 1;
#X connect 20 1 23 0;
#X connect 21 0 20 1;
#X connect 22 0 26 0;
#X connect 23 0 24 0;
#X connect 24 0 22 0;
#X connect 24 1 25 0;
#X connect 27 0 17 0;
#X connect 27 1 11 0;
#X coords 0 -1 1 1 120 100 1 100 100;
#X restore -69 7 pd fractalgen2;
#N canvas 634 267 527 649 fractalgen3 0;
#X obj 189 287 +;
#X obj 218 313 +;
#X obj 189 350 /;
#X obj 103 130 nbx 3 14 0 128 0 1 empty empty a 0 -8 0 10 -262144 -1
-1 76 256;
#X obj -14 180 inlet;
#X obj 43 183 inlet;
#X obj 167 261 float;
#X obj 142 130 nbx 3 14 0 128 0 1 empty empty b 0 -8 0 10 -262144 -1
-1 113 256;
#X obj 212 260 float;
#X obj 181 130 nbx 3 14 0 128 0 1 empty empty c 0 -8 0 10 -262144 -1
-1 98 256;
#X obj 254 286 float;
#X obj 172 321 abs;
#X obj 190 372 clip 0 1;
#X obj 178 224 t b f;
#X obj 229 224 t b f;
#X obj 104 183 nbx 3 14 0 128 0 1 empty empty st 0 -8 0 10 -262144
-1 -1 36 256;
#X obj 144 183 nbx 3 14 0 128 0 1 empty empty rg 0 -8 0 10 -262144
-1 -1 128 256;
#X obj 11 274 abs;
#X obj 27 348 mod;
#X obj 37 373 +;
#X obj 190 399 moses;
#X obj 106 160 hsl 100 8 0 1 0 1 empty empty thr -2 -8 0 10 -262144
-1 -1 9900 1;
#X obj 33 433 int;
#X obj 229 432 pipe 1;
#X obj 229 455 t b f;
#X obj 271 497 outlet;
#X obj 37 476 outlet;
#N canvas 677 181 1022 653 fractalformula 0;
#X obj 215 -76 inlet;
#X obj 587 20 inlet;
#X text 219 -100 bang;
#X obj 675 41 inlet;
#X obj 734 66 inlet;
#X text 600 1 a;
#X text 687 23 b;
#X text 752 49 c;
#X obj 295 184 outlet;
#X text 596 157 xn+1=yn-sgn(xn)*sqrt(abs(b*xn-c);
#X obj 395 296 outlet;
#X text 394 247 yn+1=a-xn;
#X msg 50 3 0;
#X obj 297 160 expr $f1-($f2*sqrt(abs(($f3*$f4)-$f5)));
#X obj 290 248 expr $f1-$f2;
#X text 317 79 yn;
#X text 410 42 xn;
#X obj 397 62 float;
#X obj 305 98 float;
#X obj 286 220 float;
#X obj 282 13 t b b b;
#N canvas 612 239 450 300 sign 0;
#X obj 160 44 inlet;
#X obj 169 193 outlet;
#X obj 165 108 moses 0;
#X msg 165 139 -1;
#X msg 217 141 1;
#X connect 0 0 2 0;
#X connect 2 0 3 0;
#X connect 2 1 4 0;
#X connect 3 0 1 0;
#X connect 4 0 1 0;
#X restore 370 124 pd sign;
#X obj 59 37 t b f;
#X obj 35 -54 inlet;
#X text 34 -73 reset;
#X connect 0 0 20 0;
#X connect 1 0 19 1;
#X connect 3 0 13 2;
#X connect 4 0 13 4;
#X connect 12 0 22 0;
#X connect 13 0 17 1;
#X connect 13 0 8 0;
#X connect 14 0 18 1;
#X connect 14 0 10 0;
#X connect 17 0 13 3;
#X connect 17 0 14 1;
#X connect 17 0 21 0;
#X connect 18 0 13 0;
#X connect 19 0 14 0;
#X connect 20 0 19 0;
#X connect 20 1 18 0;
#X connect 20 2 17 0;
#X connect 21 0 13 1;
#X connect 22 0 19 0;
#X connect 22 1 14 1;
#X connect 22 1 18 0;
#X connect 23 0 12 0;
#X restore 0 236 pd fractalformula;
#X text 195 18 gingerbread-hopalong-whatever fractal;
#X text 197 37 3/2011 martin brinkmann;
#X connect 0 0 1 0;
#X connect 1 0 2 1;
#X connect 2 0 12 0;
#X connect 3 0 27 2;
#X connect 3 0 6 0;
#X connect 4 0 27 1;
#X connect 5 0 27 0;
#X connect 6 0 0 0;
#X connect 7 0 27 3;
#X connect 7 0 13 0;
#X connect 8 0 0 1;
#X connect 9 0 27 4;
#X connect 9 0 14 0;
#X connect 10 0 1 1;
#X connect 11 0 2 0;
#X connect 12 0 20 0;
#X connect 13 0 6 0;
#X connect 13 1 8 0;
#X connect 14 0 6 0;
#X connect 14 1 10 0;
#X connect 15 0 19 1;
#X connect 16 0 18 1;
#X connect 17 0 18 0;
#X connect 18 0 19 0;
#X connect 19 0 22 1;
#X connect 20 1 23 0;
#X connect 21 0 20 1;
#X connect 22 0 26 0;
#X connect 23 0 24 0;
#X connect 24 0 22 0;
#X connect 24 1 25 0;
#X connect 27 0 17 0;
#X connect 27 1 11 0;
#X coords 0 -1 1 1 120 100 1 100 100;
#X restore 61 7 pd fractalgen3;
#N canvas 570 244 704 546 sinefm1 0;
#X obj 28 72 inlet;
#X obj 87 62 inlet;
#X obj 31 123 mtof;
#X obj 55 275 osc~;
#X obj -157 84 catch~ \$0gingerfm1;
#X obj 40 238 +~;
#X obj 56 463 outlet~;
#X obj 7 194 *~;
#X obj 57 350 *~;
#X obj 110 326 vline~;
#X obj 110 115 hsl 100 8 110 180 0 1 empty empty attack 5 5 0 8 -262144
-1 -1 9400 1;
#X obj 131 183 dbtorms;
#X obj 110 127 hsl 100 8 110 280 0 1 empty empty decay 5 5 0 8 -262144
-1 -1 400 1;
#X obj 223 183 dbtorms;
#X obj 132 268 pack f f f;
#X msg 131 291 \$1 \$2 \, 0 \$3 \$2;
#X obj 110 139 hsl 100 8 0 1 0 1 empty empty fm 5 5 0 8 -262144 -1
-1 1900 1;
#X obj 138 416 throw~ \$0gingerfm2;
#X obj 79 166 *;
#X obj 64 188 * 3000;
#X connect 0 0 2 0;
#X connect 1 0 14 0;
#X connect 2 0 5 1;
#X connect 3 0 8 0;
#X connect 4 0 7 0;
#X connect 5 0 3 0;
#X connect 7 0 5 0;
#X connect 8 0 6 0;
#X connect 8 0 17 0;
#X connect 9 0 8 1;
#X connect 10 0 11 0;
#X connect 11 0 14 1;
#X connect 12 0 13 0;
#X connect 13 0 14 2;
#X connect 14 0 15 0;
#X connect 15 0 9 0;
#X connect 16 0 18 1;
#X connect 16 0 18 0;
#X connect 18 0 19 0;
#X connect 19 0 7 1;
#X coords 0 -1 1 1 120 50 1 100 100;
#X restore -199 184 pd sinefm1;
#N canvas 543 393 704 546 sinefm2 0;
#X obj 28 72 inlet;
#X obj 87 62 inlet;
#X obj 31 123 mtof;
#X obj 55 275 osc~;
#X obj 40 238 +~;
#X obj 50 474 outlet~;
#X obj 7 194 *~;
#X obj 57 350 *~;
#X obj 110 326 vline~;
#X obj 110 115 hsl 100 8 110 180 0 1 empty empty attack 5 5 0 8 -262144
-1 -1 3400 1;
#X obj 131 183 dbtorms;
#X obj 110 127 hsl 100 8 110 180 0 1 empty empty decay 5 5 0 8 -262144
-1 -1 9900 1;
#X obj 223 183 dbtorms;
#X obj 132 268 pack f f f;
#X msg 131 291 \$1 \$2 \, 0 \$3 \$2;
#X obj -156 86 catch~ \$0gingerfm2;
#X obj 138 416 throw~ \$0gingerfm3;
#X obj 110 139 hsl 100 8 0 1 0 1 empty empty fm 5 5 0 8 -262144 -1
-1 600 1;
#X obj 79 166 *;
#X obj 64 188 * 3000;
#X connect 0 0 2 0;
#X connect 1 0 13 0;
#X connect 2 0 4 1;
#X connect 3 0 7 0;
#X connect 4 0 3 0;
#X connect 6 0 4 0;
#X connect 7 0 5 0;
#X connect 7 0 16 0;
#X connect 8 0 7 1;
#X connect 9 0 10 0;
#X connect 10 0 13 1;
#X connect 11 0 12 0;
#X connect 12 0 13 2;
#X connect 13 0 14 0;
#X connect 14 0 8 0;
#X connect 15 0 6 0;
#X connect 17 0 18 1;
#X connect 17 0 18 0;
#X connect 18 0 19 0;
#X connect 19 0 6 1;
#X coords 0 -1 1 1 120 50 1 100 100;
#X restore -69 184 pd sinefm2;
#N canvas 544 397 704 546 sinefm3 0;
#X obj 28 72 inlet;
#X obj 87 62 inlet;
#X obj 31 123 mtof;
#X obj 55 275 osc~;
#X obj 40 238 +~;
#X obj 50 474 outlet~;
#X obj 7 194 *~;
#X obj 57 350 *~;
#X obj 110 326 vline~;
#X obj 110 115 hsl 100 8 110 180 0 1 empty empty attack 5 5 0 8 -262144
-1 -1 0 1;
#X obj 131 183 dbtorms;
#X obj 110 127 hsl 100 8 110 180 0 1 empty empty decay 5 5 0 8 -262144
-1 -1 0 1;
#X obj 223 183 dbtorms;
#X obj 132 268 pack f f f;
#X msg 131 291 \$1 \$2 \, 0 \$3 \$2;
#X obj 139 415 throw~ \$0gingerfm1;
#X obj -156 86 catch~ \$0gingerfm3;
#X obj 110 139 hsl 100 8 0 1 0 1 empty empty fm 5 5 0 8 -262144 -1
-1 0 1;
#X obj 79 166 *;
#X obj 64 188 * 3000;
#X connect 0 0 2 0;
#X connect 1 0 13 0;
#X connect 2 0 4 1;
#X connect 3 0 7 0;
#X connect 4 0 3 0;
#X connect 6 0 4 0;
#X connect 7 0 5 0;
#X connect 7 0 15 0;
#X connect 8 0 7 1;
#X connect 9 0 10 0;
#X connect 10 0 13 1;
#X connect 11 0 12 0;
#X connect 12 0 13 2;
#X connect 13 0 14 0;
#X connect 14 0 8 0;
#X connect 16 0 6 0;
#X connect 17 0 18 1;
#X connect 17 0 18 0;
#X connect 18 0 19 0;
#X connect 19 0 6 1;
#X coords 0 -1 1 1 120 50 1 100 100;
#X restore 61 184 pd sinefm3;
#N canvas 4 82 692 532 scale3 0;
#X obj -25 97 inlet;
#X obj 30 337 outlet;
#N canvas 136 199 1143 398 notescalefilter 0;
#X obj 195 27 inlet;
#X obj 204 95 inlet;
#X obj 297 104 inlet;
#X obj 395 106 inlet;
#X obj 497 109 inlet;
#X obj 1099 352 outlet;
#X obj 181 148 mod 12;
#X obj 181 171 == 0;
#X obj 194 227 +;
#X obj 152 124 t f f;
#X obj 209 193 *;
#X obj 291 154 mod 12;
#X obj 304 233 +;
#X obj 319 199 *;
#X obj 291 176 == 1;
#X obj 395 155 mod 12;
#X obj 408 234 +;
#X obj 423 200 *;
#X obj 395 176 == 2;
#X obj 204 126 == 0;
#X obj 312 129 == 0;
#X obj 413 130 == 0;
#X obj 500 157 mod 12;
#X obj 513 236 +;
#X obj 528 202 *;
#X obj 518 132 == 0;
#X obj 247 198 t f f;
#X obj 351 201 t f f;
#X obj 456 203 t f f;
#X obj 608 108 inlet;
#X obj 611 156 mod 12;
#X obj 624 235 +;
#X obj 639 201 *;
#X obj 629 131 == 0;
#X obj 567 202 t f f;
#X obj 500 178 == 3;
#X obj 611 177 == 4;
#X obj 723 103 inlet;
#X obj 828 105 inlet;
#X obj 930 108 inlet;
#X obj 717 153 mod 12;
#X obj 730 232 +;
#X obj 745 198 *;
#X obj 828 154 mod 12;
#X obj 841 233 +;
#X obj 856 199 *;
#X obj 738 128 == 0;
#X obj 846 129 == 0;
#X obj 933 156 mod 12;
#X obj 946 235 +;
#X obj 961 201 *;
#X obj 951 131 == 0;
#X obj 673 197 t f f;
#X obj 784 200 t f f;
#X obj 889 202 t f f;
#X obj 1041 107 inlet;
#X obj 1044 155 mod 12;
#X obj 1057 234 +;
#X obj 1072 200 *;
#X obj 1062 130 == 0;
#X obj 1000 201 t f f;
#X obj 717 175 == 5;
#X obj 827 175 == 6;
#X obj 933 177 == 7;
#X obj 1044 176 == 8;
#X obj 1154 106 inlet;
#X obj 1259 108 inlet;
#X obj 1361 111 inlet;
#X obj 1148 156 mod 12;
#X obj 1161 235 +;
#X obj 1176 201 *;
#X obj 1259 157 mod 12;
#X obj 1272 236 +;
#X obj 1287 202 *;
#X obj 1169 131 == 0;
#X obj 1277 132 == 0;
#X obj 1364 159 mod 12;
#X obj 1377 238 +;
#X obj 1392 204 *;
#X obj 1382 134 == 0;
#X obj 1104 200 t f f;
#X obj 1215 203 t f f;
#X obj 1320 205 t f f;
#X obj 1148 178 == 9;
#X obj 1259 178 == 10;
#X obj 1364 180 == 11;
#X floatatom 187 278 5 0 0 0 - - -;
#X connect 0 0 9 0;
#X connect 1 0 19 0;
#X connect 2 0 20 0;
#X connect 3 0 21 0;
#X connect 4 0 25 0;
#X connect 6 0 7 0;
#X connect 7 0 10 0;
#X connect 8 0 26 0;
#X connect 8 0 86 0;
#X connect 9 0 8 0;
#X connect 9 1 6 0;
#X connect 10 0 8 1;
#X connect 11 0 14 0;
#X connect 12 0 27 0;
#X connect 13 0 12 1;
#X connect 14 0 13 0;
#X connect 15 0 18 0;
#X connect 16 0 28 0;
#X connect 17 0 16 1;
#X connect 18 0 17 0;
#X connect 19 0 10 1;
#X connect 20 0 13 1;
#X connect 21 0 17 1;
#X connect 22 0 35 0;
#X connect 23 0 34 0;
#X connect 24 0 23 1;
#X connect 25 0 24 1;
#X connect 26 0 12 0;
#X connect 26 1 11 0;
#X connect 27 0 16 0;
#X connect 27 1 15 0;
#X connect 28 0 23 0;
#X connect 28 1 22 0;
#X connect 29 0 33 0;
#X connect 30 0 36 0;
#X connect 31 0 52 0;
#X connect 32 0 31 1;
#X connect 33 0 32 1;
#X connect 34 0 31 0;
#X connect 34 1 30 0;
#X connect 35 0 24 0;
#X connect 36 0 32 0;
#X connect 37 0 46 0;
#X connect 38 0 47 0;
#X connect 39 0 51 0;
#X connect 40 0 61 0;
#X connect 41 0 53 0;
#X connect 42 0 41 1;
#X connect 43 0 62 0;
#X connect 44 0 54 0;
#X connect 45 0 44 1;
#X connect 46 0 42 1;
#X connect 47 0 45 1;
#X connect 48 0 63 0;
#X connect 49 0 60 0;
#X connect 50 0 49 1;
#X connect 51 0 50 1;
#X connect 52 0 41 0;
#X connect 52 1 40 0;
#X connect 53 0 44 0;
#X connect 53 1 43 0;
#X connect 54 0 49 0;
#X connect 54 1 48 0;
#X connect 55 0 59 0;
#X connect 56 0 64 0;
#X connect 57 0 80 0;
#X connect 58 0 57 1;
#X connect 59 0 58 1;
#X connect 60 0 57 0;
#X connect 60 1 56 0;
#X connect 61 0 42 0;
#X connect 62 0 45 0;
#X connect 63 0 50 0;
#X connect 64 0 58 0;
#X connect 65 0 74 0;
#X connect 66 0 75 0;
#X connect 67 0 79 0;
#X connect 68 0 83 0;
#X connect 69 0 81 0;
#X connect 70 0 69 1;
#X connect 71 0 84 0;
#X connect 72 0 82 0;
#X connect 73 0 72 1;
#X connect 74 0 70 1;
#X connect 75 0 73 1;
#X connect 76 0 85 0;
#X connect 77 0 5 0;
#X connect 78 0 77 1;
#X connect 79 0 78 1;
#X connect 80 0 69 0;
#X connect 80 1 68 0;
#X connect 81 0 72 0;
#X connect 81 1 71 0;
#X connect 82 0 77 0;
#X connect 82 1 76 0;
#X connect 83 0 70 0;
#X connect 84 0 73 0;
#X connect 85 0 78 0;
#X restore 125 198 pd notescalefilter;
#X obj 107 133 tgl 15 1 empty empty empty 0 -6 0 8 -262144 -1 -1 1
1;
#X obj 128 133 tgl 15 1 empty empty empty 0 -6 0 8 -262144 -1 -1 0
1;
#X obj 149 133 tgl 15 1 empty empty empty 0 -6 0 8 -262144 -1 -1 1
1;
#X obj 170 133 tgl 15 1 empty empty empty 0 -6 0 8 -262144 -1 -1 1
1;
#X obj 191 133 tgl 15 1 empty empty empty 0 -6 0 8 -262144 -1 -1 1
1;
#X obj 212 133 tgl 15 1 empty empty empty 0 -6 0 8 -262144 -1 -1 1
1;
#X obj 233 133 tgl 15 1 empty empty empty 0 -6 0 8 -262144 -1 -1 1
1;
#X obj 117 114 tgl 15 1 empty empty empty 0 -6 0 8 -166441 -1 -1 1
1;
#X obj 139 114 tgl 15 1 empty empty empty 0 -6 0 8 -166441 -1 -1 0
1;
#X obj 179 114 tgl 15 1 empty empty empty 0 -6 0 8 -166441 -1 -1 0
1;
#X obj 201 114 tgl 15 1 empty empty empty 0 -6 0 8 -166441 -1 -1 0
1;
#X obj 223 114 tgl 15 1 empty empty empty 0 -6 0 8 -166441 -1 -1 1
1;
#X obj -2 165 inlet;
#X obj 72 394 outlet;
#N canvas 42 473 1143 398 notescalefilter 0;
#X obj 195 27 inlet;
#X obj 204 95 inlet;
#X obj 297 104 inlet;
#X obj 395 106 inlet;
#X obj 497 109 inlet;
#X obj 1099 352 outlet;
#X obj 181 148 mod 12;
#X obj 181 171 == 0;
#X obj 194 227 +;
#X obj 152 124 t f f;
#X obj 209 193 *;
#X obj 291 154 mod 12;
#X obj 304 233 +;
#X obj 319 199 *;
#X obj 291 176 == 1;
#X obj 395 155 mod 12;
#X obj 408 234 +;
#X obj 423 200 *;
#X obj 395 176 == 2;
#X obj 204 126 == 0;
#X obj 312 129 == 0;
#X obj 413 130 == 0;
#X obj 500 157 mod 12;
#X obj 513 236 +;
#X obj 528 202 *;
#X obj 518 132 == 0;
#X obj 247 198 t f f;
#X obj 351 201 t f f;
#X obj 456 203 t f f;
#X obj 608 108 inlet;
#X obj 611 156 mod 12;
#X obj 624 235 +;
#X obj 639 201 *;
#X obj 629 131 == 0;
#X obj 567 202 t f f;
#X obj 500 178 == 3;
#X obj 611 177 == 4;
#X obj 723 103 inlet;
#X obj 828 105 inlet;
#X obj 930 108 inlet;
#X obj 717 153 mod 12;
#X obj 730 232 +;
#X obj 745 198 *;
#X obj 828 154 mod 12;
#X obj 841 233 +;
#X obj 856 199 *;
#X obj 738 128 == 0;
#X obj 846 129 == 0;
#X obj 933 156 mod 12;
#X obj 946 235 +;
#X obj 961 201 *;
#X obj 951 131 == 0;
#X obj 673 197 t f f;
#X obj 784 200 t f f;
#X obj 889 202 t f f;
#X obj 1041 107 inlet;
#X obj 1044 155 mod 12;
#X obj 1057 234 +;
#X obj 1072 200 *;
#X obj 1062 130 == 0;
#X obj 1000 201 t f f;
#X obj 717 175 == 5;
#X obj 827 175 == 6;
#X obj 933 177 == 7;
#X obj 1044 176 == 8;
#X obj 1154 106 inlet;
#X obj 1259 108 inlet;
#X obj 1361 111 inlet;
#X obj 1148 156 mod 12;
#X obj 1161 235 +;
#X obj 1176 201 *;
#X obj 1259 157 mod 12;
#X obj 1272 236 +;
#X obj 1287 202 *;
#X obj 1169 131 == 0;
#X obj 1277 132 == 0;
#X obj 1364 159 mod 12;
#X obj 1377 238 +;
#X obj 1392 204 *;
#X obj 1382 134 == 0;
#X obj 1104 200 t f f;
#X obj 1215 203 t f f;
#X obj 1320 205 t f f;
#X obj 1148 178 == 9;
#X obj 1259 178 == 10;
#X obj 1364 180 == 11;
#X floatatom 187 278 5 0 0 0 - - -;
#X connect 0 0 9 0;
#X connect 1 0 19 0;
#X connect 2 0 20 0;
#X connect 3 0 21 0;
#X connect 4 0 25 0;
#X connect 6 0 7 0;
#X connect 7 0 10 0;
#X connect 8 0 26 0;
#X connect 8 0 86 0;
#X connect 9 0 8 0;
#X connect 9 1 6 0;
#X connect 10 0 8 1;
#X connect 11 0 14 0;
#X connect 12 0 27 0;
#X connect 13 0 12 1;
#X connect 14 0 13 0;
#X connect 15 0 18 0;
#X connect 16 0 28 0;
#X connect 17 0 16 1;
#X connect 18 0 17 0;
#X connect 19 0 10 1;
#X connect 20 0 13 1;
#X connect 21 0 17 1;
#X connect 22 0 35 0;
#X connect 23 0 34 0;
#X connect 24 0 23 1;
#X connect 25 0 24 1;
#X connect 26 0 12 0;
#X connect 26 1 11 0;
#X connect 27 0 16 0;
#X connect 27 1 15 0;
#X connect 28 0 23 0;
#X connect 28 1 22 0;
#X connect 29 0 33 0;
#X connect 30 0 36 0;
#X connect 31 0 52 0;
#X connect 32 0 31 1;
#X connect 33 0 32 1;
#X connect 34 0 31 0;
#X connect 34 1 30 0;
#X connect 35 0 24 0;
#X connect 36 0 32 0;
#X connect 37 0 46 0;
#X connect 38 0 47 0;
#X connect 39 0 51 0;
#X connect 40 0 61 0;
#X connect 41 0 53 0;
#X connect 42 0 41 1;
#X connect 43 0 62 0;
#X connect 44 0 54 0;
#X connect 45 0 44 1;
#X connect 46 0 42 1;
#X connect 47 0 45 1;
#X connect 48 0 63 0;
#X connect 49 0 60 0;
#X connect 50 0 49 1;
#X connect 51 0 50 1;
#X connect 52 0 41 0;
#X connect 52 1 40 0;
#X connect 53 0 44 0;
#X connect 53 1 43 0;
#X connect 54 0 49 0;
#X connect 54 1 48 0;
#X connect 55 0 59 0;
#X connect 56 0 64 0;
#X connect 57 0 80 0;
#X connect 58 0 57 1;
#X connect 59 0 58 1;
#X connect 60 0 57 0;
#X connect 60 1 56 0;
#X connect 61 0 42 0;
#X connect 62 0 45 0;
#X connect 63 0 50 0;
#X connect 64 0 58 0;
#X connect 65 0 74 0;
#X connect 66 0 75 0;
#X connect 67 0 79 0;
#X connect 68 0 83 0;
#X connect 69 0 81 0;
#X connect 70 0 69 1;
#X connect 71 0 84 0;
#X connect 72 0 82 0;
#X connect 73 0 72 1;
#X connect 74 0 70 1;
#X connect 75 0 73 1;
#X connect 76 0 85 0;
#X connect 77 0 5 0;
#X connect 78 0 77 1;
#X connect 79 0 78 1;
#X connect 80 0 69 0;
#X connect 80 1 68 0;
#X connect 81 0 72 0;
#X connect 81 1 71 0;
#X connect 82 0 77 0;
#X connect 82 1 76 0;
#X connect 83 0 70 0;
#X connect 84 0 73 0;
#X connect 85 0 78 0;
#X restore 161 261 pd notescalefilter;
#X obj 51 238 inlet;
#X obj 130 458 outlet;
#N canvas 42 473 1143 398 notescalefilter 0;
#X obj 195 27 inlet;
#X obj 204 95 inlet;
#X obj 297 104 inlet;
#X obj 395 106 inlet;
#X obj 497 109 inlet;
#X obj 1099 352 outlet;
#X obj 181 148 mod 12;
#X obj 181 171 == 0;
#X obj 194 227 +;
#X obj 152 124 t f f;
#X obj 209 193 *;
#X obj 291 154 mod 12;
#X obj 304 233 +;
#X obj 319 199 *;
#X obj 291 176 == 1;
#X obj 395 155 mod 12;
#X obj 408 234 +;
#X obj 423 200 *;
#X obj 395 176 == 2;
#X obj 204 126 == 0;
#X obj 312 129 == 0;
#X obj 413 130 == 0;
#X obj 500 157 mod 12;
#X obj 513 236 +;
#X obj 528 202 *;
#X obj 518 132 == 0;
#X obj 247 198 t f f;
#X obj 351 201 t f f;
#X obj 456 203 t f f;
#X obj 608 108 inlet;
#X obj 611 156 mod 12;
#X obj 624 235 +;
#X obj 639 201 *;
#X obj 629 131 == 0;
#X obj 567 202 t f f;
#X obj 500 178 == 3;
#X obj 611 177 == 4;
#X obj 723 103 inlet;
#X obj 828 105 inlet;
#X obj 930 108 inlet;
#X obj 717 153 mod 12;
#X obj 730 232 +;
#X obj 745 198 *;
#X obj 828 154 mod 12;
#X obj 841 233 +;
#X obj 856 199 *;
#X obj 738 128 == 0;
#X obj 846 129 == 0;
#X obj 933 156 mod 12;
#X obj 946 235 +;
#X obj 961 201 *;
#X obj 951 131 == 0;
#X obj 673 197 t f f;
#X obj 784 200 t f f;
#X obj 889 202 t f f;
#X obj 1041 107 inlet;
#X obj 1044 155 mod 12;
#X obj 1057 234 +;
#X obj 1072 200 *;
#X obj 1062 130 == 0;
#X obj 1000 201 t f f;
#X obj 717 175 == 5;
#X obj 827 175 == 6;
#X obj 933 177 == 7;
#X obj 1044 176 == 8;
#X obj 1154 106 inlet;
#X obj 1259 108 inlet;
#X obj 1361 111 inlet;
#X obj 1148 156 mod 12;
#X obj 1161 235 +;
#X obj 1176 201 *;
#X obj 1259 157 mod 12;
#X obj 1272 236 +;
#X obj 1287 202 *;
#X obj 1169 131 == 0;
#X obj 1277 132 == 0;
#X obj 1364 159 mod 12;
#X obj 1377 238 +;
#X obj 1392 204 *;
#X obj 1382 134 == 0;
#X obj 1104 200 t f f;
#X obj 1215 203 t f f;
#X obj 1320 205 t f f;
#X obj 1148 178 == 9;
#X obj 1259 178 == 10;
#X obj 1364 180 == 11;
#X floatatom 187 278 5 0 0 0 - - -;
#X connect 0 0 9 0;
#X connect 1 0 19 0;
#X connect 2 0 20 0;
#X connect 3 0 21 0;
#X connect 4 0 25 0;
#X connect 6 0 7 0;
#X connect 7 0 10 0;
#X connect 8 0 26 0;
#X connect 8 0 86 0;
#X connect 9 0 8 0;
#X connect 9 1 6 0;
#X connect 10 0 8 1;
#X connect 11 0 14 0;
#X connect 12 0 27 0;
#X connect 13 0 12 1;
#X connect 14 0 13 0;
#X connect 15 0 18 0;
#X connect 16 0 28 0;
#X connect 17 0 16 1;
#X connect 18 0 17 0;
#X connect 19 0 10 1;
#X connect 20 0 13 1;
#X connect 21 0 17 1;
#X connect 22 0 35 0;
#X connect 23 0 34 0;
#X connect 24 0 23 1;
#X connect 25 0 24 1;
#X connect 26 0 12 0;
#X connect 26 1 11 0;
#X connect 27 0 16 0;
#X connect 27 1 15 0;
#X connect 28 0 23 0;
#X connect 28 1 22 0;
#X connect 29 0 33 0;
#X connect 30 0 36 0;
#X connect 31 0 52 0;
#X connect 32 0 31 1;
#X connect 33 0 32 1;
#X connect 34 0 31 0;
#X connect 34 1 30 0;
#X connect 35 0 24 0;
#X connect 36 0 32 0;
#X connect 37 0 46 0;
#X connect 38 0 47 0;
#X connect 39 0 51 0;
#X connect 40 0 61 0;
#X connect 41 0 53 0;
#X connect 42 0 41 1;
#X connect 43 0 62 0;
#X connect 44 0 54 0;
#X connect 45 0 44 1;
#X connect 46 0 42 1;
#X connect 47 0 45 1;
#X connect 48 0 63 0;
#X connect 49 0 60 0;
#X connect 50 0 49 1;
#X connect 51 0 50 1;
#X connect 52 0 41 0;
#X connect 52 1 40 0;
#X connect 53 0 44 0;
#X connect 53 1 43 0;
#X connect 54 0 49 0;
#X connect 54 1 48 0;
#X connect 55 0 59 0;
#X connect 56 0 64 0;
#X connect 57 0 80 0;
#X connect 58 0 57 1;
#X connect 59 0 58 1;
#X connect 60 0 57 0;
#X connect 60 1 56 0;
#X connect 61 0 42 0;
#X connect 62 0 45 0;
#X connect 63 0 50 0;
#X connect 64 0 58 0;
#X connect 65 0 74 0;
#X connect 66 0 75 0;
#X connect 67 0 79 0;
#X connect 68 0 83 0;
#X connect 69 0 81 0;
#X connect 70 0 69 1;
#X connect 71 0 84 0;
#X connect 72 0 82 0;
#X connect 73 0 72 1;
#X connect 74 0 70 1;
#X connect 75 0 73 1;
#X connect 76 0 85 0;
#X connect 77 0 5 0;
#X connect 78 0 77 1;
#X connect 79 0 78 1;
#X connect 80 0 69 0;
#X connect 80 1 68 0;
#X connect 81 0 72 0;
#X connect 81 1 71 0;
#X connect 82 0 77 0;
#X connect 82 1 76 0;
#X connect 83 0 70 0;
#X connect 84 0 73 0;
#X connect 85 0 78 0;
#X restore 220 316 pd notescalefilter;
#X connect 0 0 2 0;
#X connect 2 0 1 0;
#X connect 3 0 2 1;
#X connect 3 0 17 1;
#X connect 3 0 20 1;
#X connect 4 0 2 3;
#X connect 4 0 17 3;
#X connect 4 0 20 3;
#X connect 5 0 2 5;
#X connect 5 0 17 5;
#X connect 5 0 20 5;
#X connect 6 0 2 6;
#X connect 6 0 17 6;
#X connect 6 0 20 6;
#X connect 7 0 2 8;
#X connect 7 0 17 8;
#X connect 7 0 20 8;
#X connect 8 0 2 10;
#X connect 8 0 17 10;
#X connect 8 0 20 10;
#X connect 9 0 2 12;
#X connect 9 0 17 12;
#X connect 9 0 20 12;
#X connect 10 0 2 2;
#X connect 10 0 17 2;
#X connect 10 0 20 2;
#X connect 11 0 2 4;
#X connect 11 0 17 4;
#X connect 11 0 20 4;
#X connect 12 0 2 7;
#X connect 12 0 17 7;
#X connect 12 0 20 7;
#X connect 13 0 2 9;
#X connect 13 0 17 9;
#X connect 13 0 20 9;
#X connect 14 0 2 11;
#X connect 14 0 17 11;
#X connect 14 0 20 11;
#X connect 15 0 17 0;
#X connect 17 0 16 0;
#X connect 18 0 20 0;
#X connect 20 0 19 0;
#X coords 0 -1 1 1 160 50 1 100 100;
#X restore -186 125 pd scale3;
#N canvas 320 274 1039 747 beatdelay1ff 0;
#X obj 26 93 inlet~;
#X obj 172 67 inlet;
#X obj 221 467 outlet~;
#X floatatom 189 143 5 0 0 0 - - -;
#X obj 29 15 hradio 12 1 1 8 empty empty 1/16 -25 6 0 8 -262144 -1
-1 1;
#X obj 188 162 pow -1;
#X obj 254 156 + 1;
#X obj 188 185 / 4;
#X obj 201 208 *;
#X obj 212 236 * 60000;
#X obj 14 182 +~;
#X obj 55 155 *~;
#X obj 28 34 hsl 96 8 0 0.95 0 1 empty empty fb -16 5 0 8 -262144 -1
-1 2100 1;
#X text 215 66 <- bpm in;
#X obj 180 8 loadbang;
#X floatatom 255 127 5 0 0 0 - - -;
#X obj 124 95 t b b;
#X text 3 270 <- unique name for delayline! ->;
#X obj 28 46 hsl 96 8 20 5000 1 1 empty empty frq -20 5 0 8 -262144
-1 -1 0 1;
#X obj 128 179 vcf~ 1;
#X text 201 35 beatsynced delay with filtered feedback;
#X obj 78 129 hip~ 100;
#X obj -131 267 delwrite~ \$0fbdl1 2000;
#X obj 231 274 delread~ \$0fbdl1;
#X obj 28 58 hsl 96 8 1 5 0 1 empty empty dis -20 4 0 8 -262144 -1
-1 3100 1;
#X obj 224 406 /~;
#X obj 252 347 abs~;
#X obj 231 300 *~;
#X obj 251 373 +~ 0.75;
#X connect 0 0 10 0;
#X connect 1 0 3 0;
#X connect 3 0 5 0;
#X connect 4 0 15 0;
#X connect 4 0 16 0;
#X connect 5 0 7 0;
#X connect 6 0 8 1;
#X connect 7 0 8 0;
#X connect 8 0 9 0;
#X connect 9 0 23 0;
#X connect 10 0 22 0;
#X connect 11 0 10 1;
#X connect 12 0 11 1;
#X connect 14 0 16 0;
#X connect 15 0 6 0;
#X connect 16 0 3 0;
#X connect 16 1 15 0;
#X connect 18 0 19 1;
#X connect 19 0 21 0;
#X connect 21 0 11 0;
#X connect 23 0 27 0;
#X connect 24 0 27 1;
#X connect 25 0 19 0;
#X connect 25 0 2 0;
#X connect 26 0 28 0;
#X connect 27 0 25 0;
#X connect 27 0 26 0;
#X connect 28 0 25 1;
#X coords 0 -1 1 1 130 75 1 0 0;
#X restore -200 301 pd beatdelay1ff;
#N canvas 319 270 649 492 beatdelay2ff 0;
#X obj 26 93 inlet~;
#X obj 172 67 inlet;
#X obj 254 465 outlet~;
#X floatatom 189 143 5 0 0 0 - - -;
#X obj 29 15 hradio 12 1 1 8 empty empty 1/16 -25 6 0 8 -262144 -1
-1 6;
#X obj 188 162 pow -1;
#X obj 254 156 + 1;
#X obj 188 185 / 4;
#X obj 201 208 *;
#X obj 212 236 * 60000;
#X obj 14 182 +~;
#X obj 55 155 *~;
#X obj 28 34 hsl 96 8 0 0.95 0 1 empty empty fb -16 5 0 8 -262144 -1
-1 0 1;
#X text 215 66 <- bpm in;
#X obj 180 8 loadbang;
#X floatatom 255 127 5 0 0 0 - - -;
#X obj 124 95 t b b;
#X text 3 270 <- unique name for delayline! ->;
#X obj 28 46 hsl 96 8 20 5000 1 1 empty empty frq -20 5 0 8 -262144
-1 -1 4600 1;
#X obj 128 179 vcf~ 1;
#X text 201 35 beatsynced delay with filtered feedback;
#X obj 78 129 hip~ 100;
#X obj 231 274 delread~ \$0fbdl2;
#X obj -131 267 delwrite~ \$0fbdl2 2000;
#X obj 28 58 hsl 96 8 1 5 0 1 empty empty dis -20 4 0 8 -262144 -1
-1 4400 1;
#X obj 255 407 /~;
#X obj 283 348 abs~;
#X obj 262 301 *~;
#X obj 282 374 +~ 0.75;
#X connect 0 0 10 0;
#X connect 1 0 3 0;
#X connect 3 0 5 0;
#X connect 4 0 15 0;
#X connect 4 0 16 0;
#X connect 5 0 7 0;
#X connect 6 0 8 1;
#X connect 7 0 8 0;
#X connect 8 0 9 0;
#X connect 9 0 22 0;
#X connect 10 0 23 0;
#X connect 11 0 10 1;
#X connect 12 0 11 1;
#X connect 14 0 16 0;
#X connect 15 0 6 0;
#X connect 16 0 3 0;
#X connect 16 1 15 0;
#X connect 18 0 19 1;
#X connect 19 0 21 0;
#X connect 21 0 11 0;
#X connect 22 0 27 0;
#X connect 24 0 27 1;
#X connect 25 0 19 0;
#X connect 25 0 2 0;
#X connect 26 0 28 0;
#X connect 27 0 25 0;
#X connect 27 0 26 0;
#X connect 28 0 25 1;
#X coords 0 -1 1 1 130 75 1 0 0;
#X restore -64 300 pd beatdelay2ff;
#N canvas 7 94 854 367 3levels 0;
#X obj 40 38 inlet~;
#X obj 41 270 outlet~;
#X obj 82 196 *;
#X obj 41 242 *~;
#X floatatom 106 114 3 0 128 0 - - -;
#X obj 91 171 / 128;
#X obj 138 38 inlet~;
#X obj 139 270 outlet~;
#X obj 170 196 *;
#X obj 139 242 *~;
#X floatatom 132 114 3 0 128 0 - - -;
#X obj 179 171 / 128;
#X obj 219 39 inlet~;
#X obj 220 271 outlet~;
#X obj 251 197 *;
#X obj 220 243 *~;
#X floatatom 158 114 3 0 128 0 - - -;
#X obj 260 172 / 128;
#X obj 81 220 * 1;
#X obj 168 222 * 1;
#X obj 249 219 * 1;
#X msg 56 65 set \$1;
#X msg 64 91 128;
#X obj 192 9 loadbang;
#X msg 113 63 set \$1;
#X msg 121 89 0;
#X msg 172 64 set \$1;
#X msg 180 90 0;
#X connect 0 0 3 0;
#X connect 2 0 18 0;
#X connect 3 0 1 0;
#X connect 4 0 5 0;
#X connect 4 0 21 0;
#X connect 5 0 2 1;
#X connect 5 0 2 0;
#X connect 6 0 9 0;
#X connect 8 0 19 0;
#X connect 9 0 7 0;
#X connect 10 0 11 0;
#X connect 10 0 24 0;
#X connect 11 0 8 1;
#X connect 11 0 8 0;
#X connect 12 0 15 0;
#X connect 14 0 20 0;
#X connect 15 0 13 0;
#X connect 16 0 17 0;
#X connect 16 0 26 0;
#X connect 17 0 14 1;
#X connect 17 0 14 0;
#X connect 18 0 3 1;
#X connect 19 0 9 1;
#X connect 20 0 15 1;
#X connect 21 0 22 0;
#X connect 22 0 4 0;
#X connect 23 0 22 0;
#X connect 23 0 25 0;
#X connect 23 0 27 0;
#X connect 24 0 25 0;
#X connect 25 0 10 0;
#X connect 26 0 27 0;
#X connect 27 0 16 0;
#X coords 0 -1 1 1 90 30 1 100 100;
#X restore -190 256 pd 3levels;
#N canvas 7 94 854 367 3levels 0;
#X obj 40 38 inlet~;
#X obj 41 270 outlet~;
#X obj 82 196 *;
#X obj 41 242 *~;
#X floatatom 106 114 3 0 128 0 - - -;
#X obj 91 171 / 128;
#X obj 138 38 inlet~;
#X obj 139 270 outlet~;
#X obj 170 196 *;
#X obj 139 242 *~;
#X floatatom 132 114 3 0 128 0 - - -;
#X obj 179 171 / 128;
#X obj 219 39 inlet~;
#X obj 220 271 outlet~;
#X obj 251 197 *;
#X obj 220 243 *~;
#X floatatom 158 114 3 0 128 0 - - -;
#X obj 260 172 / 128;
#X obj 81 220 * 1;
#X obj 168 222 * 1;
#X obj 249 219 * 1;
#X msg 56 65 set \$1;
#X msg 64 91 0;
#X obj 192 9 loadbang;
#X msg 113 63 set \$1;
#X msg 121 89 0;
#X msg 172 64 set \$1;
#X msg 180 90 0;
#X connect 0 0 3 0;
#X connect 2 0 18 0;
#X connect 3 0 1 0;
#X connect 4 0 5 0;
#X connect 4 0 21 0;
#X connect 5 0 2 1;
#X connect 5 0 2 0;
#X connect 6 0 9 0;
#X connect 8 0 19 0;
#X connect 9 0 7 0;
#X connect 10 0 11 0;
#X connect 10 0 24 0;
#X connect 11 0 8 1;
#X connect 11 0 8 0;
#X connect 12 0 15 0;
#X connect 14 0 20 0;
#X connect 15 0 13 0;
#X connect 16 0 17 0;
#X connect 16 0 26 0;
#X connect 17 0 14 1;
#X connect 17 0 14 0;
#X connect 18 0 3 1;
#X connect 19 0 9 1;
#X connect 20 0 15 1;
#X connect 21 0 22 0;
#X connect 22 0 4 0;
#X connect 23 0 22 0;
#X connect 23 0 25 0;
#X connect 23 0 27 0;
#X connect 24 0 25 0;
#X connect 25 0 10 0;
#X connect 26 0 27 0;
#X connect 27 0 16 0;
#X coords 0 -1 1 1 90 30 1 100 100;
#X restore -80 257 pd 3levels;
#N canvas 7 94 854 367 3levels 0;
#X obj 40 38 inlet~;
#X obj 41 270 outlet~;
#X obj 82 196 *;
#X obj 41 242 *~;
#X floatatom 106 114 3 0 128 0 - - -;
#X obj 91 171 / 128;
#X obj 138 38 inlet~;
#X obj 139 270 outlet~;
#X obj 170 196 *;
#X obj 139 242 *~;
#X floatatom 132 114 3 0 128 0 - - -;
#X obj 179 171 / 128;
#X obj 219 39 inlet~;
#X obj 220 271 outlet~;
#X obj 251 197 *;
#X obj 220 243 *~;
#X floatatom 158 114 3 0 128 0 - - -;
#X obj 260 172 / 128;
#X obj 81 220 * 1;
#X obj 168 222 * 1;
#X obj 249 219 * 1;
#X msg 56 65 set \$1;
#X msg 64 91 97;
#X obj 192 9 loadbang;
#X msg 113 63 set \$1;
#X msg 121 89 0;
#X msg 172 64 set \$1;
#X msg 180 90 0;
#X connect 0 0 3 0;
#X connect 2 0 18 0;
#X connect 3 0 1 0;
#X connect 4 0 5 0;
#X connect 4 0 21 0;
#X connect 5 0 2 1;
#X connect 5 0 2 0;
#X connect 6 0 9 0;
#X connect 8 0 19 0;
#X connect 9 0 7 0;
#X connect 10 0 11 0;
#X connect 10 0 24 0;
#X connect 11 0 8 1;
#X connect 11 0 8 0;
#X connect 12 0 15 0;
#X connect 14 0 20 0;
#X connect 15 0 13 0;
#X connect 16 0 17 0;
#X connect 16 0 26 0;
#X connect 17 0 14 1;
#X connect 17 0 14 0;
#X connect 18 0 3 1;
#X connect 19 0 9 1;
#X connect 20 0 15 1;
#X connect 21 0 22 0;
#X connect 22 0 4 0;
#X connect 23 0 22 0;
#X connect 23 0 25 0;
#X connect 23 0 27 0;
#X connect 24 0 25 0;
#X connect 25 0 10 0;
#X connect 26 0 27 0;
#X connect 27 0 16 0;
#X coords 0 -1 1 1 90 30 1 100 100;
#X restore 26 259 pd 3levels;
#N canvas 10 106 854 393 mixer6 0;
#X obj 41 135 inlet~;
#X obj 81 196 *;
#X obj 40 242 *~;
#X floatatom 103 113 3 0 128 0 - - -;
#X obj 90 171 / 128;
#X obj 143 153 inlet~;
#X obj 168 216 *;
#X obj 138 242 *~;
#X floatatom 136 113 3 0 128 0 - - -;
#X obj 177 191 / 128;
#X obj 218 150 inlet~;
#X obj 250 197 *;
#X obj 219 243 *~;
#X floatatom 169 113 3 0 128 0 - - -;
#X obj 259 172 / 128;
#X obj 80 220 * 1;
#X obj 166 242 * 1;
#X obj 248 219 * 1;
#X msg 50 34 set \$1;
#X msg 58 60 0;
#X obj 186 -22 loadbang;
#X msg 107 32 set \$1;
#X msg 115 58 0;
#X msg 166 33 set \$1;
#X msg 174 59 0;
#X obj 121 480 outlet~;
#X obj 364 455 outlet~;
#N canvas 0 22 450 300 pan1 0;
#X obj 297 51 inlet~;
#X obj 256 225 outlet~;
#X obj 336 218 outlet~;
#X obj 251 149 *~;
#X obj 323 154 *~;
#X obj 160 42 clip~ 0 1;
#X obj 120 15 inlet~;
#X obj 208 75 *~ -1;
#X obj 276 122 +~ 1;
#X obj 335 113 *~ -1;
#X connect 0 0 3 0;
#X connect 0 0 4 1;
#X connect 3 0 1 0;
#X connect 4 0 2 0;
#X connect 5 0 7 0;
#X connect 6 0 5 0;
#X connect 7 0 8 0;
#X connect 7 0 9 0;
#X connect 8 0 3 1;
#X connect 9 0 4 0;
#X restore -16 348 pd pan1;
#N canvas 0 22 450 300 pan1 0;
#X obj 297 51 inlet~;
#X obj 256 225 outlet~;
#X obj 336 218 outlet~;
#X obj 251 149 *~;
#X obj 323 154 *~;
#X obj 160 42 clip~ 0 1;
#X obj 120 15 inlet~;
#X obj 208 75 *~ -1;
#X obj 276 122 +~ 1;
#X obj 335 113 *~ -1;
#X connect 0 0 3 0;
#X connect 0 0 4 1;
#X connect 3 0 1 0;
#X connect 4 0 2 0;
#X connect 5 0 7 0;
#X connect 6 0 5 0;
#X connect 7 0 8 0;
#X connect 7 0 9 0;
#X connect 8 0 3 1;
#X connect 9 0 4 0;
#X restore 91 355 pd pan1;
#N canvas 0 22 450 300 pan1 0;
#X obj 297 51 inlet~;
#X obj 256 225 outlet~;
#X obj 336 218 outlet~;
#X obj 251 149 *~;
#X obj 323 154 *~;
#X obj 160 42 clip~ 0 1;
#X obj 120 15 inlet~;
#X obj 208 75 *~ -1;
#X obj 276 122 +~ 1;
#X obj 335 113 *~ -1;
#X connect 0 0 3 0;
#X connect 0 0 4 1;
#X connect 3 0 1 0;
#X connect 4 0 2 0;
#X connect 5 0 7 0;
#X connect 6 0 5 0;
#X connect 7 0 8 0;
#X connect 7 0 9 0;
#X connect 8 0 3 1;
#X connect 9 0 4 0;
#X restore 176 355 pd pan1;
#X obj 106 130 hsl 24 8 0 1 0 1 empty empty empty -2 -8 0 10 -262144
-1 -1 1100 1;
#X obj 139 130 hsl 24 8 0 1 0 1 empty empty empty -2 -8 0 10 -262144
-1 -1 2300 1;
#X obj 172 130 hsl 24 8 0 1 0 1 empty empty empty -2 -8 0 10 -262144
-1 -1 1400 1;
#X obj 310 162 inlet~;
#X obj 366 201 *;
#X obj 335 247 *~;
#X floatatom 202 113 3 0 128 0 - - -;
#X obj 375 176 / 128;
#X obj 364 223 * 1;
#N canvas 0 22 450 300 pan1 0;
#X obj 297 51 inlet~;
#X obj 256 225 outlet~;
#X obj 336 218 outlet~;
#X obj 251 149 *~;
#X obj 323 154 *~;
#X obj 160 42 clip~ 0 1;
#X obj 120 15 inlet~;
#X obj 208 75 *~ -1;
#X obj 276 122 +~ 1;
#X obj 335 113 *~ -1;
#X connect 0 0 3 0;
#X connect 0 0 4 1;
#X connect 3 0 1 0;
#X connect 4 0 2 0;
#X connect 5 0 7 0;
#X connect 6 0 5 0;
#X connect 7 0 8 0;
#X connect 7 0 9 0;
#X connect 8 0 3 1;
#X connect 9 0 4 0;
#X restore 285 360 pd pan1;
#X obj 205 130 hsl 24 8 0 1 0 1 empty empty empty -2 -8 0 10 -262144
-1 -1 2300 1;
#X obj 428 168 inlet~;
#X obj 484 207 *;
#X obj 453 253 *~;
#X floatatom 235 113 3 0 128 0 - - -;
#X obj 493 182 / 128;
#X obj 482 229 * 1;
#N canvas 0 22 450 300 pan1 0;
#X obj 297 51 inlet~;
#X obj 256 225 outlet~;
#X obj 336 218 outlet~;
#X obj 251 149 *~;
#X obj 323 154 *~;
#X obj 160 42 clip~ 0 1;
#X obj 120 15 inlet~;
#X obj 208 75 *~ -1;
#X obj 276 122 +~ 1;
#X obj 335 113 *~ -1;
#X connect 0 0 3 0;
#X connect 0 0 4 1;
#X connect 3 0 1 0;
#X connect 4 0 2 0;
#X connect 5 0 7 0;
#X connect 6 0 5 0;
#X connect 7 0 8 0;
#X connect 7 0 9 0;
#X connect 8 0 3 1;
#X connect 9 0 4 0;
#X restore 403 366 pd pan1;
#X obj 238 130 hsl 24 8 0 1 0 1 empty empty empty -2 -8 0 10 -262144
-1 -1 2300 1;
#X obj 548 168 inlet~;
#X obj 604 207 *;
#X obj 573 253 *~;
#X floatatom 268 113 3 0 128 0 - - -;
#X obj 613 182 / 128;
#X obj 602 229 * 1;
#N canvas 0 22 450 300 pan1 0;
#X obj 297 51 inlet~;
#X obj 256 225 outlet~;
#X obj 336 218 outlet~;
#X obj 251 149 *~;
#X obj 323 154 *~;
#X obj 160 42 clip~ 0 1;
#X obj 120 15 inlet~;
#X obj 208 75 *~ -1;
#X obj 276 122 +~ 1;
#X obj 335 113 *~ -1;
#X connect 0 0 3 0;
#X connect 0 0 4 1;
#X connect 3 0 1 0;
#X connect 4 0 2 0;
#X connect 5 0 7 0;
#X connect 6 0 5 0;
#X connect 7 0 8 0;
#X connect 7 0 9 0;
#X connect 8 0 3 1;
#X connect 9 0 4 0;
#X restore 523 366 pd pan1;
#X obj 271 130 hsl 24 8 0 1 0 1 empty empty empty -2 -8 0 10 -262144
-1 -1 1400 1;
#X msg 223 34 set \$1;
#X msg 231 60 0;
#X msg 280 32 set \$1;
#X msg 288 58 0;
#X msg 339 33 set \$1;
#X msg 347 59 0;
#X connect 0 0 2 0;
#X connect 1 0 15 0;
#X connect 2 0 27 1;
#X connect 3 0 4 0;
#X connect 3 0 18 0;
#X connect 4 0 1 1;
#X connect 4 0 1 0;
#X connect 5 0 7 0;
#X connect 6 0 16 0;
#X connect 7 0 28 1;
#X connect 8 0 9 0;
#X connect 8 0 21 0;
#X connect 9 0 6 1;
#X connect 9 0 6 0;
#X connect 10 0 12 0;
#X connect 11 0 17 0;
#X connect 12 0 29 1;
#X connect 13 0 14 0;
#X connect 13 0 23 0;
#X connect 14 0 11 1;
#X connect 14 0 11 0;
#X connect 15 0 2 1;
#X connect 16 0 7 1;
#X connect 17 0 12 1;
#X connect 18 0 19 0;
#X connect 19 0 3 0;
#X connect 20 0 19 0;
#X connect 20 0 22 0;
#X connect 20 0 24 0;
#X connect 20 0 58 0;
#X connect 20 0 60 0;
#X connect 20 0 62 0;
#X connect 21 0 22 0;
#X connect 22 0 8 0;
#X connect 23 0 24 0;
#X connect 24 0 13 0;
#X connect 27 0 25 0;
#X connect 27 1 26 0;
#X connect 28 0 25 0;
#X connect 28 1 26 0;
#X connect 29 0 25 0;
#X connect 29 1 26 0;
#X connect 30 0 27 0;
#X connect 31 0 28 0;
#X connect 32 0 29 0;
#X connect 33 0 35 0;
#X connect 34 0 38 0;
#X connect 35 0 39 1;
#X connect 36 0 37 0;
#X connect 36 0 57 0;
#X connect 37 0 34 1;
#X connect 37 0 34 0;
#X connect 38 0 35 1;
#X connect 39 0 25 0;
#X connect 39 1 26 0;
#X connect 40 0 39 0;
#X connect 41 0 43 0;
#X connect 42 0 46 0;
#X connect 43 0 47 1;
#X connect 44 0 45 0;
#X connect 44 0 59 0;
#X connect 45 0 42 1;
#X connect 45 0 42 0;
#X connect 46 0 43 1;
#X connect 47 0 25 0;
#X connect 47 1 26 0;
#X connect 48 0 47 0;
#X connect 49 0 51 0;
#X connect 50 0 54 0;
#X connect 51 0 55 1;
#X connect 52 0 53 0;
#X connect 52 0 61 0;
#X connect 53 0 50 1;
#X connect 53 0 50 0;
#X connect 54 0 51 1;
#X connect 55 0 25 0;
#X connect 55 1 26 0;
#X connect 56 0 55 0;
#X connect 57 0 58 0;
#X connect 58 0 36 0;
#X connect 59 0 60 0;
#X connect 60 0 44 0;
#X connect 61 0 62 0;
#X connect 62 0 52 0;
#X coords 0 -1 1 1 200 40 1 100 100;
#X restore -168 396 pd mixer6;
#X text -16 -37 4/2011 martin brinkmann;
#N canvas 342 73 693 820 flangephaser1 0;
#X obj -135 565 +~;
#X obj 11 383 expr~ 1 - 0.03 - 0.6*abs($v1-0.5)*abs($v1-0.5);
#X obj -145 -36 inlet~;
#X obj -143 608 outlet~;
#X obj 153 117 hsl 100 8 0.05 5 0 1 empty empty spd -22 5 0 8 -262144
-1 -1 4100 1;
#X obj -34 191 phasor~;
#N canvas 170 108 799 787 stages_delay 0;
#X obj -124 261 rpole~;
#X obj -124 236 rzero_rev~;
#X obj -124 320 rpole~;
#X obj -124 295 rzero_rev~;
#X obj -124 378 rpole~;
#X obj -124 353 rzero_rev~;
#X obj -124 437 rpole~;
#X obj -124 412 rzero_rev~;
#X obj -124 498 rpole~;
#X obj -124 473 rzero_rev~;
#X obj -124 557 rpole~;
#X obj -124 532 rzero_rev~;
#X obj 239 159 inlet~;
#X obj -30 52 block~ 1;
#X obj -52 696 outlet~;
#X obj -94 86 inlet~;
#X obj 483 515 outlet~;
#X obj 15 134 +~;
#X obj 246 422 *~;
#X text 451 219 <-delaytime (ms);
#X obj 536 248 inlet;
#X text 580 251 <- fb 0 < fb < 1;
#X obj 395 222 inlet~;
#X obj -126 592 delwrite~ \$0pflng1 100;
#X obj 233 356 vd~ \$0pflng1;
#X connect 0 0 3 0;
#X connect 1 0 0 0;
#X connect 2 0 5 0;
#X connect 3 0 2 0;
#X connect 4 0 7 0;
#X connect 5 0 4 0;
#X connect 6 0 9 0;
#X connect 7 0 6 0;
#X connect 8 0 11 0;
#X connect 9 0 8 0;
#X connect 10 0 23 0;
#X connect 11 0 10 0;
#X connect 12 0 1 1;
#X connect 12 0 0 1;
#X connect 12 0 3 1;
#X connect 12 0 2 1;
#X connect 12 0 5 1;
#X connect 12 0 4 1;
#X connect 12 0 7 1;
#X connect 12 0 6 1;
#X connect 12 0 9 1;
#X connect 12 0 8 1;
#X connect 12 0 11 1;
#X connect 12 0 10 1;
#X connect 15 0 17 0;
#X connect 17 0 1 0;
#X connect 18 0 17 1;
#X connect 20 0 18 1;
#X connect 22 0 24 0;
#X connect 24 0 16 0;
#X connect 24 0 18 0;
#X connect 24 0 14 0;
#X restore -54 468 pd stages_delay;
#X obj 125 129 hsl 128 8 0 0.99 0 1 empty empty fb -16 5 0 8 -262144
-1 -1 4200 1;
#X obj 125 139 hsl 128 8 0 24 0 1 empty empty dl -16 5 0 8 -262144
-1 -1 12700 1;
#X obj -66 217 cos~;
#X obj -67 240 +~ 0.5;
#X obj -44 322 +~;
#X obj -70 296 *~;
#X obj 125 149 hsl 128 8 0 16 0 1 empty empty fd -16 5 0 8 -262144
-1 -1 6300 1;
#X connect 0 0 3 0;
#X connect 1 0 6 1;
#X connect 2 0 0 0;
#X connect 2 0 6 0;
#X connect 4 0 5 0;
#X connect 5 0 1 0;
#X connect 5 0 9 0;
#X connect 6 0 0 1;
#X connect 7 0 6 3;
#X connect 8 0 11 1;
#X connect 9 0 10 0;
#X connect 10 0 12 0;
#X connect 11 0 6 2;
#X connect 12 0 11 0;
#X connect 13 0 12 1;
#X coords 0 -1 1 1 160 60 1 100 100;
#X restore 72 306 pd flangephaser1;
#X text -15 -64 gingerbread-hopalong-whatever-fractal \, 3 voice fm
oscs \, effects;
#X connect 0 0 1 0;
#X connect 0 2 11 1;
#X connect 0 2 12 1;
#X connect 0 2 2 0;
#X connect 1 0 4 0;
#X connect 1 0 5 0;
#X connect 1 0 6 0;
#X connect 2 0 4 1;
#X connect 2 0 5 1;
#X connect 2 0 6 1;
#X connect 4 0 10 0;
#X connect 4 1 7 1;
#X connect 5 0 10 1;
#X connect 5 1 8 1;
#X connect 6 0 10 2;
#X connect 6 1 9 1;
#X connect 7 0 16 0;
#X connect 7 0 13 0;
#X connect 7 0 14 0;
#X connect 7 0 15 0;
#X connect 8 0 16 1;
#X connect 8 0 13 1;
#X connect 8 0 14 1;
#X connect 8 0 15 1;
#X connect 9 0 16 2;
#X connect 9 0 13 2;
#X connect 9 0 14 2;
#X connect 9 0 15 2;
#X connect 10 0 7 0;
#X connect 10 1 8 0;
#X connect 10 2 9 0;
#X connect 11 0 16 3;
#X connect 12 0 16 4;
#X connect 13 0 11 0;
#X connect 13 1 11 0;
#X connect 13 2 11 0;
#X connect 14 0 12 0;
#X connect 14 1 12 0;
#X connect 14 2 12 0;
#X connect 15 0 18 0;
#X connect 15 1 18 0;
#X connect 15 2 18 0;
#X connect 16 0 3 0;
#X connect 16 1 3 1;
#X connect 18 0 16 5;
#X restore 56 469 pd melodico1;
#N canvas 91 22 959 752 theremin 0;
#X floatatom 386 344 5 0 0 0 - - -;
#X obj 471 495 env~;
#X floatatom 471 515 5 0 0 0 - - -;
#X floatatom 452 232 5 0 0 0 - - -;
#X obj 452 202 r palm1Y;
#X floatatom 452 284 5 0 0 0 - - -;
#X obj 400 225 vline~;
#X msg 400 177 \$1 4 0 \, 0 800 10;
#X obj 386 409 *~;
#X obj 386 447 compressor~;
#X obj 452 255 autoscale 0 0.2;
#X obj 356 482 clip~ -1 1;
#X obj 386 294 r pitch;
#X obj 386 321 mtof;
#X floatatom 387 270 5 0 0 0 - - -;
#X floatatom -10 376 5 0 0 0 - - -;
#X floatatom 17 394 5 0 0 0 - - -;
#X floatatom 43 421 5 0 0 0 - - -;
#X obj -64 222 abs;
#X floatatom -36 223 5 0 0 0 - - -;
#X floatatom 71 452 5 0 0 0 - - -;
#X floatatom 20 174 5 0 0 0 - - -;
#X floatatom 99 376 5 0 0 0 - - -;
#X floatatom 126 394 5 0 0 0 - - -;
#X floatatom 152 421 5 0 0 0 - - -;
#X floatatom 178 450 5 0 0 0 - - -;
#X obj -64 199 clip -240 0;
#X obj 100 665 s pitch;
#X obj -57 485 sel 1;
#X obj -7 485 sel 2;
#X obj 42 485 sel 3;
#X obj -36 247 expr $f1 \; if ($f1 >= 0 && $f1 <= 30 \, 1 \, 0) \;
if ($f1 >= 33 && $f1 <= 60 \, 2 \, 0) \; if ($f1 >= 63 && $f1 <= 90
\, 3 \, 0) \; if ($f1 >= 93 && $f1 <= 120 \, 4 \, 0) \; if ($f1 >=
123 && $f1 <= 150 \, 5 \, 0) \; if ($f1 >= 153 && $f1 <= 180 \, 6 \,
0) \; if ($f1 >= 183 && $f1 <= 210 \, 7 \, 0) \; if ($f1 >= 213 &&
$f1 <= 240 \, 8 \, 0) \;;
#X msg -57 516 50;
#X obj 82 485 sel 4;
#X obj 123 485 sel 5;
#X obj 173 485 sel 6;
#X obj 222 485 sel 7;
#X obj 262 485 sel 8;
#X obj 386 370 osc~;
#N canvas 260 150 983 667 rezchord1 0;
#X obj -45 -6 inlet~;
#X obj 329 27 inlet;
#X obj -11 204 throw~ rcb;
#X obj -10 258 throw~ rcb;
#X obj -8 330 throw~ rcb;
#X obj 235 517 outlet~;
#X obj 235 491 catch~ rcb;
#N canvas 0 22 839 747 reson1 0;
#X obj 31 159 inlet~;
#X obj 244 412 outlet~;
#X obj 203 611 +~;
#X obj 239 586 *~;
#X obj 106 149 hsl 96 8 0.5 0.99 0 1 empty empty empty -2 -6 0 8 -262144
-1 -1 9200 1;
#X obj 170 70 block~ 1;
#X obj 105 117 hsl 111 8 10 120 0 1 empty empty empty -2 -6 0 8 -262144
-1 -1 2900 0;
#X obj 355 374 lop~;
#X obj 105 133 hsl 128 8 63 127 0 1 empty empty empty -2 -6 0 8 -262144
-1 -1 12700 1;
#X obj 387 347 mtof;
#X floatatom 219 116 3 0 0 0 - - -;
#X obj 336 275 mtof;
#X msg 293 264 1000;
#X obj 312 306 /;
#X text 243 114 pitch;
#X text 239 131 damp;
#X text 208 145 fb;
#X obj 313 208 +;
#X obj 370 28 inlet;
#X msg 299 58 bang;
#X obj 232 147 tgl 10 1 empty empty empty 0 -6 0 8 -262144 -1 -1 0
2;
#X obj 235 186 - 1;
#X obj 348 440 *~;
#X text 246 144 mode;
#X obj 203 665 delwrite~ resa 100;
#X obj 304 339 vd~ resa;
#X connect 0 0 2 0;
#X connect 2 0 24 0;
#X connect 3 0 2 1;
#X connect 4 0 3 1;
#X connect 6 0 10 0;
#X connect 7 0 22 0;
#X connect 8 0 9 0;
#X connect 9 0 7 1;
#X connect 10 0 17 0;
#X connect 10 0 12 0;
#X connect 11 0 13 1;
#X connect 12 0 13 0;
#X connect 13 0 25 0;
#X connect 17 0 11 0;
#X connect 18 0 19 0;
#X connect 18 0 17 1;
#X connect 19 0 10 0;
#X connect 20 0 21 0;
#X connect 21 0 22 1;
#X connect 22 0 3 0;
#X connect 25 0 1 0;
#X connect 25 0 7 0;
#X coords 0 -1 1 1 180 60 1 100 100;
#X restore 127 114 pd reson1;
#N canvas 0 22 573 720 reson2 0;
#X obj 31 159 inlet~;
#X obj 244 412 outlet~;
#X obj 203 611 +~;
#X obj 239 586 *~;
#X obj 106 149 hsl 96 8 0.5 0.99 0 1 empty empty empty -2 -6 0 8 -262144
-1 -1 9200 1;
#X obj 170 70 block~ 1;
#X obj 105 117 hsl 111 8 10 120 0 1 empty empty empty -2 -6 0 8 -262144
-1 -1 6400 0;
#X obj 355 374 lop~;
#X obj 105 133 hsl 128 8 63 127 0 1 empty empty empty -2 -6 0 8 -262144
-1 -1 12400 1;
#X obj 387 347 mtof;
#X floatatom 219 116 3 0 0 0 - - -;
#X obj 336 275 mtof;
#X msg 293 264 1000;
#X obj 312 306 /;
#X text 243 114 pitch;
#X text 239 131 damp;
#X text 208 145 fb;
#X obj 313 208 +;
#X obj 370 28 inlet;
#X msg 299 58 bang;
#X obj 232 147 tgl 10 1 empty empty empty 0 -6 0 8 -262144 -1 -1 0
2;
#X obj 235 186 - 1;
#X obj 348 440 *~;
#X text 246 144 mode;
#X obj 202 664 delwrite~ resb 100;
#X obj 304 340 vd~ resb;
#X connect 0 0 2 0;
#X connect 2 0 24 0;
#X connect 3 0 2 1;
#X connect 4 0 3 1;
#X connect 6 0 10 0;
#X connect 7 0 22 0;
#X connect 8 0 9 0;
#X connect 9 0 7 1;
#X connect 10 0 17 0;
#X connect 10 0 12 0;
#X connect 11 0 13 1;
#X connect 12 0 13 0;
#X connect 13 0 25 0;
#X connect 17 0 11 0;
#X connect 18 0 19 0;
#X connect 18 0 17 1;
#X connect 19 0 10 0;
#X connect 20 0 21 0;
#X connect 21 0 22 1;
#X connect 22 0 3 0;
#X connect 25 0 1 0;
#X connect 25 0 7 0;
#X coords 0 -1 1 1 180 60 1 100 100;
#X restore 127 181 pd reson2;
#N canvas 0 22 546 685 reson3 0;
#X obj 31 159 inlet~;
#X obj 244 412 outlet~;
#X obj 203 611 +~;
#X obj 239 586 *~;
#X obj 106 149 hsl 96 8 0.5 0.99 0 1 empty empty empty -2 -6 0 8 -262144
-1 -1 9100 1;
#X obj 170 70 block~ 1;
#X obj 105 117 hsl 111 8 10 120 0 1 empty empty empty -2 -6 0 8 -262144
-1 -1 7300 0;
#X obj 355 374 lop~;
#X obj 105 133 hsl 128 8 63 127 0 1 empty empty empty -2 -6 0 8 -262144
-1 -1 12400 1;
#X obj 387 347 mtof;
#X floatatom 219 116 3 0 0 0 - - -;
#X obj 336 275 mtof;
#X msg 293 264 1000;
#X obj 312 306 /;
#X text 243 114 pitch;
#X text 239 131 damp;
#X text 208 145 fb;
#X obj 313 208 +;
#X obj 370 28 inlet;
#X msg 299 58 bang;
#X obj 232 147 tgl 10 1 empty empty empty 0 -6 0 8 -262144 -1 -1 0
2;
#X obj 235 186 - 1;
#X obj 348 440 *~;
#X text 246 144 mode;
#X obj 304 342 vd~ resc;
#X obj 203 663 delwrite~ resc 100;
#X connect 0 0 2 0;
#X connect 2 0 25 0;
#X connect 3 0 2 1;
#X connect 4 0 3 1;
#X connect 6 0 10 0;
#X connect 7 0 22 0;
#X connect 8 0 9 0;
#X connect 9 0 7 1;
#X connect 10 0 17 0;
#X connect 10 0 12 0;
#X connect 11 0 13 1;
#X connect 12 0 13 0;
#X connect 13 0 24 0;
#X connect 17 0 11 0;
#X connect 18 0 19 0;
#X connect 18 0 17 1;
#X connect 19 0 10 0;
#X connect 20 0 21 0;
#X connect 21 0 22 1;
#X connect 22 0 3 0;
#X connect 24 0 1 0;
#X connect 24 0 7 0;
#X coords 0 -1 1 1 180 60 1 100 100;
#X restore 127 248 pd reson3;
#X obj 104 203 vsl 8 128 0 127 0 1 empty empty empty 0 -8 0 8 -262144
-1 -1 8100 1;
#X obj 29 56 mtof;
#X obj 110 117 vsl 8 56 0.05 0.3 0 1 empty empty empty 0 -8 0 8 -262144
-1 -1 5500 1;
#X obj -39 20 *~;
#X obj 116 203 vsl 8 128 0 127 0 1 empty empty empty 0 -8 0 8 -262144
-1 -1 2300 1;
#X obj 24 118 mtof;
#X obj -8 397 throw~ rcb;
#N canvas 0 22 546 685 reson4 0;
#X obj 31 159 inlet~;
#X obj 244 412 outlet~;
#X obj 203 611 +~;
#X obj 239 586 *~;
#X obj 106 149 hsl 96 8 0.5 0.99 0 1 empty empty empty -2 -6 0 8 -262144
-1 -1 9300 1;
#X obj 170 70 block~ 1;
#X obj 105 117 hsl 111 8 10 120 0 1 empty empty empty -2 -6 0 8 -262144
-1 -1 11000 0;
#X obj 355 374 lop~;
#X obj 105 133 hsl 128 8 63 127 0 1 empty empty empty -2 -6 0 8 -262144
-1 -1 12700 1;
#X obj 387 347 mtof;
#X floatatom 219 116 3 0 0 0 - - -;
#X obj 336 275 mtof;
#X msg 293 264 1000;
#X obj 312 306 /;
#X text 243 114 pitch;
#X text 239 131 damp;
#X text 208 145 fb;
#X obj 313 208 +;
#X obj 370 28 inlet;
#X msg 299 58 bang;
#X obj 232 147 tgl 10 1 empty empty empty 0 -6 0 8 -262144 -1 -1 0
2;
#X obj 235 186 - 1;
#X obj 348 440 *~;
#X text 246 144 mode;
#X obj 203 662 delwrite~ resd 100;
#X obj 303 342 vd~ resd;
#X connect 0 0 2 0;
#X connect 2 0 24 0;
#X connect 3 0 2 1;
#X connect 4 0 3 1;
#X connect 6 0 10 0;
#X connect 7 0 22 0;
#X connect 8 0 9 0;
#X connect 9 0 7 1;
#X connect 10 0 17 0;
#X connect 10 0 12 0;
#X connect 11 0 13 1;
#X connect 12 0 13 0;
#X connect 13 0 25 0;
#X connect 17 0 11 0;
#X connect 18 0 19 0;
#X connect 18 0 17 1;
#X connect 19 0 10 0;
#X connect 20 0 21 0;
#X connect 21 0 22 1;
#X connect 22 0 3 0;
#X connect 25 0 1 0;
#X connect 25 0 7 0;
#X coords 0 -1 1 1 180 60 1 100 100;
#X restore 127 315 pd reson4;
#X obj -26 96 lop~;
#X obj -12 139 hip~;
#X connect 0 0 13 0;
#X connect 1 0 7 1;
#X connect 1 0 8 1;
#X connect 1 0 9 1;
#X connect 1 0 17 1;
#X connect 6 0 5 0;
#X connect 7 0 2 0;
#X connect 8 0 3 0;
#X connect 9 0 4 0;
#X connect 10 0 11 0;
#X connect 11 0 18 1;
#X connect 12 0 13 1;
#X connect 13 0 18 0;
#X connect 14 0 15 0;
#X connect 15 0 19 1;
#X connect 17 0 16 0;
#X connect 18 0 19 0;
#X connect 19 0 7 0;
#X connect 19 0 8 0;
#X connect 19 0 9 0;
#X connect 19 0 17 0;
#X coords 0 -1 1 1 210 280 1 100 100;
#X restore 515 368 pd rezchord1;
#X obj 396 597 compressor~;
#X msg -7 516 52;
#X obj 378 510 freeverb~;
#X obj 306 407 compressor~;
#X obj 276 442 clip~ -1 1;
#X msg 42 516 55;
#X msg 262 516 67;
#X msg 173 516 62;
#X msg 222 516 64;
#X msg 82 516 57;
#X msg 123 516 59;
#X obj 474 677 s theremin-amp;
#X obj 519 337 loadbang;
#X obj 246 578 throw~ theremin-l;
#X obj 246 598 throw~ theremin-r;
#X msg 250 387 1;
#N canvas 0 23 450 300 delay 0;
#X obj 109 50 inlet~;
#X obj 108 231 outlet~;
#X obj 108 124 +~;
#X obj 148 209 delwrite~ dline001 2000;
#X obj 166 106 delread~ dline001 500;
#X obj 166 52 inlet;
#X obj 223 52 inlet;
#X obj 148 185 *~;
#X obj 223 129 expr max(min($f1 \, 0.999) \, -0.999);
#X obj 166 82 expr min($f1 \, 2000);
#X connect 0 0 2 0;
#X connect 2 0 1 0;
#X connect 2 0 7 0;
#X connect 4 0 2 1;
#X connect 5 0 9 0;
#X connect 6 0 8 0;
#X connect 7 0 3 0;
#X connect 8 0 7 1;
#X connect 9 0 4 0;
#X restore 216 640 pd delay;
#X floatatom 277 694 5 0 0 0 - - -;
#X floatatom 276 655 5 -1 1 0 - - -;
#X obj 280 682 hsl 32 8 0 1999 0 0 empty empty empty -2 -8 0 10 -4034
-1 -1 0 1;
#X obj 279 643 hsl 32 8 0 0.99 0 0 empty empty empty -2 -8 0 10 -4032
-1 -1 0 1;
#X text 319 637 delay amount;
#X text 320 676 delay time;
#X obj 180 680 env~;
#X floatatom 222 680 5 0 0 0 - - -;
#X obj 415 621 r palm1Z;
#X floatatom 415 673 5 0 0 0 - - -;
#X obj 416 698 autoscale 0 0.8;
#X obj 416 722 line;
#X obj 415 643 * -1;
#X msg 449 428 1;
#X msg 459 578 1;
#X obj -64 154 r palm1X;
#X connect 0 0 38 0;
#X connect 1 0 2 0;
#X connect 2 0 51 0;
#X connect 3 0 10 0;
#X connect 4 0 3 0;
#X connect 5 0 7 0;
#X connect 6 0 8 1;
#X connect 7 0 6 0;
#X connect 8 0 9 0;
#X connect 8 0 43 0;
#X connect 9 0 11 0;
#X connect 10 0 5 0;
#X connect 11 0 42 0;
#X connect 12 0 13 0;
#X connect 12 0 14 0;
#X connect 13 0 0 0;
#X connect 15 0 28 0;
#X connect 16 0 29 0;
#X connect 17 0 30 0;
#X connect 18 0 19 0;
#X connect 19 0 31 0;
#X connect 20 0 33 0;
#X connect 21 0 26 0;
#X connect 22 0 34 0;
#X connect 23 0 35 0;
#X connect 24 0 36 0;
#X connect 25 0 37 0;
#X connect 26 0 18 0;
#X connect 28 0 32 0;
#X connect 29 0 41 0;
#X connect 30 0 45 0;
#X connect 31 1 15 0;
#X connect 31 2 16 0;
#X connect 31 3 17 0;
#X connect 31 4 20 0;
#X connect 31 5 22 0;
#X connect 31 6 23 0;
#X connect 31 7 24 0;
#X connect 31 8 25 0;
#X connect 32 0 27 0;
#X connect 33 0 49 0;
#X connect 34 0 50 0;
#X connect 35 0 47 0;
#X connect 36 0 48 0;
#X connect 37 0 46 0;
#X connect 38 0 8 0;
#X connect 39 0 40 0;
#X connect 40 0 54 0;
#X connect 40 0 53 0;
#X connect 40 0 56 0;
#X connect 41 0 27 0;
#X connect 42 0 1 0;
#X connect 42 0 53 0;
#X connect 42 1 54 0;
#X connect 43 0 44 0;
#X connect 44 0 39 0;
#X connect 45 0 27 0;
#X connect 46 0 27 0;
#X connect 47 0 27 0;
#X connect 48 0 27 0;
#X connect 49 0 27 0;
#X connect 50 0 27 0;
#X connect 52 0 70 0;
#X connect 52 0 55 0;
#X connect 52 0 71 0;
#X connect 55 0 43 1;
#X connect 56 0 63 0;
#X connect 56 0 53 0;
#X connect 56 0 54 0;
#X connect 59 0 57 0;
#X connect 59 0 56 1;
#X connect 60 0 58 0;
#X connect 60 0 56 2;
#X connect 63 0 64 0;
#X connect 65 0 69 0;
#X connect 66 0 67 0;
#X connect 67 0 68 0;
#X connect 68 0 60 0;
#X connect 69 0 66 0;
#X connect 70 0 9 1;
#X connect 71 0 40 1;
#X connect 72 0 21 0;
#X connect 72 0 26 0;
#X restore 56 503 pd theremin;
#N canvas 326 50 847 595 elements 0;
#X obj 575 61 readsf~ 2;
#X obj 525 322 bng 15 250 50 0 play-buzz empty empty 17 7 0 10 -262144
-1 -1;
#X msg 250 320 start;
#X obj 473 279 del 10;
#X msg 519 279 open 15.wav;
#X obj 573 90 dac~;
#X obj 623 126 compressor~;
#X obj 523 130 compressor~;
#X obj 624 92 *~ 0.7;
#X obj 574 92 *~ 0.7;
#X obj 633 373 bng 15 250 50 0 play-buzz2 empty empty 17 7 0 10 -262144
-1 -1;
#X msg 599 279 open d13.wav;
#X obj 693 316 bng 15 250 50 0 play-buzz4 empty empty 17 7 0 10 -262144
-1 -1;
#X msg 689 279 open 16.wav;
#X obj 601 256 bng 15 250 50 0 play-buzz3 empty empty 17 7 0 10 -262144
-1 -1;
#X obj -54 232 abs;
#X floatatom 45 224 5 0 0 0 - - -;
#X floatatom 30 184 5 0 0 0 - - -;
#X floatatom 131 501 5 0 0 0 - - -;
#X floatatom 175 500 5 0 0 0 - - -;
#X floatatom 232 500 5 0 0 0 - - -;
#X floatatom 288 498 5 0 0 0 - - -;
#X obj 128 540 sel 1;
#X obj 288 540 sel 4;
#X obj 238 540 sel 3;
#X obj 188 540 sel 2;
#X floatatom 164 185 5 0 0 0 - - -;
#X obj -20 232 int;
#X obj 253 215 int;
#X obj -54 209 clip -290 0;
#X obj 571 517 spigot;
#X obj 616 519 tgl 15 0 empty empty empty 17 7 0 10 -262144 -1 -1 0
1;
#X obj 457 414 tgl 15 0 empty empty empty 17 7 0 10 -262144 -1 -1 1
1;
#X obj 572 541 spigot;
#X obj 617 543 tgl 15 0 empty empty empty 17 7 0 10 -262144 -1 -1 0
1;
#X obj 571 467 spigot;
#X obj 616 469 tgl 15 0 empty empty empty 17 7 0 10 -262144 -1 -1 0
1;
#X obj 572 491 spigot;
#X obj 617 493 tgl 15 0 empty empty empty 17 7 0 10 -262144 -1 -1 0
1;
#X obj -40 256 expr $f1 \; $f2 \; if ($f2 >= 1 && $f2 <= 100 \, 1 \,
0) \; if ($f2 >= 103 && $f2 <= 200 \, 2 \, 0) \; if ($f2 >= 203 &&
$f2 <= 300 \, 3 \, 0) \; if ($f2 >= 303 && $f2 <= 400 \, 4 \, 0) \;
;
#X obj 163 213 clip 0 500;
#X msg 457 461 1;
#X msg 505 487 0;
#X obj 447 496 del 50;
#X msg 601 231 open d15.wav;
#X obj 456 434 metro 1000;
#X msg 686 107 1.5;
#X msg 586 111 1.5;
#X obj 164 161 r palm3Y;
#X obj -54 164 r palm3X;
#X obj 453 361 loadbang;
#X connect 0 0 9 0;
#X connect 0 1 8 0;
#X connect 1 0 3 0;
#X connect 1 0 4 0;
#X connect 2 0 0 0;
#X connect 3 0 2 0;
#X connect 4 0 0 0;
#X connect 6 0 5 1;
#X connect 7 0 5 0;
#X connect 8 0 6 0;
#X connect 9 0 7 0;
#X connect 10 0 11 0;
#X connect 10 0 3 0;
#X connect 11 0 0 0;
#X connect 12 0 13 0;
#X connect 12 0 3 0;
#X connect 13 0 0 0;
#X connect 14 0 44 0;
#X connect 14 0 3 0;
#X connect 15 0 27 0;
#X connect 16 0 39 0;
#X connect 17 0 29 0;
#X connect 18 0 22 0;
#X connect 19 0 25 0;
#X connect 20 0 24 0;
#X connect 21 0 23 0;
#X connect 22 0 35 0;
#X connect 23 0 33 0;
#X connect 24 0 30 0;
#X connect 25 0 37 0;
#X connect 26 0 40 0;
#X connect 27 0 16 0;
#X connect 28 0 39 1;
#X connect 29 0 15 0;
#X connect 30 0 14 0;
#X connect 31 0 30 1;
#X connect 32 0 45 0;
#X connect 33 0 12 0;
#X connect 34 0 33 1;
#X connect 35 0 1 0;
#X connect 36 0 35 1;
#X connect 37 0 10 0;
#X connect 38 0 37 1;
#X connect 39 2 18 0;
#X connect 39 3 19 0;
#X connect 39 4 20 0;
#X connect 39 5 21 0;
#X connect 40 0 28 0;
#X connect 41 0 31 0;
#X connect 41 0 38 0;
#X connect 41 0 36 0;
#X connect 41 0 34 0;
#X connect 42 0 31 0;
#X connect 42 0 38 0;
#X connect 42 0 36 0;
#X connect 42 0 34 0;
#X connect 43 0 42 0;
#X connect 44 0 0 0;
#X connect 45 0 41 0;
#X connect 45 0 43 0;
#X connect 46 0 6 1;
#X connect 47 0 7 1;
#X connect 48 0 26 0;
#X connect 49 0 17 0;
#X connect 49 0 29 0;
#X connect 50 0 32 0;
#X restore 59 536 pd elements;
#X restore 472 128 pd audio;
#X obj -175 -56 cnv 15 620 170 empty empty HANDS____1_____________2___________3____________4
0 12 1 20 -169178 -262144 0;
#X obj -61 -11 nbx 6 18 -1e+37 1e+37 0 0 empty palm1X X 0 -8 1 18 -204786
-258113 -262144 0 256;
#X obj -61 29 nbx 6 18 -1e+37 1e+37 0 0 empty palm1Y Y 0 -8 1 18 -204786
-258113 -262144 0 256;
#X obj -61 69 nbx 6 18 -1e+37 1e+37 0 0 empty palm1Z Z 0 -8 1 18 -204786
-258113 -262144 0 256;
#X obj -175 -20 nbx 2 25 -1e+37 1e+37 0 0 empty hand-ammount empty
0 -8 1 25 -204786 -258113 -258113 0 256;
#X obj 95 -13 nbx 6 18 -1e+37 1e+37 0 0 empty palm2X X 0 -8 1 18 -204786
-258113 -262144 0 256;
#X obj 95 27 nbx 6 18 -1e+37 1e+37 0 0 empty palm2Y Y 0 -8 1 18 -204786
-258113 -262144 0 256;
#X obj 95 67 nbx 6 18 -1e+37 1e+37 0 0 empty palm2Z Z 0 -8 1 18 -204786
-258113 -262144 0 256;
#X obj 227 -13 nbx 3 18 -1e+37 1e+37 0 0 empty palm3X X 0 -8 1 18 -204786
-258113 -262144 0 256;
#X obj 227 27 nbx 3 18 -1e+37 1e+37 0 0 empty palm3Y Y 0 -8 1 18 -204786
-258113 -262144 0 256;
#X obj 227 67 nbx 3 18 -1e+37 1e+37 0 0 empty palm3Z Z 0 -8 1 18 -204786
-258113 -262144 0 256;
#X obj 372 -11 nbx 3 18 -1e+37 1e+37 0 0 empty palm4X X 0 -8 1 18 -204786
-258113 -262144 0 256;
#X obj 373 29 nbx 3 18 -1e+37 1e+37 0 0 empty palm4Y Y 0 -8 1 18 -204786
-258113 -262144 0 256;
#X obj 373 69 nbx 3 18 -1e+37 1e+37 0 0 empty palm4Z Z 0 -8 1 18 -204786
-258113 -262144 0 256;
#X obj -175 94 clock;
#X obj 447 -56 cnv 15 225 170 empty empty empty 20 12 0 14 -33289 -66577
0;
#X obj 446 -56 cnv 15 64 170 empty empty empty 20 12 0 14 -232576 -66577
0;
#X obj 445 -41 vsl 15 114 0 1 0 0 empty empty MASTER 0 -9 1 10 -4032
-1 -1 6300 1;
#X obj 510 59 dac~;
#N canvas 616 22 450 300 master 0;
#X obj -1587 240 outlet~;
#X obj -1855 240 outlet~;
#X obj -1853 56 catch~ grid-l;
#X obj -1588 55 catch~ grid-r;
#X obj -1853 85 catch~ theremin-l;
#X obj -1587 88 catch~ theremin-r;
#X connect 2 0 1 0;
#X connect 3 0 0 0;
#X connect 4 0 1 0;
#X connect 5 0 0 0;
#X restore 511 -56 pd master;
#X obj 531 -16 *~;
#X obj 510 6 *~;
#X obj 466 9 line~;
#X msg 464 36 \$1 50;
#X obj 542 42 env~;
#X obj 510 36 env~;
#X obj 584 -22 vsl 8 85 0 127 0 0 empty empty empty 0 -9 0 10 -228856
-4034 -1 0 1;
#X obj 594 -22 vsl 8 85 0 127 0 0 empty empty empty 0 -9 0 10 -228856
-4034 -1 0 1;
#X text 636 25 /////;
#X obj 611 29 nbx 5 14 -1e+37 1e+37 0 0 empty empty CPU/// 0 -8 2 10
-258113 -262144 -228856 14.1 256;
#X obj 611 -7 tgl 20 0 empty empty DSP_ON/OFF 17 7 1 10 -4032 -1 -258113
1 1;
#X obj 612 -32 dsp;
#X obj -175 115 cnv 15 620 60 empty empty PANEL 0 12 1 14 -86277 -262144
0;
#N canvas 648 331 450 300 gemwin 0;
#X obj 166 23 gemhead 999;
#X obj 166 50 syphonserver name;
#X obj -161 150 gemwin;
#X msg -112 197 destroy \, 0;
#X msg -112 129 fullscreen 2;
#X obj -107 7 inlet;
#X obj -97 27 inlet;
#X obj -87 47 inlet;
#X obj -77 67 inlet;
#X obj -42 8 inlet;
#X msg -112 175 FSAA 4 \, frame 30 \, create \, 1;
#X msg -112 151 dimen 1280 720;
#X connect 0 0 1 0;
#X connect 3 0 2 0;
#X connect 4 0 2 0;
#X connect 5 0 3 0;
#X connect 6 0 10 0;
#X connect 7 0 11 0;
#X connect 9 0 4 0;
#X connect 10 0 2 0;
#X connect 11 0 2 0;
#X restore -175 157 pd gemwin;
#X obj -97 117 bng 15 250 50 0 empty empty destroy 17 7 1 10 -258113
-1 -262144;
#X obj -97 134 bng 15 250 50 0 empty empty create 17 7 1 10 -4034 -1
-262144;
#X obj -97 153 bng 15 250 50 0 empty empty dimen_1920x1080 17 7 1 10
-257985 -1 -262144;
#X obj 35 116 bng 15 250 50 0 empty empty fullscreen_2 17 7 1 10 -257985
-1 -262144;
#X obj 35 152 tgl 15 0 empty empty world_light 17 7 1 10 -203904 -1
-262144 0 1;
#X obj 35 134 bng 15 250 50 0 empty empty lighting 17 7 1 10 -257985
-1 -262144;
#N canvas 517 264 297 359 network 0;
#X floatatom 98 118 5 0 0 0 - - -;
#X floatatom 4 118 5 0 0 0 - - -;
#X floatatom 46 117 5 0 0 0 - - -;
#X obj 165 63 print;
#X obj 4 144 s palm3X;
#X obj 46 165 s palm3Y;
#X obj 97 191 s palm3Z;
#X floatatom 238 118 5 0 0 0 - - -;
#X floatatom 144 118 5 0 0 0 - - -;
#X floatatom 186 117 5 0 0 0 - - -;
#X obj 144 144 s palm4X;
#X obj 186 168 s palm4Y;
#X obj 238 203 s palm4Z;
#X obj 20 65 unpack f f f f f f f;
#X floatatom 172 25 5 0 0 0 - - -;
#X obj 20 38 netreceive 3000;
#X connect 0 0 6 0;
#X connect 1 0 4 0;
#X connect 2 0 5 0;
#X connect 7 0 12 0;
#X connect 8 0 10 0;
#X connect 9 0 11 0;
#X connect 13 0 1 0;
#X connect 13 1 2 0;
#X connect 13 2 0 0;
#X connect 13 3 8 0;
#X connect 13 4 9 0;
#X connect 13 5 7 0;
#X connect 15 0 13 0;
#X connect 15 0 14 0;
#X restore 149 117 pd network;
#X connect 20 0 26 0;
#X connect 22 0 24 0;
#X connect 22 1 23 0;
#X connect 23 0 21 1;
#X connect 23 0 27 0;
#X connect 24 0 28 0;
#X connect 24 0 21 0;
#X connect 25 0 24 1;
#X connect 25 0 23 1;
#X connect 26 0 25 0;
#X connect 27 0 30 0;
#X connect 28 0 29 0;
#X connect 33 0 34 0;
#X connect 34 0 32 0;
#X connect 37 0 36 0;
#X connect 38 0 36 1;
#X connect 39 0 36 2;
#X connect 40 0 36 3;
#X connect 42 0 36 4;
