#N canvas 338 392 843 441 10;
#X declare -lib mrpeach;
#X floatatom 490 224 5 0 0 0 - - -;
#X obj 490 156 dumpOSC 9998;
#X obj 28 133 import mrpeach;
#X msg 1 260 connect localhost 12345;
#X obj 156 310 sendOSC;
#X msg 3 282 disconnect;
#X msg 183 248 send /palm/Y \$1;
#X msg 186 214 send /palm/X \$1;
#X msg 757 225 send /palm/Z \$1;
#X msg 490 300 send /palm2/Y \$1;
#X obj 490 197 routeOSC /palm/X;
#X floatatom 600 224 5 0 0 0 - - -;
#X floatatom 710 224 5 0 0 0 - - -;
#X obj 600 197 routeOSC /palm/Y;
#X obj 710 197 routeOSC /palm/Z;
#X floatatom 490 274 5 0 0 0 - - -;
#X obj 490 247 routeOSC /palm2/Y;
#X floatatom 610 274 5 0 0 0 - - -;
#X obj 610 247 routeOSC /hand/amount;
#X floatatom 156 340 5 0 0 0 - - -;
#X msg 609 298 send /hand/amount \$1;
#X connect 0 0 7 0;
#X connect 1 0 10 0;
#X connect 1 0 16 0;
#X connect 1 0 13 0;
#X connect 1 0 18 0;
#X connect 1 0 14 0;
#X connect 3 0 4 0;
#X connect 4 0 19 0;
#X connect 5 0 4 0;
#X connect 6 0 4 0;
#X connect 7 0 4 0;
#X connect 8 0 4 0;
#X connect 9 0 4 0;
#X connect 10 0 0 0;
#X connect 11 0 6 0;
#X connect 12 0 8 0;
#X connect 13 0 11 0;
#X connect 14 0 12 0;
#X connect 15 0 9 0;
#X connect 16 0 15 0;
#X connect 17 0 20 0;
#X connect 18 0 17 0;
#X connect 20 0 4 0;
