#N canvas 197 22 1158 752 10;
#X obj -52 154 mtof;
#X obj -52 130 nbx 5 14 -1e+37 1e+37 0 1 empty empty empty 0 -8 0 10
-262144 -1 -1 52 256;
#X obj 937 154 mtof;
#X obj 937 130 nbx 5 14 -1e+37 1e+37 0 1 empty empty empty 0 -8 0 10
-262144 -1 -1 52 256;
#X obj 58 154 mtof;
#X obj 58 130 nbx 5 14 -1e+37 1e+37 0 1 empty empty empty 0 -8 0 10
-262144 -1 -1 52 256;
#X obj 168 154 mtof;
#X obj 168 130 nbx 5 14 -1e+37 1e+37 0 1 empty empty empty 0 -8 0 10
-262144 -1 -1 52 256;
#X obj 278 154 mtof;
#X obj 278 130 nbx 5 14 -1e+37 1e+37 0 1 empty empty empty 0 -8 0 10
-262144 -1 -1 52 256;
#X obj 387 154 mtof;
#X obj 388 115 nbx 5 14 -1e+37 1e+37 0 1 empty empty empty 0 -8 0 10
-262144 -1 -1 52 256;
#X obj 498 154 mtof;
#X obj 499 118 nbx 5 14 -1e+37 1e+37 0 1 empty empty empty 0 -8 0 10
-262144 -1 -1 52 256;
#X obj 610 133 mtof;
#X obj 608 115 nbx 5 14 -1e+37 1e+37 0 1 empty empty empty 0 -8 0 10
-262144 -1 -1 52 256;
#X obj 718 154 mtof;
#X obj 718 130 nbx 5 14 -1e+37 1e+37 0 1 empty empty empty 0 -8 0 10
-262144 -1 -1 52 256;
#X obj 828 154 mtof;
#X obj 828 130 nbx 5 14 -1e+37 1e+37 0 1 empty empty empty 0 -8 0 10
-262144 -1 -1 52 256;
#X obj 255 48 snapshot~;
#X obj 183 -82 +~ 1;
#X obj 121 -108 loadbang;
#X obj 121 -82 metro 50;
#X obj 145 104 stream~ 18000 50;
#X obj 183 -108 osc~ 0.05;
#X obj 342 -82 until;
#X msg 342 -134 10;
#X obj 342 -4 i;
#X obj 374 -4 + 1;
#X obj 342 -108 t f b;
#X obj 342 22 pack f f;
#X obj 342 48 route 1 2 3 4 5 6 7 8 9 10;
#X msg 357 -30 1;
#N canvas 0 22 450 300 (subpatch) 0;
#X array scale 70 float 3;
#A 0 7 10 10 12 5 11 12 11 11 8 7 11 9 12 9 5 9 16 15 5 6 10 11 1 6
9 12 9 10 2 1 4 2 0 0 0 6 12 6 1 10 12 1 10 9 2 2 5 9 5 4 3 4 12 11
6 7 8 12 9 6 4 3 5 5 11 14 12 3 7;
#X coords 0 12 70 0 200 140 1 0 0;
#X restore 498 -134 graph;
#X obj 406 -108 tabread scale;
#X obj 342 -56 t b b b;
#X obj 406 -4 +;
#X obj 202 467 hsl 128 15 0 1 0 1 empty empty empty -2 -8 0 10 -262144
-1 -1 11900 1;
#X obj 365 207 autopan;
#X obj 421 -30 + 36;
#X obj 421 -56 * 12;
#X obj 421 -82 random 3;
#X obj -74 389 lop~;
#X obj -74 415 lop~;
#X obj -74 441 hip~;
#X obj -74 467 hip~;
#X obj 127 467 hip~;
#X obj 127 441 hip~;
#X obj 127 415 lop~;
#X obj 127 389 lop~;
#X obj -75 104 stream~ 19500 44;
#X obj 695 104 stream~ 15500 60;
#X obj 585 104 stream~ 16000 58;
#X obj 475 104 stream~ 16500 56;
#X obj 365 104 stream~ 17000 54;
#X obj 255 104 stream~ 17500 52;
#X obj 35 104 stream~ 18500 48;
#X obj 915 104 stream~ 19000 46;
#X obj 805 104 stream~ 20000 42;
#X obj -74 207 autopan;
#X obj 36 207 autopan;
#X obj 146 207 autopan;
#X obj 256 207 autopan;
#X obj 476 207 autopan;
#X obj 585 207 autopan;
#X obj 696 207 autopan;
#X obj 806 207 autopan;
#X obj 915 207 autopan;
#X obj 183 -56 *~ 500;
#X obj 251 -108 random 2;
#X obj 251 -82 sel 0 1;
#X obj 270 -4 line;
#X obj 255 22 +~;
#X msg 251 -30 3000 5000;
#X msg 270 -56 50 5000;
#X obj -74 311 catch~ \$0-l_fx;
#X obj 127 311 catch~ \$0-r_fx;
#X obj -74 233 throw~ \$0-l_fx;
#X obj 36 233 throw~ \$0-l_fx;
#X obj 146 233 throw~ \$0-l_fx;
#X obj 256 233 throw~ \$0-l_fx;
#X obj 365 233 throw~ \$0-l_fx;
#X obj 476 233 throw~ \$0-l_fx;
#X obj 585 233 throw~ \$0-l_fx;
#X obj 696 233 throw~ \$0-l_fx;
#X obj 806 233 throw~ \$0-l_fx;
#X obj 915 233 throw~ \$0-l_fx;
#X obj -35 259 throw~ \$0-r_fx;
#X obj 75 259 throw~ \$0-r_fx;
#X obj 185 259 throw~ \$0-r_fx;
#X obj 295 259 throw~ \$0-r_fx;
#X obj 404 259 throw~ \$0-r_fx;
#X obj 515 259 throw~ \$0-r_fx;
#X obj 624 259 throw~ \$0-r_fx;
#X obj 735 259 throw~ \$0-r_fx;
#X obj 845 259 throw~ \$0-r_fx;
#X obj 954 259 throw~ \$0-r_fx;
#X obj 351 445 osc~;
#X obj 351 367 vline~;
#X obj 351 315 * 4;
#X obj 351 393 +~;
#X obj 411 367 *~;
#X msg 351 341 \$1 2500;
#X obj 411 315 osc~ 1864;
#X obj 482 445 osc~;
#X obj 482 367 vline~;
#X obj 482 315 * 4;
#X obj 482 393 +~;
#X obj 426 341 *~ 2000;
#X obj 127 363 *~;
#X obj -74 363 *~;
#X obj 476 180 vcf~ 800;
#X obj -74 180 vcf~ 300;
#X obj 36 180 vcf~ 400;
#X obj 146 180 vcf~ 500;
#X obj 256 180 vcf~ 600;
#X obj 365 180 vcf~ 700;
#X obj 585 180 vcf~ 300;
#X obj 696 180 vcf~ 400;
#X obj 806 180 vcf~ 500;
#X obj 915 180 vcf~ 600;
#X obj 142 285 min 500;
#X obj 142 337 / 500;
#X obj 83 549 *~ 24;
#X obj 39 549 *~ 24;
#X obj 127 493 *~ 3;
#X obj -74 493 *~ 3;
#X obj 351 419 +~;
#X obj 482 419 +~;
#X obj 411 393 osc~ 4;
#X obj 411 419 *~ 30;
#X msg 482 341 \$1 2000;
#X obj 351 471 *~ 8e-06;
#X obj 482 471 *~ 8e-06;
#X obj -74 605 master;
#X obj 555 581 cnv 15 67 96 empty empty empty 20 12 0 14 -3707 -66577
0;
#X obj 759 526 inlet~;
#X obj 732 642 *~;
#X obj 807 553 osc~;
#X obj 807 597 +~ 1;
#X obj 878 596 line~;
#X obj 807 575 *~;
#X msg 878 572 \$1 20;
#X obj 557 600 vsl 30 64 0 127 0 0 empty empty empty 0 -9 0 10 -66577
-3707 -1 6300 1;
#X obj 878 550 / 127;
#X obj 589 600 vsl 30 64 1 20 0 0 empty empty empty 0 -9 0 10 -66577
-3707 -1 6300 1;
#X obj 560 669 cnv 8 24 8 empty empty amp 2 4 1 9 -3707 -1 0;
#X obj 593 669 cnv 8 24 8 empty empty rate 2 4 1 9 -3707 -1 0;
#X obj 557 583 cnv 12 62 12 empty empty tremolo 2 7 1 9 -66577 -3707
0;
#X obj 608 584 tgl 10 0 empty empty on -12 5 1 9 -3707 -1 -3707 1 1
;
#X obj 710 565 *~;
#X obj 750 565 *~;
#X obj 667 450 sel 0 1;
#X msg 648 476 1 0;
#X msg 678 476 1 0;
#X obj 623 501 unpack f f;
#X obj 702 501 unpack f f;
#X obj 353 744 dac~;
#X obj 792 662 env~;
#X floatatom 842 662 5 0 0 0 - - -;
#X obj 875 -113 f;
#X obj 908 -112 + 1;
#X obj 875 -166 tgl 15 0 empty part2 STEP_SEQUENCER 17 7 1 10 -159808
-1 -1 1 1;
#X floatatom 875 -62 5 0 0 0 - - seq1;
#X floatatom 801 -87 5 0 0 0 - seq1 -;
#X floatatom 714 -137 5 0 12 0 - - -;
#X obj 763 -126 spigot;
#X obj 810 -125 tgl 15 0 empty off-1 empty 17 7 0 10 -262144 -1 -1
1 1;
#X obj 714 -64 tabwrite scale;
#X floatatom 453 -137 5 0 0 0 - - -;
#X obj 342 -160 metro 500;
#X obj 410 -158 tgl 15 0 empty empty empty 17 7 0 10 -262144 -1 -1
1 1;
#X obj 875 -143 metro 200;
#X obj 875 -13 f;
#X obj 908 -12 + 1;
#X floatatom 875 38 5 0 0 0 - - seq2;
#X obj 875 -43 metro 800;
#X obj 403 -137 r seq2;
#X obj 875 -89 mod 70;
#X obj 875 11 mod 70;
#X obj 808 624 *~ 0.7;
#X obj -26 399 random 2;
#X obj -26 425 sel 0 1;
#X obj -7 503 line;
#X obj 46 399 random 2;
#X obj 46 425 sel 0 1;
#X obj 65 503 line;
#X msg 46 477 300 2500;
#X msg 65 451 1500 2500;
#X msg -7 451 1500 2500;
#X msg -26 477 300 2500;
#X obj -74 549 freezeverb 299;
#X obj 127 549 freezeverb 300;
#N canvas 591 212 604 508 visual 1;
#X obj 20 33 gemwin;
#X msg 67 33 create \, 1;
#X msg 67 53 destroy \, 0;
#X obj 213 40 gemhead;
#X obj 213 88 translateXYZ;
#X obj 212 138 colorRGB;
#X obj 212 167 alpha;
#X obj 318 73 r alpha;
#X obj 318 104 autoscale 0 1;
#X floatatom 318 129 5 0 0 0 - - -;
#X obj 212 201 ripple 16 16;
#X msg 330 151 draw line;
#X msg 330 171 draw fill;
#X msg 330 191 draw point;
#X obj 410 163 bng 25 250 50 0 empty empty grab 0 -6 0 8 -262144 -1
-1;
#X floatatom 408 199 5 0 0 1 amount - -;
#X obj 411 221 tgl 15 0 empty empty ctrX 18 8 0 8 -262144 -1 -1 0 1
;
#X obj 411 241 tgl 15 0 empty empty ctrY 18 8 0 8 -262144 -1 -1 0 1
;
#X floatatom 346 224 5 0 0 0 - - -;
#X connect 1 0 0 0;
#X connect 2 0 0 0;
#X connect 3 0 4 0;
#X connect 4 0 5 0;
#X connect 5 0 6 0;
#X connect 6 0 10 0;
#X connect 7 0 8 0;
#X connect 8 0 9 0;
#X connect 9 0 5 4;
#X connect 14 0 10 0;
#X connect 15 0 10 2;
#X connect 16 0 10 3;
#X connect 17 0 10 4;
#X connect 18 0 10 1;
#X restore 861 413 pd visual;
#X obj 84 612 env~;
#X floatatom 134 612 5 0 0 0 - - -;
#X obj 174 613 s alpha;
#N canvas 172 22 824 735 bufferfx1s 0;
#X obj 189 736 outlet~;
#X obj -72 256 inlet~;
#X obj 181 428 phasor~;
#X obj 179 504 *~;
#X obj 276 408 /;
#X obj 272 334 t b f;
#X obj 78 319 metro 500;
#X obj 16 63 loadbang;
#X msg 166 355 1;
#X obj 76 345 t b b;
#X msg 58 366 start;
#X msg 107 365 stop;
#X obj 233 271 + 3;
#X obj 135 263 line;
#X msg 134 232 \$1 20;
#X obj 244 230 line;
#X msg 244 204 \$1 20;
#X msg 245 373 44100;
#X obj 106 115 hsl 128 8 30 1000 0 1 4-update empty update -2 5 0 10
-262144 -1 -1 12700 1;
#X obj 106 127 hsl 128 8 3 8 0 1 4-length empty length -2 5 0 10 -262144
-1 -1 12700 1;
#X obj 148 37 inlet;
#X obj 148 62 * 7.8;
#X obj 242 39 inlet;
#X obj -39 536 table \$0bufferfx1r 44100;
#X obj -31 506 table \$0bufferfx1l 44100;
#X obj -19 412 tabwrite~ \$0bufferfx1l;
#X obj 178 533 tabread4~ \$0bufferfx1l;
#X obj -26 207 inlet~;
#X obj 286 744 outlet~;
#X obj 17 455 tabwrite~ \$0bufferfx1r;
#X obj 248 572 tabread4~ \$0bufferfx1r;
#X obj 207 706 +~;
#X obj 245 686 *~;
#X obj 179 679 *~;
#X obj 202 620 * -1;
#X obj 200 644 + 1;
#X obj 309 714 +~;
#X obj 354 687 *~;
#X obj 284 691 *~;
#X obj 343 39 inlet;
#X obj 106 139 hsl 128 8 0 1 0 1 4-dry/wet empty dry/wet -2 5 0 10
-262144 -1 -1 12700 1;
#X connect 1 0 25 0;
#X connect 1 0 33 1;
#X connect 2 0 3 0;
#X connect 3 0 26 0;
#X connect 3 0 30 0;
#X connect 4 0 3 1;
#X connect 5 0 17 0;
#X connect 5 1 4 1;
#X connect 6 0 8 0;
#X connect 6 0 9 0;
#X connect 7 0 6 0;
#X connect 8 0 2 1;
#X connect 9 0 10 0;
#X connect 9 1 11 0;
#X connect 10 0 25 0;
#X connect 10 0 29 0;
#X connect 11 0 25 0;
#X connect 11 0 29 0;
#X connect 12 0 5 0;
#X connect 12 0 2 0;
#X connect 13 0 6 1;
#X connect 14 0 13 0;
#X connect 15 0 12 0;
#X connect 16 0 15 0;
#X connect 17 0 4 0;
#X connect 18 0 14 0;
#X connect 19 0 16 0;
#X connect 20 0 21 0;
#X connect 21 0 18 0;
#X connect 22 0 19 0;
#X connect 26 0 32 1;
#X connect 27 0 29 0;
#X connect 27 0 38 0;
#X connect 30 0 37 1;
#X connect 31 0 0 0;
#X connect 32 0 31 1;
#X connect 33 0 31 0;
#X connect 34 0 35 0;
#X connect 35 0 33 0;
#X connect 35 0 38 1;
#X connect 36 0 28 0;
#X connect 37 0 36 1;
#X connect 38 0 36 0;
#X connect 39 0 40 0;
#X connect 40 0 37 0;
#X connect 40 0 34 0;
#X connect 40 0 32 0;
#X coords 0 -1 1 1 140 50 1 100 100;
#X restore 325 619 pd bufferfx1s;
#X obj 349 674 compressor~;
#X obj 474 679 compressor~;
#X obj 382 702 autopan;
#X obj 467 710 autopan;
#X obj 413 134 * 2;
#X obj 542 145 / 2;
#X obj 651 158 / 4;
#X msg 427 674 2;
#X msg 579 690 2;
#X connect 0 0 100 0;
#X connect 0 0 113 1;
#X connect 1 0 0 0;
#X connect 2 0 121 1;
#X connect 3 0 2 0;
#X connect 4 0 107 0;
#X connect 4 0 114 1;
#X connect 5 0 4 0;
#X connect 6 0 115 1;
#X connect 7 0 6 0;
#X connect 8 0 116 1;
#X connect 9 0 8 0;
#X connect 10 0 117 1;
#X connect 11 0 203 0;
#X connect 12 0 112 1;
#X connect 13 0 204 0;
#X connect 14 0 205 0;
#X connect 15 0 14 0;
#X connect 16 0 119 1;
#X connect 17 0 16 0;
#X connect 18 0 120 1;
#X connect 19 0 18 0;
#X connect 20 0 24 0;
#X connect 20 0 51 0;
#X connect 20 0 52 0;
#X connect 20 0 53 0;
#X connect 20 0 54 0;
#X connect 20 0 55 0;
#X connect 20 0 56 0;
#X connect 20 0 57 0;
#X connect 20 0 58 0;
#X connect 20 0 59 0;
#X connect 21 0 69 0;
#X connect 21 0 109 0;
#X connect 22 0 23 0;
#X connect 22 0 171 0;
#X connect 23 0 20 0;
#X connect 24 0 115 0;
#X connect 25 0 21 0;
#X connect 26 0 36 0;
#X connect 27 0 30 0;
#X connect 28 0 29 0;
#X connect 28 0 31 0;
#X connect 29 0 28 1;
#X connect 30 0 26 0;
#X connect 30 1 33 0;
#X connect 31 0 32 0;
#X connect 32 0 1 0;
#X connect 32 1 5 0;
#X connect 32 2 7 0;
#X connect 32 3 9 0;
#X connect 32 4 11 0;
#X connect 32 5 13 0;
#X connect 32 6 15 0;
#X connect 32 7 17 0;
#X connect 32 8 19 0;
#X connect 32 9 3 0;
#X connect 33 0 28 1;
#X connect 35 0 37 0;
#X connect 36 0 28 0;
#X connect 36 2 42 0;
#X connect 37 0 31 1;
#X connect 38 0 192 1;
#X connect 38 0 193 1;
#X connect 39 0 82 0;
#X connect 39 1 92 0;
#X connect 40 0 37 1;
#X connect 41 0 40 0;
#X connect 42 0 41 0;
#X connect 43 0 44 0;
#X connect 44 0 45 0;
#X connect 45 0 46 0;
#X connect 46 0 127 0;
#X connect 47 0 126 0;
#X connect 48 0 47 0;
#X connect 49 0 48 0;
#X connect 50 0 49 0;
#X connect 51 0 113 0;
#X connect 52 0 119 0;
#X connect 53 0 118 0;
#X connect 54 0 112 0;
#X connect 55 0 117 0;
#X connect 56 0 116 0;
#X connect 57 0 114 0;
#X connect 58 0 121 0;
#X connect 59 0 120 0;
#X connect 60 0 78 0;
#X connect 60 1 88 0;
#X connect 61 0 79 0;
#X connect 61 1 89 0;
#X connect 62 0 80 0;
#X connect 62 1 90 0;
#X connect 63 0 81 0;
#X connect 63 1 91 0;
#X connect 64 0 83 0;
#X connect 64 1 93 0;
#X connect 65 0 84 0;
#X connect 65 1 94 0;
#X connect 66 0 85 0;
#X connect 66 1 95 0;
#X connect 67 0 86 0;
#X connect 67 1 96 0;
#X connect 68 0 87 0;
#X connect 68 1 97 0;
#X connect 69 0 73 0;
#X connect 70 0 71 0;
#X connect 71 0 74 0;
#X connect 71 1 75 0;
#X connect 72 0 73 1;
#X connect 72 0 122 0;
#X connect 73 0 20 0;
#X connect 74 0 72 0;
#X connect 75 0 72 0;
#X connect 76 0 111 0;
#X connect 77 0 110 0;
#X connect 98 0 133 0;
#X connect 99 0 101 0;
#X connect 100 0 103 0;
#X connect 101 0 128 0;
#X connect 102 0 101 1;
#X connect 102 0 108 1;
#X connect 103 0 99 0;
#X connect 104 0 102 0;
#X connect 105 0 134 0;
#X connect 106 0 108 0;
#X connect 107 0 132 0;
#X connect 108 0 129 0;
#X connect 109 0 102 1;
#X connect 110 0 50 0;
#X connect 111 0 43 0;
#X connect 112 0 64 0;
#X connect 113 0 60 0;
#X connect 114 0 61 0;
#X connect 115 0 62 0;
#X connect 116 0 63 0;
#X connect 117 0 39 0;
#X connect 118 0 65 0;
#X connect 119 0 66 0;
#X connect 120 0 67 0;
#X connect 121 0 68 0;
#X connect 122 0 123 0;
#X connect 123 0 110 1;
#X connect 123 0 111 1;
#X connect 124 0 135 1;
#X connect 124 0 195 0;
#X connect 124 0 198 1;
#X connect 124 0 151 0;
#X connect 125 0 135 0;
#X connect 125 0 198 0;
#X connect 125 0 152 0;
#X connect 126 0 124 0;
#X connect 126 0 193 0;
#X connect 127 0 125 0;
#X connect 127 0 192 0;
#X connect 128 0 98 0;
#X connect 129 0 105 0;
#X connect 130 0 131 0;
#X connect 131 0 128 1;
#X connect 131 0 129 1;
#X connect 132 0 106 0;
#X connect 135 0 158 0;
#X connect 135 1 158 1;
#X connect 137 0 151 0;
#X connect 137 0 152 0;
#X connect 138 0 159 0;
#X connect 138 0 158 0;
#X connect 138 0 158 1;
#X connect 139 0 142 0;
#X connect 140 0 181 0;
#X connect 141 0 142 1;
#X connect 142 0 140 0;
#X connect 143 0 141 0;
#X connect 144 0 145 0;
#X connect 145 0 143 0;
#X connect 146 0 139 0;
#X connect 150 0 153 0;
#X connect 151 0 138 0;
#X connect 152 0 138 0;
#X connect 153 0 154 0;
#X connect 153 1 155 0;
#X connect 154 0 156 0;
#X connect 155 0 157 0;
#X connect 156 0 151 1;
#X connect 156 1 152 1;
#X connect 157 0 152 1;
#X connect 157 1 151 1;
#X connect 159 0 160 0;
#X connect 161 0 162 0;
#X connect 161 0 179 0;
#X connect 162 0 161 1;
#X connect 163 0 173 0;
#X connect 163 0 177 0;
#X connect 165 0 169 1;
#X connect 166 0 167 0;
#X connect 167 0 169 0;
#X connect 168 0 167 1;
#X connect 170 0 35 0;
#X connect 171 0 27 0;
#X connect 171 0 70 0;
#X connect 171 0 185 0;
#X connect 171 0 182 0;
#X connect 172 0 171 0;
#X connect 173 0 161 0;
#X connect 174 0 175 0;
#X connect 174 0 180 0;
#X connect 175 0 174 1;
#X connect 177 0 174 0;
#X connect 178 0 170 0;
#X connect 179 0 164 0;
#X connect 180 0 176 0;
#X connect 181 0 138 1;
#X connect 182 0 183 0;
#X connect 183 0 191 0;
#X connect 183 1 190 0;
#X connect 184 0 43 1;
#X connect 184 0 44 1;
#X connect 184 0 45 1;
#X connect 184 0 46 1;
#X connect 185 0 186 0;
#X connect 186 0 188 0;
#X connect 186 1 189 0;
#X connect 187 0 50 1;
#X connect 187 0 49 1;
#X connect 187 0 48 1;
#X connect 187 0 47 1;
#X connect 188 0 187 0;
#X connect 189 0 187 0;
#X connect 190 0 184 0;
#X connect 191 0 184 0;
#X connect 192 0 135 0;
#X connect 193 0 135 1;
#X connect 195 0 196 0;
#X connect 196 0 197 0;
#X connect 198 0 199 0;
#X connect 198 1 200 0;
#X connect 199 0 201 0;
#X connect 200 0 202 0;
#X connect 201 0 158 0;
#X connect 201 1 158 1;
#X connect 202 0 158 0;
#X connect 202 1 158 1;
#X connect 203 0 10 0;
#X connect 204 0 12 0;
#X connect 205 0 118 1;
#X connect 206 0 199 1;
#X connect 207 0 200 1;
